<?xml version="1.0" encoding="utf-8"?>
<!-- Generator: Adobe Illustrator 23.1.1, SVG Export Plug-In . SVG Version: 6.00 Build 0)  -->
<svg version="1.1" id="Layer_1" xmlns="http://www.w3.org/2000/svg" xmlns:xlink="http://www.w3.org/1999/xlink" x="0px" y="0px"
	 viewBox="0 0 1280 151.3" style="enable-background:new 0 0 1280 151.3;" xml:space="preserve">
<style type="text/css">
	.st0{fill:#DDDDDD;stroke:#FFFFFF;stroke-width:1.5;stroke-linecap:round;stroke-linejoin:round;stroke-miterlimit:10;}
	.st1{clip-path:url(#SVGID_2_);}
	.st2{clip-path:url(#SVGID_4_);fill:#0410F2;}
	.st3{clip-path:url(#SVGID_6_);}
	.st4{clip-path:url(#SVGID_8_);fill:#A7F2D6;}
	.st5{clip-path:url(#SVGID_8_);fill:#0410F2;}
	.st6{fill:#0410F2;}
	.st7{fill:none;stroke:#0410F2;stroke-width:8;stroke-linecap:round;stroke-linejoin:round;stroke-miterlimit:10;}
	.st8{fill:#FFFFFF;}
</style>
<g>
	<path class="st6" d="M1279.9-11.9v95.8c-52.4-19.9-111.6-31.2-174.2-31.2c-58.3,0-113.5,9.7-163.2,27.1
		c-9.2,3.2-18.3,6.7-27.1,10.5c-83.4,30.5-176.9,47.5-275.6,47.5c-97.7,0-190.2-16.7-272.9-46.6c-1.7-0.6-3.3-1.3-4.9-1.9
		c-7.3-3.1-11.7-4.7-24.8-9.5C288,61.7,232.3,52.7,174,52.7C111.4,52.7,52.2,64-0.2,83.9v-95.8H1279.9z"/>
	<path class="st6" d="M1280.2-12.2l0.1,96.1l0,0.6l-0.6-0.2c-25.6-9.3-52-16.1-78.8-20.8c-26.8-4.7-53.9-7.2-81-7.5
		c-54.2-0.6-108.4,7-159.7,23.7c-6.4,2.1-12.8,4.3-19.1,6.7c-6.3,2.4-12.5,4.9-18.7,7.5l-4.8,2.1l-4.9,1.8l-9.8,3.6
		c-3.3,1.2-6.5,2.3-9.7,3.4c-3.3,1.1-6.5,2.3-9.8,3.3c-26.1,8.6-52.7,15.9-79.6,21.8c-53.8,11.8-109,17.4-164.1,17.3
		c-55.1-0.3-110.2-6.6-163.8-18.9c-6.7-1.6-13.4-3.1-20-4.9l-10-2.6l-9.9-2.8c-13.2-3.7-26.3-7.9-39.3-12.1l-9.7-3.4
		c-3.2-1.1-6.5-2.2-9.7-3.5l-9.6-3.6c-3.2-1.1-6.6-2.6-9.6-3.9c-6.2-2.7-12.5-5.1-18.9-7.6c-6.4-2.5-12.7-4.8-19.1-6.9
		C294.5,68.7,267.9,62.7,241,59c-26.9-3.7-54.1-5.2-81.3-4.8C105.3,55.2,51,65,0,84.3l0,0l-0.6,0.2v-0.6v-95.8v-0.4l0.4,0
		L1280.2-12.2z M1279.5-11.6L-0.2-11.5l0.4-0.4v95.8l-0.6-0.4l0,0c25.5-9.7,51.8-17.2,78.6-22.4c26.8-5.3,54-8.4,81.3-9.4
		c27.3-0.9,54.7,0,81.9,3.2c27.2,3.2,54.2,8.5,80.5,16.6c6.6,2,13.1,4.2,19.5,6.5c6.4,2.3,12.9,4.5,19.3,7.1
		c3.3,1.3,6.1,2.4,9.4,3.5l9.7,3.2c3.2,1.1,6.5,2,9.7,3l9.7,2.9l9.8,2.7c3.3,0.9,6.5,1.8,9.8,2.6c6.6,1.6,13.1,3.3,19.8,4.7l9.9,2.2
		l10,2c6.6,1.4,13.3,2.5,19.9,3.7c3.3,0.6,6.7,1.1,10,1.6l10,1.6l10,1.4c3.4,0.4,6.7,1,10,1.3l10.1,1.2l5,0.6l5,0.5l10.1,1
		c3.4,0.3,6.7,0.5,10.1,0.8c26.9,2.1,53.9,3.1,80.8,3.1c27-0.1,53.9-1.4,80.8-3.8l10.1-0.9l10.1-1.1c6.7-0.7,13.4-1.6,20.1-2.5
		c3.3-0.4,6.7-0.9,10-1.4l10-1.5c3.3-0.5,6.6-1.1,10-1.7c3.3-0.6,6.7-1.1,10-1.7c26.5-4.8,52.9-11,78.8-18.5c3.3-0.9,6.5-2,9.7-2.9
		c3.2-1,6.5-2,9.7-3l9.5-3.2l4.8-1.6l4.7-1.9c6.4-2.5,12.9-4.9,19.4-7.2c6.5-2.2,13.1-4.3,19.7-6.3c52.9-15.6,108.3-21.8,163.1-19.5
		c54.8,2.3,109.2,13.4,159.9,33.6l-0.6,0.4L1279.5-11.6z"/>
</g>
<g>
	<path class="st8" d="M596.9,99.7c0.6-1.1,1.1-2.2,1.7-3.3c2.4-4.3,5-8.5,8.4-12.2c1-1,2-2,3.2-2.7c0.5-0.3,1.1-0.5,1.6-0.6
		c1.4-0.3,2.7,0.4,3.2,1.8c0.4,1.3,0.4,2.6,0.2,3.9c-0.1,0.7-0.2,1.5-0.4,2.2c-0.1,0.7-0.3,1.5-0.5,2.3c0.5-0.6,1-1.2,1.4-1.8
		c1.4-1.6,2.7-3.3,4.4-4.6c0.9-0.7,1.8-1.2,2.9-1.6c2.1-0.7,3.8,0.2,4.5,2.3c0.2,0.8,0.4,1.6,0.4,2.4c0.1,2.6-0.5,5-1,7.5
		c-0.7,3-1.4,6-2.1,9c-0.4,1.8-0.6,3.6-0.4,5.5c0.1,0.7,0.3,1.4,0.8,2c0.5,0.6,1,0.8,1.8,0.7c1.1-0.1,2.1-0.6,2.9-1.3
		c3-2.2,5.9-4.7,8.2-7.6c0.5-0.6,0.8-1.3,1.4-1.8c0.7-0.7,0.6-1.5,0.6-2.4c0.2-2.4,0.7-4.7,2-6.8c0.4-0.7,0.9-1.3,1.5-1.9
		c1.1-1,2.5-1,3.7-0.1c0.7,0.5,1.1,1.1,1.5,1.8c0.1,0.2,0.2,0.5,0.4,0.8c0.3-0.7,0.5-1.4,0.8-2c0.1-0.2,0.1-0.4,0.2-0.6
		c0.3-0.5,0.8-0.8,1.4-0.6c0.5,0.2,0.9,0.6,0.9,1.2c-0.1,0.7-0.3,1.5-0.4,2.2c-0.4,2.9-0.7,5.7-0.6,8.6c0.1,1,0.2,2,0.7,2.9
		c0.3,0.7,0.5,0.8,1.2,0.3c1-0.7,1.8-1.6,2.4-2.6c3-4.9,5.6-10,7.5-15.4c0.6-1.7,1.2-3.5,1.8-5.3c0.1-0.2,0.1-0.4,0.2-0.6
		c0.2-0.5,0.7-0.7,1.2-0.7c0.5,0.1,1,0.4,1,1c0,0.7,0,1.4-0.1,2.1c-0.4,3.2-0.9,6.4-1.3,9.7c-0.3,2.1-0.4,4.2-0.1,6.3
		c0.1,0.5,0.2,1,0.3,1.6c0.1,0.3,0.2,0.3,0.4,0.2c0.4-0.3,0.9-0.6,1.2-1c1-1.3,2-2.6,2.9-3.9c2-2.8,3.9-5.7,5.9-8.5
		c0.5-0.7,1.2-1.4,1.8-2c0.2-0.2,0.4-0.4,0.6-0.5c1.3-0.9,2.7-0.5,3.4,1c0.5,1,0.7,2,0.7,3.1c0,1.4,0,2.7,0,4.1c0,0.1,0,0.2,0.1,0.3
		c0.1-0.3,0.2-0.6,0.3-0.8c0.8-1.6,1.6-3.3,2.4-4.9c0.3-0.7,0.9-1.1,1.7-1c0.9,0.1,1.2,0.8,1.3,1.6c0.2,1,0.2,2.1,0.4,3.1
		c0.2,1.3,0.4,2.6,0.9,3.8c0.6,1.2,1.2,1.6,2.5,1.2c1-0.3,1.8-0.9,2.6-1.6c1.6-1.5,2.6-3.4,3.3-5.5c0.3-0.8,0.5-1.7,0.8-2.5
		c0.1-0.3,0-0.5-0.3-0.7c-1.2-0.7-2.4-1.5-3.3-2.6c-1.7-2.1-2.4-4.5-1.8-7.2c0.3-1.6,1.5-2.7,3.1-2.9c1-0.1,1.8,0.2,2.5,0.9
		c0.9,0.9,1.5,2,2,3.2c0.9,2.3,1.1,4.6,0.7,7c0,0.3,0,0.5,0.3,0.6c1.7,0.8,3.5,1.6,5.1,2.5c1,0.5,1.9,1.3,2.7,2.3
		c0.2,0.2,0.3,0.2,0.6,0.1c2-1.1,4-2.2,6.1-3.3c0.5-0.3,1-0.2,1.4,0.1c0.4,0.4,0.5,0.9,0.2,1.4c-0.3,0.4-0.6,0.7-1,1
		c-1.4,0.8-2.8,1.5-4.2,2.3c-0.4,0.2-0.9,0.5-1.3,0.7c-0.1,0.1-0.2,0.3-0.2,0.3c0.8,2.1,0.5,4.2-0.2,6.3c-1,2.8-2.8,5.1-5.5,6.6
		c-1.5,0.9-3.2,1.3-4.9,1.1c-1.8-0.3-3.1-1.6-3.2-3.3c-0.1-0.9,0.2-1.8,0.6-2.6c0.8-1.7,1.9-3.1,3.2-4.3c1.9-1.8,3.9-3.4,6.1-4.7
		c0.3-0.2,0.3-0.3,0.1-0.5c-0.9-0.9-2-1.6-3.2-2.2c-1-0.5-2-0.9-3-1.4c-0.3-0.2-0.4-0.1-0.5,0.2c-0.6,2.3-1.5,4.5-2.8,6.5
		c-1.1,1.6-2.5,3-4.3,3.9c-1,0.5-2.1,0.8-3.3,0.6c-1.6-0.2-2.6-1.3-3.2-2.7c-0.7-1.6-1-3.3-1.2-5.1c-0.1,0.2-0.2,0.3-0.2,0.4
		c-1.2,2.4-1.9,5-2.8,7.6c-0.2,0.5-0.4,1.1-0.7,1.5c-0.3,0.5-0.7,0.9-1.4,0.8c-0.6-0.1-1.1-0.6-1.3-1.2c-0.3-1.1-0.1-2.2,0-3.3
		c0.1-2.7,0.4-5.4,0.2-8.1c0-0.4-0.1-0.9-0.2-1.3c-0.1-0.5-0.2-0.6-0.6-0.2c-0.8,0.9-1.5,1.8-2.2,2.8c-2.2,3.1-4.3,6.3-6.5,9.4
		c-0.7,1-1.5,1.8-2.3,2.7c-0.5,0.6-1.2,0.9-2,1.1c-1.1,0.3-2.1-0.1-2.7-1.1c-0.6-0.9-0.7-2-0.8-3.1c-0.2-2.2-0.1-4.4,0.1-6.6
		c0-0.1,0-0.1,0-0.3c-0.5,1-0.8,1.9-1.3,2.7c-1.5,3.1-3.2,6.1-5.1,9c-0.8,1.2-1.7,2.2-3,2.9c-1.6,1-3.1,0.6-4.1-1
		c-0.7-1.1-1-2.4-1.1-3.6c-0.1-1.1-0.1-2.1-0.2-3.2c-0.2,0.4-0.5,0.8-0.7,1.2c-0.8,1.2-1.5,2.4-2.7,3.3c-0.8,0.6-1.6,0.9-2.6,0.8
		c-0.8-0.1-1.4-0.5-1.9-1.1c-0.2-0.2-0.3-0.2-0.4,0c-0.1,0.1-0.2,0.3-0.3,0.4c-0.3,0.5-0.5,1-0.9,1.4c-2.7,3-5.7,5.7-9,8
		c-1,0.7-2.1,1.1-3.3,1.2c-2,0.2-3.6-0.7-4.5-2.5c-0.7-1.4-0.9-3-0.8-4.5c0.2-3.9,1.2-7.7,2.1-11.4c0.5-1.9,0.9-3.9,1.3-5.9
		c0.3-1.4,0.3-2.8,0-4.1c-0.3-1.2-0.8-1.4-1.9-1c-1.1,0.4-2,1.1-2.8,1.9c-2.6,2.6-4.9,5.4-6.7,8.6c-0.7,1.3-1.4,2.5-2.1,3.8
		c-0.1,0.2-0.2,0.3-0.3,0.5c-0.4,0.5-1,0.6-1.5,0.3c-0.5-0.3-0.8-0.8-0.6-1.4c0.5-1.7,1-3.4,1.5-5.1c0.7-2.3,1.5-4.5,1.8-6.9
		c0.2-1.1,0.3-2.2,0.1-3.3c-0.1-0.7-0.3-0.9-1-0.5c-0.5,0.3-1,0.6-1.4,0.9c-2,1.6-3.5,3.6-4.9,5.6c-2.4,3.4-4.5,7-6.4,10.7
		c-1.7,3.2-3.2,6.5-4.4,10c-0.6,1.7-1,3.4-1.4,5.1c-0.2,0.8-0.5,1.7-0.7,2.5c-0.1,0.3-0.2,0.5-0.3,0.8c-0.2,0.5-0.6,0.8-1.2,0.8
		c-0.5,0-1-0.4-1.1-1c-0.1-0.5-0.1-1,0-1.4c0.4-1.6,0.9-3.3,1.5-4.8c0.9-2.3,1.5-4.7,1.9-7.1c0.5-3,1.1-6,1.4-8.9
		c0.3-2.3,0.4-4.7,0.5-7.1c0-1.2-0.2-2.5-0.4-3.7c-0.3-1.3-0.7-1.5-1.9-0.8c-1.2,0.7-2.3,1.7-3.2,2.8c-2.4,2.9-4.6,6-6.3,9.4
		c-0.6,1.2-1.3,2.3-1.6,3.6c-0.1,0.5-0.6,0.8-1.1,0.7c-0.5-0.1-0.9-0.5-0.9-1c0-0.4,0.1-0.8,0.2-1.2c1.1-3,2.5-5.9,4.4-8.6
		c1.4-2,2.8-4,4.6-5.7c1.1-1,2.2-2,3.6-2.5c1.9-0.7,3.4-0.1,4.2,1.8c0.5,1.1,0.7,2.3,0.8,3.5c0.2,3-0.1,5.9-0.4,8.8
		C597.1,97.7,596.9,98.7,596.9,99.7C596.8,99.7,596.8,99.7,596.9,99.7z M710.4,95.9c0-0.4-0.1-0.8-0.1-1.2c0-0.3-0.2-0.4-0.5-0.2
		c-1.8,1.1-3.4,2.3-5,3.7c-1,0.9-1.9,1.8-2.6,2.9c-0.5,0.8-1,1.6-1.2,2.6c-0.1,0.5,0.1,0.8,0.5,1c0.5,0.3,1.1,0.3,1.7,0.2
		c1.5-0.2,2.8-0.9,3.9-2C709.1,101,710.2,98.8,710.4,95.9z M642.5,100.5c0.1,0.4,0.2,1.1,0.4,1.7c0.2,0.5,0.6,0.6,1,0.3
		c0.5-0.3,0.9-0.7,1.3-1.2c1.2-1.5,2-3.1,2.7-4.8c0.1-0.1,0.1-0.3,0-0.4c-0.3-0.9-0.6-1.7-1.1-2.5c-0.2-0.4-0.6-0.7-1-1
		c-0.2-0.2-0.4-0.1-0.6,0c-0.3,0.3-0.6,0.6-0.8,1C643.2,95.6,642.7,97.9,642.5,100.5z M700.4,83c0-1.7-0.4-3.3-1.1-4.7
		c-0.2-0.5-0.5-0.9-0.9-1.3c-0.4-0.5-1-0.5-1.3,0.1c-0.2,0.4-0.4,0.8-0.4,1.2c-0.2,2.8,1.1,4.7,3.4,6.1c0.2,0.1,0.3,0.1,0.3-0.1
		C700.4,83.8,700.4,83.4,700.4,83z"/>
	<path class="st8" d="M688.3,54.7c-0.4,0.9-0.8,1.7-1.2,2.5c-1.2,2.3-2.6,4.4-4.5,6.2c-0.7,0.6-1.5,1.2-2.4,1.3
		c-1.1,0.2-2.1-0.2-2.7-1.1c-0.5-0.8-0.6-1.7-0.8-2.6c-0.1-0.5-0.1-1.1-0.1-1.6c-0.4,0.9-0.8,1.7-1.3,2.6c-1,2-2.3,3.8-3.9,5.4
		c-0.6,0.6-1.3,1.1-2,1.4c-1.5,0.8-3,0.1-3.6-1.5c-0.3-0.9-0.4-1.9-0.3-2.8c0.2-2.5,0.6-4.9,1.1-7.3c0-0.1,0-0.2,0-0.3
		c-0.6,1-1.2,2-1.8,2.9c-2,3.3-4.3,6.2-7.2,8.8c-0.6,0.5-1.3,1-1.9,1.4c-0.4,0.3-0.9,0.4-1.5,0.3c-0.7-0.2-1.2-0.9-0.9-1.6
		c0.2-0.5,0.7-0.9,1.2-0.7c0.3,0.1,0.5,0,0.7-0.2c0.9-0.8,1.7-1.7,2.6-2.6c3-3.1,5.1-6.7,7.2-10.4c1.4-2.4,2.6-5,3.7-7.6
		c0.1-0.1,0.1-0.3,0.1-0.4c-0.1,0-0.3,0.1-0.4,0.1c-1.5,0.6-3.1,1.1-4.6,1.7c-0.7,0.2-1.3,0-1.5-0.6c-0.2-0.6,0-1.2,0.7-1.5
		c0.1,0,0.2-0.1,0.3-0.1c1.7-0.7,3.3-1.4,5-2.1c0.5-0.2,1-0.4,1.5-0.7c0.1-0.1,0.3-0.3,0.3-0.5c0.5-2,0.9-4,1.4-6
		c0.1-0.3,0.1-0.5,0.2-0.8c0.1-0.3,0.3-0.6,0.5-0.8c0.4-0.4,0.8-0.5,1.3-0.3c0.5,0.2,0.8,0.7,0.8,1.2c-0.1,1-0.3,2-0.5,2.9
		c-0.1,0.7-0.4,1.4-0.6,2.1c0,0.1,0,0.2,0,0.2c0.1,0,0.2,0,0.2,0c0.6-0.2,1.1-0.1,1.4,0.3c0.3,0.4,0.3,0.9-0.1,1.4
		c-0.4,0.6-1,0.9-1.6,1.1c-0.8,0.3-1.1,0.8-1.4,1.6c-1.2,4.4-2.4,8.8-3.2,13.2c-0.3,1.7-0.5,3.4-0.7,5c-0.1,0.5,0,1.1,0.1,1.6
		c0.1,0.5,0.2,0.6,0.7,0.3c0.4-0.3,0.8-0.6,1.1-0.9c1.5-1.6,2.7-3.3,3.7-5.3c1.8-3.5,2.8-7.3,3.5-11.2c0-0.2,0.1-0.3,0.1-0.5
		c0.2-0.7,0.7-1.1,1.3-1c0.6,0,1.1,0.5,1.1,1.2c0,0.5,0,1,0,1.5c-0.2,3.2-0.6,6.5-0.5,9.7c0,0.6,0.1,1.3,0.3,1.9
		c0.1,0.5,0.3,0.6,0.8,0.3c0.4-0.3,0.9-0.6,1.2-1c1.4-1.4,2.5-3.1,3.4-4.9c1.7-3.3,2.7-6.8,3.4-10.4c0.4-1.8,0.6-3.7,0.9-5.5
		c0.1-0.5,0.1-0.5-0.4-0.4c-1.2,0.4-2.3,0.7-3.5,1c-0.2,0.1-0.4,0.1-0.6,0.1c-0.5,0-0.9-0.3-1-0.8c-0.1-0.4,0.1-0.9,0.5-1.1
		c0.2-0.1,0.4-0.2,0.6-0.2c1.4-0.5,2.9-1,4.4-1.5c0.3-0.1,0.4-0.3,0.4-0.6c0.2-2.1,0.3-4.2,0.5-6.4c0-0.3,0.2-0.7,0.3-1
		c0.3-0.5,0.9-0.7,1.4-0.6c0.5,0.1,0.9,0.6,0.9,1.2c0,0.9-0.1,1.9-0.1,2.8c-0.1,1-0.2,1.9-0.3,2.9c0,0.3,0,0.3,0.3,0.2
		c2.6-1,5.2-2,7.8-2.9c0.3-0.1,0.5-0.2,0.8-0.2c0.8,0,1.3,0.9,0.9,1.7c-0.2,0.5-0.7,0.7-1.2,0.9c-2.2,0.8-4.5,1.7-6.7,2.5
		c-0.6,0.2-1.2,0.5-1.9,0.7c-0.3,0.1-0.5,0.3-0.5,0.6c-0.1,1-0.2,2-0.3,3.1c-0.2,2.9-0.4,5.9-0.6,8.8c-0.1,2.4-0.3,4.7,0.1,7.1
		c0.1,1,0.3,2,0.8,2.8c0.6,1.1,1.4,1.4,2.6,0.9c1.4-0.6,2.5-1.5,3.6-2.6c0.2-0.2,0.2-0.3,0-0.5c-1.5-1.6-2.1-3.6-2.4-5.8
		c-0.2-2.5,0-4.9,1-7.3c0.5-1.1,1.1-2.1,2.2-2.8c1.1-0.7,2.4-0.7,3.5,0.1c1.3,0.9,1.8,2.2,2,3.7c0.3,1.8,0,3.6-0.4,5.4
		c-0.5,2.1-1.1,4.1-2.2,6c-0.2,0.3,0,0.3,0.3,0.4c1.5,0.2,2.8-0.2,4-1.1c1.7-1.2,2.9-2.8,3.8-4.6c0.7-1.6,1.3-3.3,1.6-5.1
		c0-0.2,0-0.4-0.1-0.6c-0.4-1.4-0.9-2.8-1.2-4.2c-0.1-0.7-0.1-1.4,0-2.1c0.1-0.6,0.5-1,1.1-1.1c0.6-0.1,1.1,0.1,1.4,0.5
		c0.3,0.4,0.5,0.9,0.7,1.3c0.5,1.5,0.7,3.1,0.6,4.6c-0.1,0.7,0.1,1.4,0.4,2c1.2,2.8,2.3,5.6,3.5,8.4c0.1,0.3,0.3,0.7,0.4,1.1
		c0.1,0.3,0.2,0.3,0.5,0.2c1.6-0.6,3.2-1.2,4.8-1.7c0.9-0.3,1.8-0.3,2.8-0.4c0.5,0,1,0.2,1.4,0.6c0.3,0.4,0.4,0.8,0.2,1.2
		c-0.2,0.4-0.6,0.7-1,0.7c-1.6-0.2-3.2,0.4-4.7,0.9c-0.9,0.3-1.8,0.7-2.8,1.1c-0.3,0.1-0.3,0.3-0.3,0.5c0.2,1.1,0.5,2.2,0.5,3.4
		c0.1,2.5-0.2,5-1.7,7.2c-1.4,2-3.2,3.4-5.8,3.7c-2,0.3-4.1-0.7-4.9-2.3c-0.6-1.2-0.5-2.4-0.2-3.6c0.5-1.8,1.4-3.4,2.6-4.8
		c1.7-2,3.8-3.6,6.1-4.9c0.3-0.2,0.4-0.3,0.2-0.6c-1-2.4-1.9-4.8-2.8-7.1c0-0.1-0.1-0.2-0.2-0.2c0,0.1-0.1,0.2-0.1,0.2
		c-0.5,1.5-1.2,3-2.1,4.3c-1.4,2.1-3.2,3.8-5.7,4.7c-1.6,0.6-3.2,0.6-4.7,0c-0.3-0.1-0.4,0-0.5,0.2c-1.2,1.3-2.6,2.4-4.2,3.2
		c-2.7,1.3-5.3,0.2-6.4-2.7c-0.5-1.3-0.7-2.6-0.8-4C688.3,56.5,688.3,55.6,688.3,54.7z M717.1,64.7c-0.1-0.7-0.2-1.7-0.4-2.7
		c0-0.2-0.1-0.3-0.3-0.2c-0.3,0.2-0.7,0.4-1,0.6c-2,1.3-3.8,2.9-5.1,4.9c-0.7,1.1-1.2,2.3-1.2,3.7c0,0.6,0.3,1,0.8,1.3
		c0.7,0.4,1.4,0.5,2.1,0.3c1.8-0.4,3.1-1.5,4-3C716.9,68.3,717,66.6,717.1,64.7z M701.9,48.7c0-0.5,0-0.9-0.1-1.2
		c-0.1-0.7-0.3-1.4-0.8-2c-0.5-0.5-0.9-0.6-1.4-0.1c-0.3,0.4-0.7,0.8-0.9,1.3c-1,2.3-1.1,4.6-0.8,7c0.2,1.2,0.5,2.3,1.2,3.2
		c0.2,0.2,0.3,0.3,0.4,0C700.9,54.3,701.7,51.5,701.9,48.7z"/>
	<path class="st8" d="M619.7,48.7c-0.2,1.1-0.3,2.3-0.5,3.6c-0.1,0.3,0,0.5,0.3,0.6c1.6,0.8,3.2,1.7,4.7,2.6
		c1.9,1.1,3.2,2.8,3.9,4.8c0.1,0.2,0.2,0.3,0.4,0.4c0.7,0.4,0.8,1.1,0.4,1.7c-0.1,0.1-0.2,0.4-0.2,0.5c0.2,2.7-0.5,5.1-2.1,7.3
		c-1,1.4-2.2,2.5-3.8,3.1c-1.3,0.5-2.6,0.7-3.9,0.2c-1.7-0.6-2.5-2.1-2-3.8c0.3-1.2,1-2.2,1.8-3.2c1.9-2.2,4.2-3.9,6.9-5.1
		c0.4-0.2,0.4-0.3,0.2-0.7c-0.7-1.6-1.8-2.8-3.3-3.6c-1.2-0.7-2.5-1.3-3.8-2c-0.2-0.1-0.3,0-0.3,0.2c-0.8,2.5-2,4.8-3.5,7
		c-1.5,2.1-3.2,4.1-5.4,5.6c-1,0.7-2.1,1.2-3.2,1.5c-2.2,0.6-4.2,0.2-5.9-1.2c-0.3-0.2-0.5-0.3-0.9-0.1c-2.6,1.1-5.1,1-7.3-0.9
		c-1.8-1.5-3.1-3.4-3.8-5.7c-0.4-1.5-0.7-3-1-4.5c-0.1-0.4-0.2-0.3-0.4-0.2c-1.9,1.4-3.9,2.7-6.1,3.6c-0.9,0.3-1.8,0.5-2.8,0.7
		c-0.6,0.1-1-0.3-1.1-0.9c-0.1-0.6,0.2-1.1,0.8-1.2c2-0.3,3.6-1.3,5.2-2.4c1.2-0.8,2.4-1.7,3.7-2.6c0.3-0.2,0.3-0.4,0.3-0.7
		c-0.3-4.4,0.2-8.8,1.4-13c0.9-3,2-5.9,3.6-8.5c1-1.7,2.3-3.2,4.1-4.2c1.3-0.7,2.6-1.1,4-0.8c1.9,0.4,3.2,1.9,3.5,4
		c0.3,1.9-0.1,3.8-0.6,5.6c-1.4,4.3-3.6,8-6.5,11.4c-2.1,2.4-4.3,4.7-6.8,6.8c-0.1,0.1-0.2,0.3-0.2,0.5c0.2,1.9,0.5,3.8,1.1,5.6
		c0.7,2,1.8,3.8,3.6,5c1.2,0.8,2.5,0.7,3.9,0.3c0.3-0.1,0.2-0.2,0.1-0.4c-0.7-1.2-1.2-2.5-1.4-4c-0.3-2.7,0.2-5.3,1.7-7.7
		c1.4-2.1,3.8-2.9,5.9-1.8c1.5,0.7,2.2,2,2.6,3.6c0.4,2.1-0.1,4.1-1,5.9c-0.9,1.8-2.1,3.2-3.6,4.5c-0.3,0.2-0.2,0.3,0.1,0.5
		c1.1,0.6,2.2,0.7,3.4,0.3c1.6-0.6,3.1-1.5,4.3-2.7c2.9-2.9,4.9-6.3,6.1-10.1c0.1-0.2,0-0.4-0.2-0.5c-0.8-0.5-1.6-1-2.3-1.6
		c-1.5-1.3-2.7-2.8-3.1-4.8c-0.5-2.3,0.7-4.9,2.8-6c1.6-0.8,3.4-0.4,4.5,1.1c0.9,1.2,1.3,2.5,1.6,4
		C619.5,47.2,619.6,47.8,619.7,48.7z M589.2,50.4c0,0.4,0,0.8,0,1.2c0,0.1,0,0.2,0.1,0.2c0.1,0,0.1-0.1,0.2-0.1
		c3.1-2.9,6-5.9,8.2-9.6c1.5-2.5,2.9-5.2,3.4-8.2c0.2-0.9,0.2-1.9,0-2.9c-0.2-1.3-1.2-2-2.5-1.6c-0.7,0.2-1.4,0.5-2,0.9
		c-1.2,0.7-2,1.8-2.7,3C590.9,38.6,589.5,44.3,589.2,50.4z M599.1,60.4c0,1.5,0.3,2.8,1.1,4.1c0.1,0.2,0.2,0.3,0.4,0.1
		c1.7-1.5,3-3.2,3.7-5.4c0.3-1.2,0.5-2.4,0-3.6c-0.4-1.1-1.2-1.5-2.3-1.4c-0.7,0.1-1.2,0.6-1.6,1.2C599.5,57,599.1,58.6,599.1,60.4z
		 M620.4,71.5c0.7,0,1.4-0.2,2-0.5c2.5-1.5,3.7-3.9,3.9-6.7c0-0.3-0.1-0.3-0.3-0.2c-2.2,1.1-4.2,2.7-5.8,4.6
		c-0.3,0.4-0.6,0.8-0.8,1.3C618.8,71,619.1,71.5,620.4,71.5z M617.2,48.7c-0.1-0.7-0.1-1.2-0.1-1.6c-0.2-1.1-0.4-2.1-1.1-3
		c-0.5-0.7-1.1-0.7-1.8-0.3c-1.3,0.9-1.7,2.6-0.9,4.1c0.8,1.5,2,2.5,3.3,3.4c0.2,0.1,0.3,0.1,0.3-0.2
		C617,50.3,617.1,49.4,617.2,48.7z"/>
	<path class="st8" d="M644.6,46.1c-0.4,0.6-0.8,1.2-1.2,1.8c-1.2,1.9-2.6,3.6-4.2,5.1c-0.9,1-2,1.7-3.3,2.2
		c-0.4,0.2-0.8,0.3-1.3,0.3c-0.5,0-0.9-0.4-1-0.8c-0.1-0.5,0.1-1,0.6-1.2c1.6-0.6,2.8-1.7,3.9-2.9c2.5-2.8,4.5-6,6.2-9.3
		c0.4-0.7,0.9-1,1.5-0.9c0.7,0.2,1.2,0.7,1.2,1.5c0,2.4-0.1,4.8-0.1,7.2c0,0.7-0.1,1.4-0.1,2.2c0.4-0.7,0.8-1.4,1.2-2
		c0.9-1.4,1.9-2.7,3.2-3.7c1-0.8,2.2-1.2,3.4-0.9c1.6,0.3,2.5,1.4,3,2.9c0.5,1.5,0.3,3-0.1,4.6c-0.7,2.9-2,5.5-4.4,7.4
		c-1.6,1.3-3.4,2.4-5.5,2.7c-0.4,0.1-0.8,0.1-1.2,0c-0.3,0-0.4,0.1-0.4,0.4c-0.1,1.1-0.1,2.2-0.2,3.3c-0.2,2.4-0.4,4.8-0.6,7.1
		c-0.2,2.2-0.4,4.3-0.5,6.5c-0.1,1.2-0.2,2.4-0.2,3.5c0,0.2,0,0.4-0.1,0.5c-0.2,0.5-0.6,0.8-1.1,0.8c-0.5,0-0.9-0.2-1.1-0.7
		c-0.1-0.3-0.2-0.6-0.2-1c0-2.3,0-4.6,0-6.8c-0.1-5,0.6-10,1.6-14.9c-0.1-0.9,0.3-1.7,0.3-2.6c0.1-2,0.3-4,0.4-5.9
		C644.5,50.3,644.6,48.2,644.6,46.1C644.6,46.1,644.6,46.1,644.6,46.1z M655.6,49.5c-0.1-0.5-0.1-0.9-0.2-1.4
		c-0.3-1.1-1.2-1.5-2.2-0.9c-0.6,0.4-1.2,0.9-1.7,1.4c-2.6,3.2-4.2,6.8-5.1,10.8c-0.1,0.3,0.1,0.3,0.3,0.4c0.8,0,1.5-0.1,2.1-0.4
		C653.2,57.5,655.1,54,655.6,49.5z"/>
	<path class="st8" d="M665.1,28.7c-0.3,1.5-0.6,3-1,4.5c-0.6,2.4-1.6,4.6-2.8,6.7c-0.3,0.6-0.9,0.8-1.4,0.6
		c-0.5-0.2-0.8-0.8-0.6-1.4c0.2-0.6,0.5-1.1,0.7-1.7c1.2-2.7,1.9-5.4,2.4-8.3c0.1-0.3,0.1-0.6,0.2-0.9c0.2-0.6,0.7-1,1.3-0.9
		c0.6,0.1,0.9,0.6,1,1.2c0,0.1,0,0.1,0,0.2C665,28.6,665.1,28.6,665.1,28.7z"/>
	<path class="st8" d="M712.8,25c0,0.8-0.3,1.3-0.9,1.4c-0.5,0.1-1.1-0.1-1.3-0.6c-0.2-0.4-0.3-0.8-0.3-1.3c-0.2-1.9-0.4-3.8-0.6-5.7
		c-0.1-0.6-0.1-1.3-0.1-1.9c0-0.7,0.5-1.2,1.1-1.2c0.6,0,1,0.4,1.1,1.1c0.2,1.6,0.4,3.3,0.6,4.9C712.5,22.9,712.7,24.1,712.8,25z"/>
	<path class="st8" d="M575,114.7c0.2,0,0.3,0,0.5,0c0.7,0,1.2,0.4,1.2,1c0,0.6-0.5,1-1.2,1.1c-1,0.1-2.1,0.3-3.1,0.5
		c-1.1,0.3-2.2,0.7-3.3,1c-0.4,0.1-0.8,0.2-1.2,0.3c-0.5,0.1-1-0.2-1.2-0.7c-0.2-0.4-0.1-1,0.3-1.3c0.5-0.3,1-0.6,1.5-0.7
		c1.8-0.5,3.7-0.9,5.5-1.3C574.4,114.7,574.7,114.7,575,114.7C575,114.7,575,114.7,575,114.7z"/>
	<path class="st8" d="M720.3,26.4c-0.8,0-1.4-0.8-1-1.5c0.1-0.2,0.2-0.4,0.3-0.5c1.2-1.7,2.5-3.4,3.7-5.1c0.3-0.4,0.6-0.7,1.1-0.6
		c0.7,0.1,1.1,0.8,0.8,1.5c-0.3,0.6-0.6,1.1-0.9,1.7c-0.6,1-1.3,2-2,3c-0.4,0.5-0.9,1-1.3,1.4C720.8,26.3,720.5,26.3,720.3,26.4z"/>
	<path class="st8" d="M572.1,126.7c0.1-0.2,0.2-0.5,0.4-0.7c0.7-0.9,1.6-1.7,2.3-2.6c0.4-0.5,0.7-1.1,1.1-1.6
		c0.2-0.4,0.7-0.7,1.1-0.6c0.5,0.1,0.9,0.5,0.9,1.1c0,0.4-0.1,0.8-0.4,1.2c-0.9,1.5-2,2.8-3.3,4c-0.2,0.2-0.5,0.4-0.8,0.5
		C572.8,128.1,572.1,127.6,572.1,126.7z"/>
	<path class="st8" d="M669.6,75.2c0,0.2-0.1,0.5-0.2,0.7c-0.4,0.9-1.2,1.4-2.2,1.6c-1,0.2-2-0.9-1.7-2c0.1-0.7,0.5-1.2,1-1.7
		c0.6-0.5,1.3-0.7,2-0.4C669.2,73.8,669.6,74.3,669.6,75.2z"/>
	<path class="st8" d="M585.6,126.9c0.8,0,1.4,0.8,1.2,1.5c-0.2,0.5-0.3,1.1-0.4,1.6c-0.1,0.4-0.2,0.8-0.5,1.2
		c-0.3,0.5-0.8,0.6-1.3,0.5c-0.5-0.2-0.7-0.6-0.7-1.2c0.1-0.9,0.3-1.7,0.5-2.6C584.7,127.3,585.1,127,585.6,126.9z"/>
	<path class="st8" d="M680.1,35.9c-0.6,0-1-0.5-1-1c0-0.6,0.5-1,1.1-1c0.5,0,1,0.5,1,1C681.2,35.4,680.7,35.9,680.1,35.9z"/>
</g>
</svg>
