<svg id="Layer_1" data-name="Layer 1" xmlns="http://www.w3.org/2000/svg" viewBox="0 0 1280 140.32"><title>headerlogo2</title><path d="M1280-21.49V74.35c-52.41-19.94-111.56-31.15-174.16-31.15-58.27,0-113.55,9.72-163.18,27.14q-13.86,4.84-27.11,10.51C832.15,111.3,738.69,128.36,640,128.36c-97.67,0-190.19-16.7-272.91-46.55-1.67-.6-3.32-1.25-4.94-1.93-7.33-3.08-11.71-4.69-24.82-9.54C288.15,52.16,232.4,43.2,174.13,43.2,111.53,43.2,52.38,54.41,0,74.35V-21.49Z" style="fill:#0410f2"/><path d="M1280.29-21.8l.13,96.15V75l-.59-.21A469.07,469.07,0,0,0,1201,54a501.33,501.33,0,0,0-81-7.49c-54.18-.62-108.44,7-159.7,23.75-6.41,2.08-12.76,4.32-19.07,6.66s-12.54,4.89-18.71,7.55l-4.76,2.08L913,88.32l-9.77,3.61c-3.25,1.19-6.49,2.27-9.74,3.41s-6.48,2.3-9.76,3.34a811.5,811.5,0,0,1-79.61,21.81,758.18,758.18,0,0,1-164.13,17.28,748,748,0,0,1-163.81-18.9c-6.69-1.59-13.39-3.08-20-4.86l-10-2.57-9.92-2.78C423,105,409.9,100.81,396.87,96.54l-9.72-3.38c-3.24-1.12-6.47-2.24-9.68-3.47l-9.64-3.56c-3.17-1.1-6.64-2.61-9.62-3.94-6.17-2.66-12.51-5.07-18.86-7.55s-12.66-4.78-19.09-6.92a437.62,437.62,0,0,0-79.12-18.29,527.19,527.19,0,0,0-81.3-4.76C105.48,45.68,51.09,55.48.12,74.76h0L-.47,75v-96.9H0Zm-.61.62L0-21.06l.43-.43V74.35l-.59-.41h0A482.5,482.5,0,0,1,78.45,51.53a514,514,0,0,1,81.32-9.37,550.83,550.83,0,0,1,81.9,3.18,454.11,454.11,0,0,1,80.46,16.55c6.56,2,13.09,4.25,19.53,6.51s12.89,4.52,19.32,7c3.3,1.32,6.13,2.44,9.43,3.47l9.67,3.16c3.21,1.07,6.46,2,9.71,3L399.53,88l9.8,2.7c3.27.89,6.52,1.84,9.82,2.62,6.58,1.62,13.13,3.32,19.75,4.74l9.91,2.22,9.95,2c6.62,1.4,13.3,2.5,19.95,3.7,3.32.63,6.67,1.11,10,1.64l10,1.58,10,1.37c3.35.43,6.69,1,10.05,1.3L528.88,113l5,.58,5,.48,10.07,1c3.36.35,6.73.53,10.09.82q40.35,3.18,80.83,3.06t80.76-3.81l10.07-.9,10.05-1.1c6.71-.66,13.38-1.63,20.07-2.47,3.35-.39,6.68-.9,10-1.4l10-1.48c3.33-.52,6.65-1.12,10-1.68s6.67-1.07,10-1.71a785.85,785.85,0,0,0,78.82-18.54c3.26-.9,6.47-2,9.7-2.93s6.48-2,9.67-3l9.52-3.19,4.76-1.59L918,73.28q9.64-3.81,19.44-7.16c6.54-2.2,13.11-4.33,19.73-6.26,52.93-15.59,108.3-21.83,163.08-19.5s109.18,13.35,159.9,33.58l-.59.41Z" style="fill:#0410f2"/><path d="M601.44,93.6c.52-1,1-2,1.55-2.93a56.68,56.68,0,0,1,7.51-11,11.84,11.84,0,0,1,2.91-2.41,5.57,5.57,0,0,1,1.46-.58,2.37,2.37,0,0,1,2.86,1.65,7.5,7.5,0,0,1,.19,3.49c-.09.66-.2,1.33-.33,2s-.3,1.3-.47,2c.46-.58.85-1.1,1.27-1.6a23.82,23.82,0,0,1,4-4.1,8.68,8.68,0,0,1,2.57-1.4,2.94,2.94,0,0,1,4,2,9.22,9.22,0,0,1,.37,2.16,23.17,23.17,0,0,1-.94,6.72c-.64,2.68-1.29,5.36-1.85,8.07a15,15,0,0,0-.37,4.92,3.48,3.48,0,0,0,.69,1.82,1.63,1.63,0,0,0,1.57.62,5.39,5.39,0,0,0,2.63-1.15,40.07,40.07,0,0,0,7.39-6.8c.44-.53.74-1.17,1.22-1.64.65-.63.52-1.38.59-2.13a14.12,14.12,0,0,1,1.78-6.11,7.84,7.84,0,0,1,1.35-1.68,2.46,2.46,0,0,1,3.33-.13,4.75,4.75,0,0,1,1.38,1.64c.11.2.21.41.36.68.25-.66.47-1.24.7-1.83a4.34,4.34,0,0,1,.2-.5,1.05,1.05,0,0,1,1.24-.55,1,1,0,0,1,.77,1.11c-.08.67-.25,1.32-.35,2a35.6,35.6,0,0,0-.51,7.71,6.64,6.64,0,0,0,.61,2.59c.31.62.49.67,1.06.29a7.7,7.7,0,0,0,2.15-2.36,70.56,70.56,0,0,0,6.76-13.76c.56-1.57,1.08-3.15,1.62-4.72a5,5,0,0,1,.21-.58,1.09,1.09,0,0,1,1.08-.62,1,1,0,0,1,.92.86,10.35,10.35,0,0,1-.12,1.84c-.38,2.89-.82,5.77-1.17,8.66a23.48,23.48,0,0,0-.1,5.68,12.86,12.86,0,0,0,.29,1.4c0,.23.19.28.36.15a6.15,6.15,0,0,0,1.11-.9q1.37-1.71,2.63-3.49c1.78-2.54,3.51-5.11,5.3-7.64a17.75,17.75,0,0,1,1.57-1.8,3.65,3.65,0,0,1,.57-.47,1.94,1.94,0,0,1,3,.87A6.8,6.8,0,0,1,679,84.5c0,1.23,0,2.45,0,3.68a.61.61,0,0,0,.06.31c.1-.25.19-.5.3-.73.72-1.46,1.43-2.92,2.18-4.36a1.41,1.41,0,0,1,1.52-.91,1.51,1.51,0,0,1,1.2,1.45c.13.91.21,1.84.32,2.76a11.54,11.54,0,0,0,.85,3.41,1.63,1.63,0,0,0,2.25,1.1A5.28,5.28,0,0,0,690,89.79a12.38,12.38,0,0,0,3-4.91c.26-.73.45-1.48.68-2.22.1-.29,0-.44-.25-.59a10.33,10.33,0,0,1-3-2.32,7.33,7.33,0,0,1-1.62-6.41,3.19,3.19,0,0,1,2.77-2.61,2.71,2.71,0,0,1,2.25.81,7.64,7.64,0,0,1,1.75,2.85,12,12,0,0,1,.64,6.31.45.45,0,0,0,.31.55c1.55.73,3.1,1.46,4.62,2.26a7.92,7.92,0,0,1,2.37,2c.18.21.3.2.51.08,1.81-1,3.62-2,5.43-3a1,1,0,0,1,1.25.11.94.94,0,0,1,.18,1.23,2.74,2.74,0,0,1-.9.86c-1.24.72-2.51,1.37-3.77,2-.39.21-.78.41-1.15.64a.34.34,0,0,0-.14.31,8,8,0,0,1-.21,5.61,11.17,11.17,0,0,1-4.89,6,6.57,6.57,0,0,1-4.41,1,3.14,3.14,0,0,1-2.86-2.93,4.68,4.68,0,0,1,.57-2.31,13,13,0,0,1,2.89-3.89,31.17,31.17,0,0,1,5.51-4.19c.26-.15.25-.24,0-.44a9.68,9.68,0,0,0-2.84-2c-.89-.42-1.79-.81-2.67-1.23-.29-.14-.36-.06-.44.22a18.81,18.81,0,0,1-2.53,5.83,10.07,10.07,0,0,1-3.83,3.47,5.07,5.07,0,0,1-2.93.53A3.7,3.7,0,0,1,683.5,91a14.44,14.44,0,0,1-1.11-4.59l-.19.33a55.17,55.17,0,0,0-2.54,6.81,10,10,0,0,1-.59,1.39,1.22,1.22,0,0,1-1.26.73,1.39,1.39,0,0,1-1.14-1.12,9.92,9.92,0,0,1,0-2.93,56.9,56.9,0,0,0,.18-7.27,7.86,7.86,0,0,0-.2-1.18c-.12-.49-.18-.52-.5-.14-.67.81-1.36,1.62-2,2.48-2,2.8-3.87,5.64-5.85,8.43a22.4,22.4,0,0,1-2.07,2.4,3.81,3.81,0,0,1-1.77,1,2,2,0,0,1-2.38-1,6.59,6.59,0,0,1-.74-2.75,27.82,27.82,0,0,1,.13-5.91,2.14,2.14,0,0,0,0-.26c-.4.86-.76,1.66-1.15,2.44A69.88,69.88,0,0,1,655.77,98a8.41,8.41,0,0,1-2.64,2.57,2.47,2.47,0,0,1-3.7-.87,7.21,7.21,0,0,1-1-3.25c-.09-1-.11-1.9-.16-2.85-.21.36-.42.74-.65,1.11a9.74,9.74,0,0,1-2.43,3,3.16,3.16,0,0,1-2.35.69,2.54,2.54,0,0,1-1.66-1c-.16-.2-.26-.22-.39,0s-.17.26-.25.39a9.09,9.09,0,0,1-.8,1.27,41.57,41.57,0,0,1-8.11,7.16,6.37,6.37,0,0,1-3,1.06,3.84,3.84,0,0,1-4-2.2A7.63,7.63,0,0,1,624,101a55.79,55.79,0,0,1,1.92-10.25c.43-1.74.82-3.49,1.15-5.25a8.87,8.87,0,0,0,0-3.7c-.25-1.07-.68-1.29-1.7-.87a8.21,8.21,0,0,0-2.52,1.71,33.46,33.46,0,0,0-6,7.73c-.63,1.13-1.27,2.25-1.91,3.37a1.9,1.9,0,0,1-.3.4,1.09,1.09,0,0,1-1.36.3,1.07,1.07,0,0,1-.54-1.28c.42-1.55.86-3.08,1.31-4.62a48.58,48.58,0,0,0,1.63-6.16,9,9,0,0,0,.12-2.93c-.12-.67-.29-.79-.91-.48a7.65,7.65,0,0,0-1.29.83,23.2,23.2,0,0,0-4.43,5,79.47,79.47,0,0,0-5.71,9.61,65.36,65.36,0,0,0-3.94,9c-.51,1.5-.86,3-1.28,4.58-.21.76-.42,1.52-.65,2.27a4.37,4.37,0,0,1-.27.68,1.07,1.07,0,0,1-1.1.7,1.11,1.11,0,0,1-1-.91,3,3,0,0,1,0-1.26,41.44,41.44,0,0,1,1.31-4.33,36.36,36.36,0,0,0,1.72-6.37c.49-2.67,1-5.34,1.28-8a61,61,0,0,0,.41-6.33,16.06,16.06,0,0,0-.38-3.3c-.24-1.19-.64-1.32-1.7-.7A11.54,11.54,0,0,0,595,82.91a41.74,41.74,0,0,0-5.66,8.39,15.9,15.9,0,0,0-1.41,3.25.95.95,0,0,1-1.85-.27,3.43,3.43,0,0,1,.2-1,30.69,30.69,0,0,1,4-7.67,33.25,33.25,0,0,1,4.16-5.15,10.3,10.3,0,0,1,3.25-2.25,2.68,2.68,0,0,1,3.78,1.6,9.83,9.83,0,0,1,.68,3.17,44.62,44.62,0,0,1-.35,7.92c-.09.91-.22,1.82-.33,2.72Zm101.79-3.4c0-.33-.09-.71-.14-1.09s-.14-.37-.44-.19a30.9,30.9,0,0,0-4.44,3.29,12.93,12.93,0,0,0-2.34,2.56,6.16,6.16,0,0,0-1.07,2.34.79.79,0,0,0,.45.93,2.38,2.38,0,0,0,1.51.19,6.13,6.13,0,0,0,3.46-1.76A9.08,9.08,0,0,0,703.23,90.2Zm-60.87,4.06a12.65,12.65,0,0,0,.35,1.54c.17.48.5.58.92.29a5.59,5.59,0,0,0,1.13-1,20.22,20.22,0,0,0,2.44-4.29.56.56,0,0,0,0-.4,22.57,22.57,0,0,0-.94-2.27,3.93,3.93,0,0,0-.86-.92.38.38,0,0,0-.56,0,6.23,6.23,0,0,0-.76.87A13.21,13.21,0,0,0,642.36,94.26Zm51.9-15.65a9.29,9.29,0,0,0-1-4.26,5.51,5.51,0,0,0-.8-1.17.68.68,0,0,0-1.19.09,2.47,2.47,0,0,0-.36,1.08,5.61,5.61,0,0,0,3.05,5.49c.16.1.25.13.26-.11S694.24,79,694.26,78.61Z" style="fill:#fff"/><path d="M683.4,53.25c-.37.77-.69,1.51-1.06,2.22a20,20,0,0,1-4,5.53,4.5,4.5,0,0,1-2.18,1.21,2.24,2.24,0,0,1-2.37-1,5.28,5.28,0,0,1-.68-2.32c0-.48-.07-1-.11-1.47-.37.77-.73,1.54-1.12,2.29a19.28,19.28,0,0,1-3.5,4.8,7.24,7.24,0,0,1-1.77,1.29,2.18,2.18,0,0,1-3.18-1.32,6.17,6.17,0,0,1-.28-2.52,48.9,48.9,0,0,1,1-6.58c0-.07,0-.14,0-.3-.57.93-1.1,1.78-1.62,2.64a33,33,0,0,1-6.43,7.85,15.43,15.43,0,0,1-1.72,1.25,1.6,1.6,0,0,1-1.33.25,1.19,1.19,0,0,1-.84-1.48.91.91,0,0,1,1.08-.65.62.62,0,0,0,.63-.17c.78-.76,1.56-1.51,2.31-2.29a47,47,0,0,0,6.5-9.32,58.78,58.78,0,0,0,3.28-6.78c0-.13.07-.26.11-.39l-.37.1-4.11,1.48a1,1,0,1,1-.69-1.81l.25-.1c1.49-.62,3-1.23,4.47-1.86a14,14,0,0,0,1.36-.64.66.66,0,0,0,.29-.4q.63-2.7,1.24-5.39a5.83,5.83,0,0,1,.18-.72,2.14,2.14,0,0,1,.43-.67,1.06,1.06,0,0,1,1.21-.27,1,1,0,0,1,.67,1.08,25.52,25.52,0,0,1-.42,2.62c-.13.65-.34,1.28-.51,1.91a1.66,1.66,0,0,0,0,.22,1.49,1.49,0,0,0,.21,0,1,1,0,0,1,1.21.3,1.05,1.05,0,0,1-.05,1.27,2.81,2.81,0,0,1-1.42,1,1.87,1.87,0,0,0-1.22,1.46c-1,3.94-2.17,7.86-2.89,11.87-.27,1.5-.46,3-.64,4.52a6.49,6.49,0,0,0,0,1.46c.05.49.19.55.6.26a6.83,6.83,0,0,0,1-.81,18.83,18.83,0,0,0,3.28-4.72,37,37,0,0,0,3.18-10c0-.14.05-.28.08-.41a1.1,1.1,0,0,1,2.19.18,12.18,12.18,0,0,1-.05,1.35c-.18,2.9-.52,5.79-.41,8.7a10.77,10.77,0,0,0,.23,1.68c.1.47.27.54.68.28a6.37,6.37,0,0,0,1.11-.89,18.6,18.6,0,0,0,3.07-4.4,32.9,32.9,0,0,0,3-9.32c.31-1.65.56-3.31.83-5,.08-.45.05-.46-.39-.33l-3.15.94a1.69,1.69,0,0,1-.5.08.93.93,0,0,1-.93-.73.92.92,0,0,1,.44-1,3.54,3.54,0,0,1,.53-.23c1.3-.46,2.6-.93,3.9-1.38a.48.48,0,0,0,.37-.5c.14-1.91.29-3.81.47-5.71a2.24,2.24,0,0,1,.29-.87,1.11,1.11,0,0,1,1.24-.52,1.06,1.06,0,0,1,.8,1.1c0,.84,0,1.68-.1,2.52s-.17,1.74-.27,2.61c0,.28,0,.31.28.22l7-2.62a2,2,0,0,1,.71-.17,1,1,0,0,1,.84,1.49,1.81,1.81,0,0,1-1,.82l-6,2.25c-.56.21-1.11.43-1.67.61a.53.53,0,0,0-.44.54c-.08.91-.18,1.82-.25,2.73-.18,2.63-.36,5.26-.52,7.88a32.38,32.38,0,0,0,.06,6.38,7.08,7.08,0,0,0,.71,2.56,1.64,1.64,0,0,0,2.29.8A9,9,0,0,0,692,57.53c.14-.16.14-.26,0-.42a8.54,8.54,0,0,1-2.11-5.21,13.74,13.74,0,0,1,.88-6.53,5,5,0,0,1,2-2.52,2.63,2.63,0,0,1,3.11.1,4.69,4.69,0,0,1,1.82,3.34,13.18,13.18,0,0,1-.34,4.84,19.67,19.67,0,0,1-2,5.35c-.18.32,0,.31.24.33a5.15,5.15,0,0,0,3.62-1,10.27,10.27,0,0,0,3.37-4.16A17.17,17.17,0,0,0,704,47.13a1.52,1.52,0,0,0-.05-.56c-.36-1.26-.78-2.51-1.06-3.79a5.9,5.9,0,0,1,0-1.92,1.19,1.19,0,0,1,1-1,1.13,1.13,0,0,1,1.25.49,4.85,4.85,0,0,1,.63,1.19,10.16,10.16,0,0,1,.55,4.16,3.72,3.72,0,0,0,.32,1.83c1.06,2.5,2.08,5,3.11,7.55a6.28,6.28,0,0,1,.33,1c.07.28.18.28.43.19,1.44-.52,2.88-1.07,4.35-1.5a13.51,13.51,0,0,1,2.47-.37,1.47,1.47,0,0,1,1.22.5.94.94,0,0,1,.19,1.11.9.9,0,0,1-.92.59,10.12,10.12,0,0,0-4.18.78c-.85.28-1.66.66-2.49,1-.28.1-.3.23-.26.49a23.82,23.82,0,0,1,.47,3,10.16,10.16,0,0,1-1.5,6.45,7.16,7.16,0,0,1-5.15,3.36,4.4,4.4,0,0,1-4.4-2.07,4.56,4.56,0,0,1-.18-3.25A10.72,10.72,0,0,1,702.45,62a20.36,20.36,0,0,1,5.45-4.41c.26-.15.34-.28.22-.57q-1.27-3.19-2.53-6.39a1,1,0,0,0-.14-.22,1,1,0,0,0-.13.22,16.36,16.36,0,0,1-1.86,3.86,10.22,10.22,0,0,1-5.07,4.19,6,6,0,0,1-4.25,0c-.23-.09-.32,0-.44.16A11.71,11.71,0,0,1,690,61.67c-2.4,1.18-4.78.21-5.75-2.43a12.71,12.71,0,0,1-.7-3.56C683.45,54.89,683.43,54.1,683.4,53.25Zm25.86,8.94c-.09-.61-.22-1.51-.35-2.42,0-.2-.11-.27-.3-.13s-.59.36-.88.56a14.84,14.84,0,0,0-4.54,4.42A5.93,5.93,0,0,0,702.11,68a1.27,1.27,0,0,0,.71,1.15,2.74,2.74,0,0,0,1.88.29,5.22,5.22,0,0,0,3.56-2.69A9.66,9.66,0,0,0,709.26,62.19Zm-13.7-14.31c0-.45,0-.77,0-1.09a3.25,3.25,0,0,0-.68-1.82c-.43-.49-.8-.54-1.24-.07a4,4,0,0,0-.77,1.14,11.47,11.47,0,0,0-.72,6.29,6,6,0,0,0,1.1,2.89c.15.2.24.24.37,0A19.1,19.1,0,0,0,695.56,47.88Z" style="fill:#fff"/><path d="M621.89,47.91c-.13,1-.28,2.1-.46,3.23a.44.44,0,0,0,.27.57c1.42.76,2.86,1.48,4.24,2.32a8.39,8.39,0,0,1,3.52,4.34.76.76,0,0,0,.33.38,1,1,0,0,1,.33,1.51.78.78,0,0,0-.19.47,9.6,9.6,0,0,1-1.86,6.52A7.61,7.61,0,0,1,624.64,70a4.91,4.91,0,0,1-3.52.19,2.68,2.68,0,0,1-1.81-3.41A6.9,6.9,0,0,1,620.92,64a18.76,18.76,0,0,1,6.17-4.6c.32-.14.34-.29.21-.58a6.71,6.71,0,0,0-2.95-3.23c-1.11-.63-2.25-1.2-3.37-1.81-.22-.12-.26,0-.31.17a23,23,0,0,1-3.13,6.24,18.24,18.24,0,0,1-4.81,5,10.53,10.53,0,0,1-2.9,1.36,5.72,5.72,0,0,1-5.32-1.09.63.63,0,0,0-.78-.11,6,6,0,0,1-6.57-.77,10.25,10.25,0,0,1-3.37-5.09c-.4-1.32-.65-2.68-.93-4-.07-.34-.14-.31-.37-.14A22.3,22.3,0,0,1,587,58.48a12.89,12.89,0,0,1-2.47.59.88.88,0,0,1-1-.78.92.92,0,0,1,.73-1.07,12.25,12.25,0,0,0,4.69-2.12c1.12-.74,2.2-1.55,3.3-2.31a.63.63,0,0,0,.28-.62,33.84,33.84,0,0,1,1.29-11.67,30.46,30.46,0,0,1,3.27-7.63,9.77,9.77,0,0,1,3.69-3.72,5.19,5.19,0,0,1,3.61-.68,4.07,4.07,0,0,1,3.13,3.59,11.14,11.14,0,0,1-.59,5,29,29,0,0,1-5.85,10.21A55.22,55.22,0,0,1,595,53.34a.54.54,0,0,0-.18.42,25.15,25.15,0,0,0,1,5A8.18,8.18,0,0,0,599,63.23a3.76,3.76,0,0,0,3.45.26c.26-.09.15-.22.07-.35a8.35,8.35,0,0,1-1.22-3.56,10.47,10.47,0,0,1,1.5-6.86,4,4,0,0,1,5.32-1.63,4.3,4.3,0,0,1,2.28,3.23,8.18,8.18,0,0,1-.92,5.31,12.47,12.47,0,0,1-3.19,4c-.26.21-.18.29,0,.42a3.71,3.71,0,0,0,3.07.27,9.75,9.75,0,0,0,3.82-2.43,21.93,21.93,0,0,0,5.48-9.1c.07-.22,0-.31-.17-.43a24.4,24.4,0,0,1-2-1.41,7.69,7.69,0,0,1-2.82-4.29,4.91,4.91,0,0,1,2.47-5.34,3.16,3.16,0,0,1,4.08.94,7.86,7.86,0,0,1,1.4,3.57C621.78,46.49,621.81,47.11,621.89,47.91Zm-27.26,1.47v1.09a.8.8,0,0,0,0,.21,2,2,0,0,0,.19-.12A42.23,42.23,0,0,0,602.25,42a20.35,20.35,0,0,0,3-7.32,8.85,8.85,0,0,0,0-2.57A1.7,1.7,0,0,0,603,30.63a6.11,6.11,0,0,0-1.79.79,7.49,7.49,0,0,0-2.39,2.7A32,32,0,0,0,594.63,49.38Zm8.81,9a6.82,6.82,0,0,0,1,3.66c.1.17.16.3.39.11a10.23,10.23,0,0,0,3.31-4.86,4.58,4.58,0,0,0,0-3.18,1.78,1.78,0,0,0-2-1.22,2,2,0,0,0-1.42,1A8.54,8.54,0,0,0,603.44,58.37Zm19.09,9.91a3.37,3.37,0,0,0,1.81-.49,7.27,7.27,0,0,0,3.45-6c0-.27,0-.31-.29-.19a16.31,16.31,0,0,0-5.17,4.12,5.16,5.16,0,0,0-.72,1.13C621.12,67.87,621.39,68.28,622.53,68.28Zm-2.84-20.44c-.05-.59-.07-1-.13-1.47a5.7,5.7,0,0,0-1-2.69,1,1,0,0,0-1.58-.26,2.84,2.84,0,0,0-.85,3.72,8.06,8.06,0,0,0,3,3.07c.19.12.27.08.3-.14C619.51,49.27,619.61,48.48,619.69,47.84Z" style="fill:#fff"/><path d="M644.22,45.51c-.34.54-.68,1.09-1,1.62a30.35,30.35,0,0,1-3.77,4.61,9.3,9.3,0,0,1-2.92,2,3.29,3.29,0,0,1-1.15.28.87.87,0,0,1-.9-.74.89.89,0,0,1,.58-1.06,8.47,8.47,0,0,0,3.51-2.64,37.27,37.27,0,0,0,5.53-8.37c.32-.66.8-.94,1.34-.82a1.31,1.31,0,0,1,1.06,1.35q0,3.21-.11,6.42c0,.65-.06,1.29-.09,2,.39-.64.74-1.24,1.11-1.81a12.21,12.21,0,0,1,2.88-3.32,3.91,3.91,0,0,1,3.08-.84A3.37,3.37,0,0,1,656,46.78a7.3,7.3,0,0,1-.07,4.09,12.28,12.28,0,0,1-3.9,6.66A10.06,10.06,0,0,1,647.1,60,7,7,0,0,1,646,60c-.26,0-.37,0-.38.32-.06,1-.13,2-.2,2.93-.17,2.14-.34,4.27-.52,6.41-.16,1.92-.33,3.85-.49,5.78-.08,1.06-.13,2.11-.21,3.17a2.11,2.11,0,0,1-.09.49,1.05,1.05,0,0,1-1,.7,1,1,0,0,1-1-.64,2.35,2.35,0,0,1-.16-.87c0-2,0-4.08,0-6.12a62.53,62.53,0,0,1,1.43-13.36,10.86,10.86,0,0,1,.29-2.34c.11-1.78.25-3.55.35-5.33s.18-3.73.27-5.6Zm9.91,3.11a11.69,11.69,0,0,0-.2-1.23,1.23,1.23,0,0,0-2-.82,6,6,0,0,0-1.48,1.27,22.41,22.41,0,0,0-4.57,9.67c-.06.27,0,.31.26.32a4.12,4.12,0,0,0,1.93-.38C652,55.77,653.62,52.6,654.13,48.62Z" style="fill:#fff"/><path d="M662.62,29.91c-.3,1.33-.56,2.67-.9,4a27.81,27.81,0,0,1-2.48,6,1,1,0,0,1-1.24.49.94.94,0,0,1-.52-1.22c.18-.52.43-1,.66-1.53a32.13,32.13,0,0,0,2.19-7.44,5.62,5.62,0,0,1,.18-.79,1,1,0,0,1,2,.28v.2Z" style="fill:#fff"/><path d="M705.37,26.66c0,.74-.3,1.15-.78,1.28a1,1,0,0,1-1.16-.54,4.08,4.08,0,0,1-.31-1.15c-.18-1.7-.35-3.41-.5-5.11,0-.58-.06-1.16-.06-1.74a1,1,0,0,1,1-1.06,1,1,0,0,1,1,1c.17,1.47.33,2.94.51,4.42C705.12,24.79,705.26,25.83,705.37,26.66Z" style="fill:#fff"/><path d="M581.84,107h.46a1,1,0,0,1,1.08.93c0,.55-.41.93-1,1-.92.14-1.86.26-2.76.48s-2,.59-3,.88a8.93,8.93,0,0,1-1.05.25,1,1,0,0,1-1.07-.59.9.9,0,0,1,.31-1.13,4.57,4.57,0,0,1,1.32-.63c1.63-.41,3.28-.78,4.92-1.16a5.42,5.42,0,0,1,.81-.06Z" style="fill:#fff"/><path d="M712.06,27.92a1,1,0,0,1-.94-1.38,2.26,2.26,0,0,1,.31-.49c1.1-1.54,2.22-3.07,3.32-4.61a1,1,0,0,1,1-.54.94.94,0,0,1,.71,1.35,11.38,11.38,0,0,1-.83,1.48c-.57.9-1.15,1.81-1.78,2.67a9.37,9.37,0,0,1-1.2,1.24A2.06,2.06,0,0,1,712.06,27.92Z" style="fill:#fff"/><path d="M579.27,117.76a2.88,2.88,0,0,1,.37-.66c.67-.78,1.39-1.52,2.05-2.31a12,12,0,0,0,1-1.47,1,1,0,0,1,1-.54.91.91,0,0,1,.79,1,2.43,2.43,0,0,1-.32,1.06,17,17,0,0,1-3,3.59,2.12,2.12,0,0,1-.68.43C579.91,119,579.28,118.56,579.27,117.76Z" style="fill:#fff"/><path d="M666.66,71.67a3.06,3.06,0,0,1-.19.63,2.6,2.6,0,0,1-1.93,1.41A1.46,1.46,0,0,1,663,71.9a2.81,2.81,0,0,1,.85-1.53,1.54,1.54,0,0,1,1.79-.32A1.67,1.67,0,0,1,666.66,71.67Z" style="fill:#fff"/><path d="M591.39,118a1.11,1.11,0,0,1,1.06,1.38c-.14.46-.23.94-.37,1.41a5.14,5.14,0,0,1-.41,1.07.88.88,0,0,1-1.12.42.91.91,0,0,1-.59-1.05c.12-.77.26-1.55.43-2.31A1,1,0,0,1,591.39,118Z" style="fill:#fff"/><path d="M676.07,36.38a.93.93,0,0,1-.92-.94.93.93,0,1,1,1.85,0A.93.93,0,0,1,676.07,36.38Z" style="fill:#fff"/></svg>