<svg id="Layer_1" data-name="Layer 1" xmlns="http://www.w3.org/2000/svg" viewBox="0 0 1280 151.32"><title>header</title><path d="M1279.86-11.94V83.9C1227.45,64,1168.3,52.75,1105.7,52.75c-58.27,0-113.55,9.72-163.18,27.14q-13.86,4.86-27.11,10.51C832,120.85,738.56,137.92,639.85,137.92c-97.67,0-190.19-16.71-272.91-46.56-1.67-.6-3.32-1.25-4.94-1.93-7.33-3.08-11.71-4.69-24.82-9.54C288,61.71,232.27,52.75,174,52.75,111.4,52.75,52.25,64-.16,83.9V-11.94Z" style="fill:#0410f2"/><path d="M1280.16-12.25l.13,96.15v.62l-.59-.21a469.07,469.07,0,0,0-78.8-20.8,501.32,501.32,0,0,0-81-7.48c-54.18-.62-108.44,7-159.7,23.74-6.41,2.08-12.76,4.33-19.07,6.67S928.64,91.32,922.46,94l-4.76,2.08-4.88,1.81-9.77,3.61c-3.25,1.2-6.49,2.27-9.74,3.42s-6.48,2.3-9.76,3.33A808.72,808.72,0,0,1,803.94,130a758.18,758.18,0,0,1-164.13,17.28A747.36,747.36,0,0,1,476,128.42c-6.69-1.59-13.39-3.08-20-4.86L446,121l-9.92-2.78c-13.22-3.68-26.3-7.85-39.33-12.12L387,102.71c-3.24-1.12-6.47-2.24-9.68-3.47l-9.64-3.56c-3.17-1.1-6.64-2.61-9.62-3.93-6.17-2.67-12.51-5.08-18.86-7.56s-12.66-4.78-19.09-6.92A437.71,437.71,0,0,0,241,59a527.39,527.39,0,0,0-81.31-4.75C105.35,55.23,51,65,0,84.31H0l-.59.22V-12.38h.44Zm-.61.62L-.16-11.5l.43-.44V83.9l-.59-.41h0A482.32,482.32,0,0,1,78.33,61.08a514.93,514.93,0,0,1,81.31-9.37,550.83,550.83,0,0,1,81.9,3.18A453.24,453.24,0,0,1,322,71.45c6.56,2,13.09,4.24,19.53,6.5s12.89,4.52,19.32,7c3.3,1.32,6.13,2.44,9.43,3.47L380,91.63c3.21,1.08,6.46,2,9.71,3l9.74,2.91,9.8,2.7c3.27.89,6.52,1.84,9.82,2.62,6.58,1.62,13.13,3.32,19.75,4.74l9.91,2.23,9.95,2c6.62,1.39,13.3,2.49,19.95,3.7,3.32.62,6.67,1.1,10,1.63l10,1.58,10,1.37c3.35.43,6.69,1,10.05,1.31l10.06,1.16,5,.58,5,.48,10.07,1c3.36.34,6.73.53,10.09.81q40.35,3.18,80.83,3.06t80.76-3.81l10.07-.9,10.05-1.1c6.71-.65,13.38-1.63,20.07-2.47,3.35-.39,6.68-.9,10-1.39l10-1.49c3.33-.52,6.65-1.12,10-1.67s6.67-1.08,10-1.72a785.85,785.85,0,0,0,78.82-18.54c3.26-.9,6.47-2,9.7-2.93s6.48-2,9.67-3l9.52-3.19,4.76-1.59,4.66-1.87Q927.5,79,937.3,75.67c6.54-2.2,13.11-4.33,19.73-6.26,52.93-15.59,108.3-21.83,163.08-19.5S1229.29,63.26,1280,83.49l-.59.41Z" style="fill:#0410f2"/></svg>