<svg id="Calque_1" data-name="Calque 1" xmlns="http://www.w3.org/2000/svg" viewBox="0 0 60 60"><title>icones</title><circle cx="29.99" cy="29.99" r="29.8" style="fill:#a7f2d6"/><path d="M35.3,21l.11.09a.85.85,0,0,1,.44.93.28.28,0,0,0,.1.29.94.94,0,0,1,.36.88c0,.22,0,.44.06.66a2.73,2.73,0,0,1,0,.57c0,.06-.08.11-.14.15a.8.8,0,0,1-.22.07l.2.11a4.41,4.41,0,0,1,1.2.57.69.69,0,0,0,.15.07,9.34,9.34,0,0,1,1.74.85,5.72,5.72,0,0,1,.49.37l1.22.91c.25.19.51.37.74.58s.39.42.58.63a2.57,2.57,0,0,0,.33.33.77.77,0,0,0,.69.12,25.57,25.57,0,0,0,3.91-1.29c.25-.1.49-.23.74-.34a7.63,7.63,0,0,1,.72-.26c.12,0,.32.12.41.31a3.94,3.94,0,0,1,.26.95,5.47,5.47,0,0,0,.27,1,.77.77,0,0,0,.48.47,1.09,1.09,0,0,1,.49.55l.25.51.22-.11c0,.05,0,.08,0,.09-.17.12-.15.25-.06.41.23.44.46.89.67,1.34s.26.67.39,1c0,.09.09.18.14.27h.28a.26.26,0,0,1-.07.33.38.38,0,0,0-.09.35,11,11,0,0,1,.09,2.69.37.37,0,0,1,0,.11c0,.22-.1.29-.3.26a.48.48,0,0,0-.33.1,6,6,0,0,1-.71.37l-.45.19a2.87,2.87,0,0,0,.36,1,2.12,2.12,0,0,1,.17.69c0,.13-.07.2-.16.27a6.48,6.48,0,0,0-.68.6,1.59,1.59,0,0,0-.2.39c-.06.12-.13.23-.18.34a.34.34,0,0,0,0,.21c.06.27-.12.41-.29.53s-.24.12-.4,0l-.08-.09-.62.15c-.57.14-1.13.27-1.69.43s-1,.32-1.5.49L44,43.83l-1.2.41c-.41.13-.81.27-1.22.38s-1,.25-1.53.4-.88.28-1.32.4-1,.25-1.53.38c-.21.06-.42.15-.63.23a1.33,1.33,0,0,1-.34.1A5.76,5.76,0,0,0,35,46.5a5.41,5.41,0,0,1-1.47.34,4.7,4.7,0,0,0-.63.13l-1.36.37a.28.28,0,0,1-.32-.08c-.17-.2-.34-.39-.5-.59a6.61,6.61,0,0,1-.44-.6c-.13-.2-.24-.41-.36-.62a4.41,4.41,0,0,1-1.14.21c-.27,0-.54.06-.8.06a4.49,4.49,0,0,1-3-1.23c-.25-.19-.49-.39-.72-.59a8.33,8.33,0,0,1-.82-.86c-.57-.66-1.1-1.35-1.62-2-.18-.24-.4-.46-.6-.69s-.6-.66-.87-1a10.92,10.92,0,0,1-1.18-1.94c-.31-.66-.58-1.34-.89-2a10.37,10.37,0,0,1-.66-2.23,2.68,2.68,0,0,1,0-.41c-.21,0-.41.09-.62.11a9.12,9.12,0,0,0-2.36.56,8.54,8.54,0,0,1-1.22.36,9.45,9.45,0,0,0-1.23.43l-.79.25a.36.36,0,0,1-.42-.14,1.84,1.84,0,0,1-.32-.54A3.7,3.7,0,0,0,10,32.67a1.69,1.69,0,0,1-.4-.88c0-.12.06-.27.1-.42.52-.16,1-.34,1.54-.48s1.21-.39,1.81-.61c.3-.11.6-.2.89-.32s.61-.24.91-.38c.15-.07.35,0,.45-.22,0,0,.09,0,.09,0s.16.08.24,0l.74-.32.3-.13c.16-.07.35-.08.41-.29,0,0,.08,0,.11-.06s.09.1.13.1a2.59,2.59,0,0,0,.37-.11l1.19-.53a2.38,2.38,0,0,0,.84-.8l-.74.19-1.1.38-1.18.4a3.59,3.59,0,0,1-.92.19.87.87,0,0,0-.22,0c-.52.16-1,.34-1.58.49s-.84.17-1.24.3a9.71,9.71,0,0,1-1.2.21,4.87,4.87,0,0,1-1.37.13.81.81,0,0,0-.35.07.69.69,0,0,1-.51-.05c-.09,0-.17-.09-.25-.12A.52.52,0,0,1,8.69,29c0-.39,0-.79,0-1.18a.62.62,0,0,0-.41-.52s-.07,0-.09,0-.23,0-.35,0a1.88,1.88,0,0,0-.45-.12,4.33,4.33,0,0,0-.72,0,1.39,1.39,0,0,1-.81-.21A3.22,3.22,0,0,1,5,26.14a1.16,1.16,0,0,1-.22-1.07A3,3,0,0,1,5.9,23.3L6,23.21a4,4,0,0,1,1.45-.89l.2-.09c.14-.06.14-.06.17-.26l-.31-.13v-.05h.08c.13,0,.14,0,.12-.13a2.59,2.59,0,0,1-.15-.7,1.19,1.19,0,0,1,.33-.81,2.86,2.86,0,0,1,1.62-.75c.43-.08.85-.2,1.27-.3s.76-.15,1.13-.25c.65-.17,1.27-.4,1.9-.63a13.19,13.19,0,0,1,2.85-.7c.45-.06.9-.08,1.35-.11s1-.13,1.57-.19L21,17.07l.86-.06a2.56,2.56,0,0,1,1.35.36c.11.06.23.12.24.28s.09.13.14.14a1.92,1.92,0,0,1,1.07.76,2.3,2.3,0,0,1,.32.37c.21.33.42.66.6,1a.79.79,0,0,1,0,.35.6.6,0,0,0,.32.6c.21.12.41.24.62.38a.28.28,0,0,0,.28,0,1.34,1.34,0,0,0,.84-.67,4.4,4.4,0,0,1,.36-.52c.08-.12.17-.12.31-.07a.57.57,0,0,1,.39.57c0,.11,0,.23,0,.34s0,.29,0,.44,0,.2,0,.3a.26.26,0,0,1-.14.27l-.91.75.08.28a.23.23,0,0,0,.1,0,1.5,1.5,0,0,1,.58-.45l1.25-.68c.16-.09.31-.2.5-.32-.05-.22-.1-.45-.16-.68-.09-.39-.21-.77-.3-1.15s0-.5-.12-.74a2.66,2.66,0,0,1-.06-.79c0-.32-.07-.64-.11-1,0,0,0-.07,0-.1a4.58,4.58,0,0,0-.23-1.33c-.1-.45-.18-.91-.25-1.37A2.11,2.11,0,0,1,29,14c.11,0,.2-.07.22.1a3.42,3.42,0,0,0,.13.62,2.35,2.35,0,0,0,0-.75.62.62,0,0,1,0-.18,3.92,3.92,0,0,1,.42.15.92.92,0,0,1,.56.72c.09.68.29,1.34.44,2l.3,1.44a8.36,8.36,0,0,0,.17.87,11.61,11.61,0,0,1,.17,1.43c0,.11,0,.22.06.36l.32-.16a1.92,1.92,0,0,1-.08-.3c-.05-.36-.09-.73-.15-1.09s-.13-.65-.21-1c-.22-1-.47-1.92-.68-2.89-.1-.46-.11-.95-.17-1.42,0-.18-.08-.35.13-.47l-.15-.56c.06-.07.13-.14.26,0s.3.21.48.33V12.6c.19,0,.21.13.24.25.19.82.37,1.64.61,2.45s.58,1.75.85,2.64A5.63,5.63,0,0,1,33,19c0,.38,0,.76,0,1.17l.74-.31.26-.1a.41.41,0,0,1,.48.09,4.25,4.25,0,0,0,.43.31.64.64,0,0,1,.35.67A.65.65,0,0,0,35.3,21Zm-.61,22.56a3,3,0,0,0,.81-.34l0-.07-.78.42-.21.06,0,0ZM17.63,26.24h0l-.05-.18-.31.64.24-.08-.05.22.83-.06c.19,0,.38-.17.59,0,0,0,.05,0,.08,0,.32-.12.66-.24,1-.38a.63.63,0,0,0,.43-.58.67.67,0,0,1,.27-.5.61.61,0,0,0,.19-.33c0-.12.07-.23.09-.35a.65.65,0,0,0,0-.24A.35.35,0,0,1,21,24a.58.58,0,0,0,.06-.5A1.84,1.84,0,0,1,21,23c.16-.06.22,0,.3.12s.1.13.16.14.17.12.17.25,0,.35,0,.57l1.22-.51a.6.6,0,0,0,.29-.23,7.21,7.21,0,0,1,.45-.6c.24.08.36.21.33.44s0,.26,0,.39a4.09,4.09,0,0,1-.49,1.16.66.66,0,0,1-.45.34,1.94,1.94,0,0,0-.91.36,1,1,0,0,1-.28.13c-.17.06-.21,0-.32-.11a1.24,1.24,0,0,0-.2-.21c0,.1-.06.17,0,.21s0,.26,0,.39,0,.07,0,.1a1.3,1.3,0,0,1,0,.44c0,.14-.18.25-.24.39a3.52,3.52,0,0,1-1.23,1.54,11.69,11.69,0,0,1-1.68.79c-.42.18-.85.32-1.27.48s-.57.24-.85.33-.83.26-1.24.39l-1.08.37c-.24.09-.49.17-.72.28a4.67,4.67,0,0,1-1,.3,2.73,2.73,0,0,0-.8.23,3.67,3.67,0,0,1-.72.27,1.15,1.15,0,0,0-.17.06,1,1,0,0,0,.28.61,3.71,3.71,0,0,1,.36.52c.15.27.29.56.44.87l.84-.29c.38-.13.76-.29,1.15-.39a4.48,4.48,0,0,0,1-.29,3.27,3.27,0,0,1,.55-.2c.6-.2,1.23-.31,1.82-.57s1.31-.48,2-.72c.44-.16.88-.33,1.31-.51.73-.31,1.44-.63,2.16-1,.24-.1.48-.23.72-.34a3.37,3.37,0,0,1,.56-.24A3.76,3.76,0,0,0,25,28.5a3.68,3.68,0,0,1,.44-.34,3.83,3.83,0,0,0,1.39-1.86c.23-.57.39-1.15.59-1.73a.83.83,0,0,0,0-.22A3.72,3.72,0,0,0,27.13,23a.94.94,0,0,0-.18-.31.79.79,0,0,0-.31-.08c-.05-.18.19-.08.19-.24a3,3,0,0,0-.83-.87,1.34,1.34,0,0,1-.28-.18,1,1,0,0,0-.64-.3.44.44,0,0,1-.25-.11c-.15-.14-.29-.3-.44-.46.13-.17.29-.07.45,0a1.23,1.23,0,0,0-.06-.69,2.06,2.06,0,0,0-.54-.8,3.11,3.11,0,0,1-.23-.28,1.17,1.17,0,0,0-.63-.45,6.57,6.57,0,0,0-1.93,0l-1.52.13c-.06,0-.12,0-.19,0a.7.7,0,0,0-.29,0,1.32,1.32,0,0,1-.66.24.21.21,0,0,0-.12.07l-.28.28a2.46,2.46,0,0,1-1,.74.57.57,0,0,0-.19.1,1.69,1.69,0,0,1-.76.34l-1.09.29s0,0,0,0l.13.22c.11,0,.22,0,.33-.08a11.56,11.56,0,0,1,2.56-.22.16.16,0,0,1,.12.09s0,.1,0,.14a.88.88,0,0,1-.15.12,1.56,1.56,0,0,1-.72.21l.25.1c.3.15.6.29.89.45a1.89,1.89,0,0,1,.74,1.31.21.21,0,0,1,0,.11c0,.19-.06.39-.1.58A.64.64,0,0,1,19,24c-.09.06-.13.17-.21.25a.24.24,0,0,1-.18.09.27.27,0,0,1-.13-.16.3.3,0,0,1,0-.19c0-.46,0-.92,0-1.39a.8.8,0,0,0-.1-.41,1.44,1.44,0,0,0-.9-.6c.06.17.13.3.17.44a.53.53,0,0,1,.05.32,2.78,2.78,0,0,1-.6,1.23c-.07.07-.11.16-.17.23a2.54,2.54,0,0,1,.36.4,7.19,7.19,0,0,1,.34.75.9.9,0,0,1,.11.48,2,2,0,0,0-.05.68C17.77,26.16,17.75,26.24,17.63,26.24Zm10.3-2.93,0,.1a1,1,0,0,1,0,1,3.11,3.11,0,0,0-.38,1.07,1.77,1.77,0,0,1-.15.38,2.8,2.8,0,0,0-.15.3,8.54,8.54,0,0,1-.82,1.66,1.73,1.73,0,0,1-.58.62,1,1,0,0,0-.29.25,1.93,1.93,0,0,1-.63.54l-.86.43-1.4.66-1.08.51c-.61.28-1.23.56-1.83.86-.17.08-.32.21-.49.3l-1,.43c-.23.1-.27.14-.21.38A10.52,10.52,0,0,0,18.52,34c.21.57.46,1.12.69,1.68l.23.53c.21.45.49.86.67,1.34a4,4,0,0,0,.78,1.36c.29.31.59.61.87.94.44.53.87,1.08,1.3,1.63a3.23,3.23,0,0,0,1.47,1.13,17.75,17.75,0,0,1,2.41,1,5.19,5.19,0,0,0,1.64.49c.42.07.84.11,1.26.17a2.68,2.68,0,0,0,1.26-.07,5.5,5.5,0,0,0,.87-.36l3.7-1.72L36,42c-.08-.37-.15-.72-.23-1.07l-.42-1.67c0-.12-.08-.24-.11-.37a3.29,3.29,0,0,1-.09-.43,15.48,15.48,0,0,0-.41-2.24c-.11-.48-.23-1-.34-1.45l-.27-1.17c-.14-.62-.28-1.24-.43-1.86-.06-.26-.14-.51-.22-.79l-.29.16-1.06.6c-.29.16-.59.3-.87.48s-.47.17-.57-.17a.11.11,0,0,1,0-.05,1.76,1.76,0,0,0,.09-.2.33.33,0,0,1,.27-.27,1.9,1.9,0,0,0,.43-.26l-.06-.19c.19-.06.32-.24.54-.17l-.14.19a3.69,3.69,0,0,0,.67-.3c.36-.2.73-.39,1.08-.62s.62-.46.95-.66a7,7,0,0,0,1-.78c.21-.19.17-.44.18-.67s-.11-.28-.24-.37a1.2,1.2,0,0,1-.4-.59c0-.1,0-.24.06-.37a1.4,1.4,0,0,1,.09-.17.24.24,0,0,0-.11-.35s-.1-.05-.14-.08c-.31-.19-.71-.22-1-.54,0-.44.35-.77.39-1.25-.17,0-.3.08-.43.1s-.23,0-.28,0a1.66,1.66,0,0,1-.38-.5c-.17-.37-.24-.45-.64-.42a2.27,2.27,0,0,0-.52.09,1.89,1.89,0,0,0-.34.18c-.26-.06-.32,0-.32.29a1.34,1.34,0,0,1-.05.3c-.25.07-.26-.13-.35-.26a3.51,3.51,0,0,0-.73.26,5.39,5.39,0,0,1-1.23.47c-.24.06-.29,0-.37-.19,0-.05,0-.11-.05-.18a1.2,1.2,0,0,1,.27-.19l1.53-.56c.12,0,.23-.1.35-.15l-.55-1.63Zm6.31-3.22c-.08,0-.16.05-.19.09-.14.25-.39.31-.62.41a8.22,8.22,0,0,0-.84.42.58.58,0,0,0-.23.26c-.09.15-.06.23.11.26s.42,0,.62.08a.74.74,0,0,0,.54-.11c.12.13.36.09.43.3-.09.21-.18.37-.44.42s-.34.22-.38.5a.65.65,0,0,1,.61,0A.24.24,0,0,1,34,23a2.16,2.16,0,0,1-.13.41c.06,0,.13,0,.16.08a.41.41,0,0,1,.05.17l.63.26a.12.12,0,0,1,.07.07c.09.2.17.41.25.58-.1.17-.19.32-.27.48s-.08.24.12.37.39.25.57.39a.77.77,0,0,1,.28.66,1.24,1.24,0,0,1-.15.6l.1.08a1.14,1.14,0,0,1,.49,1.13c0,.11,0,.22,0,.33a1.29,1.29,0,0,1-.69,1c-.35.23-.71.45-1.07.67a.85.85,0,0,0,0,.2l.6,1.69a1.76,1.76,0,0,0,.16.4.59.59,0,0,1,.09.36.45.45,0,0,0,.16.39.4.4,0,0,1,.11.19c.18.68.38,1.35.55,2,.22.88.41,1.76.63,2.64s.39,1.51.58,2.26a3.19,3.19,0,0,0,.32.79l.36-.09c.53-.14,1.05-.3,1.59-.4a25.25,25.25,0,0,0,3.2-.77c1.47-.48,3-.87,4.45-1.26a14.71,14.71,0,0,0,2.59-.82c.38-.19.77-.35,1.15-.54a.83.83,0,0,0,.53-.78c0-.24,0-.48,0-.72a.5.5,0,0,1,.11-.37,7.16,7.16,0,0,1,0,.92c0,.33,0,.7-.32.92a.53.53,0,0,0,.19,0,.3.3,0,0,0,.26-.36,3.39,3.39,0,0,1,0-.45,6.74,6.74,0,0,0-.1-1.55c0-.07-.06-.11-.16-.05v.39h0l0-.36-.82-.26A1,1,0,0,1,50,33.55c-.66-.24-.59-.74-.4-1.29a.88.88,0,0,1-.74-.5,1.05,1.05,0,0,1,0-.9l-.07,0c-.5.12-1,.23-1.51.37a23.26,23.26,0,0,0-3.05.92.84.84,0,0,1-.69-.06s0,0-.07-.09h.27c0-.09,0-.2,0-.25a.41.41,0,0,0,0-.59s0-.11,0-.16a1.11,1.11,0,0,0-.61-.84L42.86,30c-.4-.18-.81-.34-.94-.82a.5.5,0,0,0-.08-.12,10.24,10.24,0,0,0-1.61-1.4,2.17,2.17,0,0,1-.42-.31,5.92,5.92,0,0,0-1.9-1.13,2.61,2.61,0,0,1-.7-.37,2.65,2.65,0,0,0-.69-.4c-.19-.08-.38-.15-.56-.24a.68.68,0,0,0-.5-.11.09.09,0,0,1-.1,0c-.09-.11-.21-.08-.32,0,.05-.4.06-.43.22-.63a.78.78,0,0,0,.27,0,.32.32,0,0,0,.19-.19,5.53,5.53,0,0,0,0-.71.35.35,0,0,0-.09-.25.38.38,0,0,1-.1-.52s0-.05,0-.09a.45.45,0,0,1-.12-.06c-.11-.12-.25-.23-.23-.42s0-.28-.23-.42a.51.51,0,0,0-.08-.43.31.31,0,0,1,0-.21.52.52,0,0,0-.13-.53s0,0,0-.05l.16,0c-.09-.15-.18-.22-.31-.1Zm-25,8.61a1,1,0,0,0,.25.06,7.39,7.39,0,0,0,2.15-.17,2.61,2.61,0,0,1,.27-.06c.19-.06.38-.1.56-.17a16.26,16.26,0,0,1,2.37-.84c.31-.07.6-.18.9-.27a.67.67,0,0,0,.35-.27,2.92,2.92,0,0,1,.29-.4,4.23,4.23,0,0,0,.77-1.31c.13-.29.1-.34-.15-.54a1.11,1.11,0,0,1-.42-.54,1.9,1.9,0,0,1,.33-1.66,1.51,1.51,0,0,0,.2-.35c.08-.18.05-.23-.13-.29l-.67-.23a2,2,0,0,0-.93-.05c-.25.05-.5.11-.76.14-.6.06-1.2.12-1.8.15a9.41,9.41,0,0,0-2.09.4c-.94.26-1.87.56-2.81.85a5.62,5.62,0,0,0-2.36,1.56.82.82,0,0,0-.23.61.51.51,0,0,0,.12.35,1.07,1.07,0,0,0,.62.3L7.15,26a1.09,1.09,0,0,1,.72.3.87.87,0,0,0,.29.14,1,1,0,0,1,.3.13,2.11,2.11,0,0,1,.62,1C9.16,28,9.18,28.31,9.24,28.7Zm39,11L48,39.8a2,2,0,0,0-.29.16,2,2,0,0,1-.73.32,2.46,2.46,0,0,0-.29.09.84.84,0,0,1-.26.07,2.73,2.73,0,0,0-1.06.19c-.14,0-.27.11-.42.14a7,7,0,0,0-1.55.49,1.58,1.58,0,0,1-.65.14,1.61,1.61,0,0,0-.43.07c-.3.11-.58.27-.89.36s-.94.27-1.41.39-.86.21-1.29.33L37.4,43l-.75.27a.53.53,0,0,0-.14.12c-.06,0-.1.11-.17.14a11.69,11.69,0,0,1-1.05.55c-.64.27-1.29.51-1.94.75-.32.12-.65.2-1,.32s-.9.37-1.36.57a1.34,1.34,0,0,0-.23.13,2.33,2.33,0,0,0,.56.64.29.29,0,0,0,.2,0l.78-.22c.3-.09.59-.21.89-.29a12.23,12.23,0,0,0,1.59-.37l1.2-.43c.38-.14.74-.32,1.13-.44.78-.22,1.57-.4,2.36-.62s1.88-.54,2.82-.83l4.4-1.39,1.89-.54.07,0ZM9.32,21.13a1.42,1.42,0,0,0,.68-.07c.05,0,.15,0,.18,0s.17.05.25,0c.38-.1.75-.22,1.13-.29a10.31,10.31,0,0,0,1.55-.38l1.48-.54c.22-.08.43-.18.65-.24l1.61-.4a.85.85,0,0,0,.49-.29,2.35,2.35,0,0,1,.33-.3.5.5,0,0,0,.24-.39.7.7,0,0,0-.2,0c-.52.06-1,.1-1.54.2s-1.11.27-1.66.42c-.23.06-.44.14-.66.22a9.78,9.78,0,0,1-1.14.42c-1.22.31-2.46.6-3.69.88a2.14,2.14,0,0,0-.79.38c-.19.15-.17.29,0,.39l.22.11c.33.2.63,0,1,0ZM48.8,29.68a6.32,6.32,0,0,1-.67-.1.67.67,0,0,1-.43-.45,3.31,3.31,0,0,1-.1-.63,4.86,4.86,0,0,1-1.17.44,5.41,5.41,0,0,0-1.24.39,2.52,2.52,0,0,1-1.21.26,1.91,1.91,0,0,0-.33.06l0,.06c.53.37.62,1,.91,1.53l.31-.07c.37-.1.75-.19,1.12-.3l1.7-.5c.32-.1.64-.18,1-.26.13,0,.26-.05.39-.08ZM29.91,45.27a.77.77,0,0,0-.13-.09,6.06,6.06,0,0,0-.71-.1,5.94,5.94,0,0,1-2.27-.61c-.94-.46-1.91-.88-2.89-1.26l-.11,0,.05,0a1.4,1.4,0,0,0,.22.32c.21.19.44.37.66.56,0,0,.08.06.09.1s.2.2.31.29a2,2,0,0,0,.19.12,8.62,8.62,0,0,0,.86.58,4.69,4.69,0,0,0,1.73.43,6.33,6.33,0,0,0,1.38-.12A3.42,3.42,0,0,0,29.91,45.27Zm18.86-5.82c.17.5.34,1,.52,1.54,0,0,0,0,.08.09a4,4,0,0,1,.91-1.44l-.26-1-1.1.32C49.07,39.21,48.86,39.28,48.77,39.45ZM31.51,21.17a7,7,0,0,0,.34,1.91l.81-.13.11-.67-.91-.55.1-.61A.32.32,0,0,0,31.51,21.17Zm-10.18,4c.56-.23,1.07-.43,1.57-.65.16-.07.22-.22.24-.44l-.83.3-.93.32ZM51.14,33a1.55,1.55,0,0,1-.19.23c-.1.09-.21.17-.31.27s-.15.13-.12.24a1.76,1.76,0,0,0,1,.25ZM28.05,21.11c-.34.22-.74.31-1,.63.05.07.08.13.13.19l.16.17C27.88,21.81,28,21.6,28.05,21.11ZM50.66,32a1.61,1.61,0,0,0-.56.63c.15.13.34.08.5.07a.51.51,0,0,1,.48.18ZM31.45,16.91a5.19,5.19,0,0,0-.58-2.31.5.5,0,0,0,0,.16ZM50.34,31.32a8,8,0,0,0-.3-.76.59.59,0,0,0,0,.12c0,.3,0,.29-.32.38-.09,0-.23,0-.25.18C49.7,31.48,50,31.35,50.34,31.32ZM37.89,42.08l0,.09,1.48-.35A3.54,3.54,0,0,0,37.89,42.08ZM48.27,28.54c.33.13.33.13.54,0l-.09-.44ZM13.55,20.8v.05a6.67,6.67,0,0,0,.78-.12,1.41,1.41,0,0,1,.64-.07c.12,0,.19,0,.18-.17h-.07a6.32,6.32,0,0,1-1.3.23A1.17,1.17,0,0,0,13.55,20.8ZM19,32a1.56,1.56,0,0,0-.78.3A1.47,1.47,0,0,0,19,32ZM17,32.61l0,0,.34-.07c.2-.06.2-.06.26-.22ZM13.3,20.9c-.18-.15-.28-.15-.45,0Zm21.92.57c0,.1-.11.2,0,.29s.11,0,.13-.05S35.36,21.51,35.22,21.47ZM47.05,39.59v-.07l-.52.15,0,.07ZM36.37,42.74l0-.06-.17.13,0,0ZM8.08,22.09l0-.1H7.94V22ZM27.62,23.9h-.06l0,.16h.05Z" style="fill:#0410f2"/><path d="M7.27,21.63a.52.52,0,0,1,.11.1s0,.05,0,.07l-.12-.1Z" style="fill:#0410f2"/><path d="M17.52,28.42l.11,0v0l-.09.07Z" style="fill:#0410f2"/><path d="M33.53,25l-.08,0a.89.89,0,0,1-.05-.6.85.85,0,0,1,.13.56Z" style="fill:#0410f2"/><path d="M33.53,25a.37.37,0,0,1,.12.39c-.1,0-.17,0-.15-.13l0-.27Z" style="fill:#0410f2"/><path d="M34.17,21.77l.16-.08,0,.33Z" style="fill:#0410f2"/><path d="M21,19.59c.07-.26.16-.48.44-.5a.26.26,0,0,0,0-.07c0-.1-.1-.21,0-.28a.4.4,0,0,1,.41,0,.56.56,0,0,1,.32.77,1.21,1.21,0,0,1-.74.71.52.52,0,0,1-.3,0,1.88,1.88,0,0,1-.3-.09,2.1,2.1,0,0,0,0,.41.39.39,0,0,1-.15.37c-.09.09-.22.16-.21.33a.07.07,0,0,1-.05.06,1.24,1.24,0,0,1-.6.18.68.68,0,0,1-.49-.48A1.26,1.26,0,0,1,19.5,20a2.08,2.08,0,0,1,.38-.35c.07-.06.14,0,.18.09a3.4,3.4,0,0,0-.29.26.56.56,0,0,0-.17.21c-.05.15-.16.3,0,.46a.46.46,0,0,0,.57.15.53.53,0,0,1,.08-.59.81.81,0,0,0,.07-.22c.12,0,.21.21.39.06l-.46-.49.18-.05a.64.64,0,0,1,.32-.73.39.39,0,0,1,.52,0l-.2.07a.66.66,0,0,0-.22.15C20.66,19.29,20.7,19.42,21,19.59Zm.67-.49c0,.11,0,.18.11.29l.13-.23Z" style="fill:#0410f2"/><path d="M17.63,26.24c.07.06.1.12,0,.18l0-.18Z" style="fill:#0410f2"/></svg>