<svg id="Calque_1" data-name="Calque 1" xmlns="http://www.w3.org/2000/svg" viewBox="0 0 50 50"><title>icone_joueur_tournoi</title><path d="M47,22.69l-1.59,1.19A8.65,8.65,0,0,1,46,25.36c.85,2.74.66,6.78,1.06,6.78s1.84-5.63,0-9.28C47.06,22.8,47,22.74,47,22.69Z" style="fill:#a7f2d6"/><path d="M27.33,28.5c.15.61,2.46-1.26,4-4.06a8,8,0,0,1,.62-1l-1.35-1.08A20.58,20.58,0,0,1,27.33,28.5Z" style="fill:#a7f2d6"/><path d="M46.81,22.34l.21-.16a9.86,9.86,0,0,0-2.15-2.84A12.73,12.73,0,0,0,41,16.92a3.81,3.81,0,0,1-1.61-2.07,4.84,4.84,0,0,0,4.45-3.66.83.83,0,0,0,.75-.89.84.84,0,0,0-.76-.9,5.06,5.06,0,0,0-9.7,0,.84.84,0,0,0-.77.9.84.84,0,0,0,.76.89,4.83,4.83,0,0,0,4.44,3.66,3.52,3.52,0,0,1-1.67,2h0A12.77,12.77,0,0,0,33,18.85a13.45,13.45,0,0,0-2.71,2.76l.39.31h0l1.47,1.2h0l.4.33,1.8-1.6V31h9.29V21.85L45,23.7l.24-.18v0l1.59-1.19Z" style="fill:#a7f2d6"/><path d="M33.91,8.84H34a5.4,5.4,0,0,1,10,0h.08a1,1,0,0,0-.23-1.64A1.06,1.06,0,0,0,42.7,5.55c.14-.93-1.09-1.47-1.85-.93A1,1,0,0,0,39,4.32a1,1,0,0,0-1.86.3c-.65-.6-2.08.11-1.85.93-1-.21-1.82,1.17-1.14,1.65A1,1,0,0,0,33.91,8.84Z" style="fill:#a7f2d6"/><path d="M40.52,42.53h1.7V36h1.43V31.34H34.35V36h1.44v6.56h1.69V36h.94l.29-3.13a2.26,2.26,0,0,0,.6,0L39.59,36h.93Z" style="fill:#a7f2d6"/><path d="M37.47,43v0H35.78a1.42,1.42,0,0,0-.64.43.92.92,0,0,1-.87.32,2.67,2.67,0,0,0-2.4-.23c-.93.51-.42,1.64-.42,1.64v.42H37.8v-.42h0A2.47,2.47,0,0,0,37.47,43Zm-.56,1.72a.52.52,0,1,1,0-1,.52.52,0,1,1,0,1Z" style="fill:#a7f2d6"/><path d="M46.12,43.48a2.68,2.68,0,0,0-2.4.23.9.9,0,0,1-.86-.32,1.53,1.53,0,0,0-.64-.43h-1.7v0a2.52,2.52,0,0,0-.32,2.11h0v.42h6.34v-.42S47.05,44,46.12,43.48Zm-5,1.25a.52.52,0,1,1,.52-.51A.51.51,0,0,1,41.08,44.73Z" style="fill:#a7f2d6"/><path d="M27.28,28.51a10.09,10.09,0,0,1-4.69-4.67c-.21-.37-.42-.7-.63-1L20.3,24.09A16.1,16.1,0,0,0,21.92,26a7.78,7.78,0,0,0,5.36,2.61Z" style="fill:#a7f2d6"/><path d="M7.48,22.82a11.07,11.07,0,0,0-.63,1C4.58,27.9,1.47,27,1.47,27.18S5,28.57,7.52,26a17.1,17.1,0,0,0,1.62-1.93Z" style="fill:#a7f2d6"/><path d="M19.45,12.48c1,0,.92-1.73,0-1.74A4.72,4.72,0,0,0,15.5,7.27c-1.4.53-1.91,2-2.17,3.41a4.21,4.21,0,0,1-.12-3.25A4.63,4.63,0,0,0,10,10.74c-1,0-1,1.73,0,1.74a4.69,4.69,0,0,0,4.33,3.57,3.9,3.9,0,0,1-1.6,2.09v0s.63,1.59,2,1.59,2-1.57,2-1.59v0a3.85,3.85,0,0,1-1.6-2.09A4.71,4.71,0,0,0,19.45,12.48Z" style="fill:#a7f2d6"/><path d="M6.24,10A2.78,2.78,0,0,0,9,11.56a1.16,1.16,0,0,1,.79-1.09A5,5,0,0,1,13.86,7a3.09,3.09,0,0,0-.59,2.76A3.13,3.13,0,0,1,15.47,7a5,5,0,0,1,4.21,3.51,1.17,1.17,0,0,1,.8,1.09A2.77,2.77,0,0,0,23.19,10,1.81,1.81,0,0,0,23,8.44l1.1-.34L23.44,7l-.7,1.16a2.26,2.26,0,0,0-.46-.4,3.54,3.54,0,0,1,.35.48l-1.33.23.78,1.08.71-1a1.22,1.22,0,0,1,0,1.13,1.59,1.59,0,0,1-2.39.41c-.65-.5-.25-1.08-.73-2.06-1.23-2.52-3.71-3.22-5-2.34C13.48,4.81,11,5.51,9.77,8,9.29,9,9.68,9.59,9,10.09a1.59,1.59,0,0,1-2.39-.41,1.28,1.28,0,0,1,0-1.13l.71,1,.79-1.08L6.8,8.24a3.54,3.54,0,0,1,.35-.48,2.61,2.61,0,0,0-.46.4L6,7,5.38,8.1l1.09.34A1.81,1.81,0,0,0,6.24,10Z" style="fill:#a7f2d6"/><path d="M10.82,43.66v0c-.31.68-3.2.43-3.2,1.86h5.32a7.26,7.26,0,0,0-.27-1.88Z" style="fill:#a7f2d6"/><path d="M16.77,43.28h1.84V36.46A6.54,6.54,0,0,0,21,35.87s-2.67-3-1.8-12.76l.76.83,2-1.56a9.24,9.24,0,0,0-5-4.11s-.69,1.78-2.27,1.78-2.27-1.78-2.27-1.78a9.29,9.29,0,0,0-5,4.11l2,1.56.75-.83c.87,9.77-1.79,12.76-1.79,12.76a6.51,6.51,0,0,0,2.42.59v6.82h1.85V36.62c.6,0,1.27.05,2.05.05s1.44,0,2-.05Z" style="fill:#a7f2d6"/><path d="M18.61,43.68v0H16.76a7.26,7.26,0,0,0-.27,1.88h5.32C21.81,44.11,18.93,44.36,18.61,43.68Z" style="fill:#a7f2d6"/></svg>