<svg id="Calque_1" data-name="Calque 1" xmlns="http://www.w3.org/2000/svg" viewBox="0 0 60 60"><title>pictos</title><circle cx="29.92" cy="30.08" r="29.5" style="fill:#a7f2d6"/><path d="M40.8,54.8A14.57,14.57,0,0,1,40,53.31a16.9,16.9,0,0,1-1.05-2.57,2,2,0,0,0-.44-.93l.19-.27a18.47,18.47,0,0,0,1.72-2.95c.34-.75.63-1.51.95-2.27.24-.56.52-1.1.72-1.67a22,22,0,0,1,1.07-2.49,8.52,8.52,0,0,0,.75-2.52,23.4,23.4,0,0,1,.54-3.42c.11-.39.15-.8.29-1.17a6.77,6.77,0,0,0,.39-2.67,3,3,0,0,0-.21-1c-.08-.22-.18-.44-.26-.66a4.56,4.56,0,0,0-.84-1.32c-.24-.27-.58-.46-.72-.82a.1.1,0,0,0-.08-.06c-.22-.05-.23-.22-.25-.38a3.28,3.28,0,0,1,0-.43c0-.23-.06-.48.17-.66,0,0,.06-.15.06-.23A3.88,3.88,0,0,0,42.49,23c-.1-.2-.24-.38-.33-.59a9.15,9.15,0,0,0-.86-1.6.8.8,0,0,1-.11-.25,3.64,3.64,0,0,0-1.06-1.42.44.44,0,0,0-.19-.1,1.34,1.34,0,0,1-.79-.56,2.61,2.61,0,0,0-1-.78,2.3,2.3,0,0,1-.42-.2,2.4,2.4,0,0,0-1-.33l-.46-.07a2.66,2.66,0,0,0-2,.27,1.79,1.79,0,0,1-.92.33.64.64,0,0,0-.47.22c-.21.29-.52.35-.77.51a1.4,1.4,0,0,0-.36-.19,10.6,10.6,0,0,0-1.38-.16c-1,0-2,0-3,0a1.27,1.27,0,0,0-.56.07.91.91,0,0,1-.79,0l-.49-.21-1.24-.55c-.49-.21-1.06-.11-1.53-.4a3.39,3.39,0,0,0-.55-.24,2.09,2.09,0,0,0-.34-.08c-.31,0-.62-.07-.92-.12a1.59,1.59,0,0,0-.81.05,9.26,9.26,0,0,0-1.77.91,1.64,1.64,0,0,0-.34.4c-.21.3-.38.63-.61.92a2.12,2.12,0,0,0-.42.85,8.59,8.59,0,0,1-.26.88l.06.11c-.17.3-.32.55-.47.8a.47.47,0,0,1-.06.09,5.5,5.5,0,0,0-1.11,1.88,2.23,2.23,0,0,0-.13.44c-.07.4-.14.8-.17,1.2a2.37,2.37,0,0,0,0,1.37s0,.13,0,.19a3.75,3.75,0,0,0-.44,1.46.47.47,0,0,1,0,.17,2.42,2.42,0,0,0-.16,1.43,4.75,4.75,0,0,1,.1,1c0,.5-.09,1-.09,1.52,0,.11,0,.28.05.33s.14.28.1.44a10.82,10.82,0,0,0-.21,1.88c0,.49,0,1,0,1.46A15.75,15.75,0,0,0,14,39a4.52,4.52,0,0,1,.08.63,5.76,5.76,0,0,0,.59,2.2A12.81,12.81,0,0,0,15.25,43c.22.4.39.84.59,1.25s.41.88.62,1.31c.06.14.1.29.17.42a7.31,7.31,0,0,1,.6,1.34,1.91,1.91,0,0,1,.05.59c0,.51-.08,1-.1,1.53,0,.68,0,1.36,0,2s-.06,1.43,0,2.14a14.92,14.92,0,0,1-.16,3c.48.24,1,.47,1.47.68a10.07,10.07,0,0,0,.16-2.05c0-1.16,0-2.33,0-3.5,0-.7,0-1.4.09-2.1.06-.93.16-1.85.23-2.78,0-.61.07-1.23.09-1.85a6.93,6.93,0,0,0-.06-2.36.81.81,0,0,1,0-.22,11.93,11.93,0,0,0,0-1.89,12.8,12.8,0,0,0-.35-2.61,1.88,1.88,0,0,1,0-.67c.05-.37.14-.74.22-1.11.29,0,.58.22.78-.06l.59.08a12,12,0,0,1,2.12.71,7.27,7.27,0,0,0,1.71.49c.53.07,1.06.11,1.58.23a3.82,3.82,0,0,0,1.84,0c.33-.08.66-.18,1-.24a2.54,2.54,0,0,0,1.06-.4.46.46,0,0,0,.26-.59.86.86,0,0,1,0-.48,7,7,0,0,0,.14-.8,5.42,5.42,0,0,0,0-.57.69.69,0,0,1,.61,0,.67.67,0,0,0,.71,0c.14-.09.28-.18.43-.26a4.23,4.23,0,0,0,1.71-1.77,1,1,0,0,0,0-1L33,30.91l-.33-.62-.2-.35a6.87,6.87,0,0,1,.73-.24.54.54,0,0,0,.35-.23c.13-.22.26-.45.38-.68a.58.58,0,0,0,.08-.54.14.14,0,0,1,0-.15c.13-.13.07-.23,0-.35a1.53,1.53,0,0,1-.17-.27,1.86,1.86,0,0,0-.84-.89l-.41-.2-.41-.26c.19,0,.37,0,.53-.05a2,2,0,0,0,1.63-1.6,1.08,1.08,0,0,0-.23-1.15c-.18-.25-.34-.51-.54-.81l1.06.17a6.11,6.11,0,0,0,1.42.24,1,1,0,0,1,.28,0,4.62,4.62,0,0,0,.63.11.59.59,0,0,0,.37-.07,8.31,8.31,0,0,0,.69-.52,4,4,0,0,1-.52-.15,4.25,4.25,0,0,0-1.4-.4,3.62,3.62,0,0,1-.73-.14c-.61-.2-1.21-.43-1.81-.65a.5.5,0,0,1-.2-.15,3.82,3.82,0,0,1-.78-1.59.72.72,0,0,1,.59-1,3.91,3.91,0,0,0,1.31-.56.92.92,0,0,1,.65-.12c.36.05.73.08,1.1.14a1,1,0,0,1,.37.1,9.07,9.07,0,0,1,1.62.88.38.38,0,0,1,.19.42,1.75,1.75,0,0,0-.05.46.45.45,0,0,0,.34.44.62.62,0,0,0,.72-.25,1.65,1.65,0,0,1,.19.25c.29.52.6,1,.84,1.57.32.74.62,1.5.88,2.26a6.13,6.13,0,0,1,.19,1.76,4.77,4.77,0,0,1-.14,1.46c-.07.26-.1.53-.16.8a1.5,1.5,0,0,1-.11.34l-.25.54c-.1.22-.19.44-.3.72a2.54,2.54,0,0,1-.14-.25A25.54,25.54,0,0,0,39,26.57a12.86,12.86,0,0,0-1.06-1.48c-.27-.33-.67-.54-.85-.95,0-.11-.17-.07-.24,0a.51.51,0,0,1-.52.14c-.15,0-.26,0-.33.21a6.64,6.64,0,0,0,.6.71A16.71,16.71,0,0,1,38,27.28a6.89,6.89,0,0,1,.58,1.07c.35.7.71,1.39,1,2.1a6.37,6.37,0,0,0,.7,1.28,1,1,0,0,1,.12.36c0,.11,0,.21.07.31a.58.58,0,0,0,.75.39l.49-.19a1.63,1.63,0,0,0-.41-1.49,14.18,14.18,0,0,0,1.18-4l.21.15a3.26,3.26,0,0,1,.76,1.07A4.82,4.82,0,0,1,44,31.23a8.71,8.71,0,0,1-.42,1.43,13,13,0,0,0-.5,1.49,19.09,19.09,0,0,0-.3,2A7.73,7.73,0,0,1,42,38.83c-.25.5-.5,1-.72,1.51s-.34.86-.52,1.29c-.35.82-.72,1.63-1.07,2.45-.18.42-.33.84-.49,1.26a4,4,0,0,1-.77,1.27A11.43,11.43,0,0,0,37,48.7l-.51.81-.77,1.27c-.21.35-.41.7-.62,1s-.29.44-.41.67A9,9,0,0,0,34,53.61a2.88,2.88,0,0,0-.72,1.21c-.31.69-.56,1.41-.81,2.13-.13.4-.19.83-.32,1.24a7.66,7.66,0,0,0-.31,1.32c.52,0,1-.08,1.53-.14.15-.64.33-1.28.53-1.91.12-.41.27-.81.4-1.22s.27-.91.41-1.36a.91.91,0,0,1,.11-.22c.24-.4.49-.79.73-1.18a16.17,16.17,0,0,1,1.73-2.31l.5-.47a2.34,2.34,0,0,1,.11.3,15.73,15.73,0,0,0,2.69,5.36c.23.31.44.64.65,1,.37-.15.74-.32,1.1-.48-.24-.33-.48-.65-.73-1S41,55.17,40.8,54.8ZM27.49,18.87c.37,0,.73,0,1.09,0a7.12,7.12,0,0,1,2.3.22,2.06,2.06,0,0,0,.43,0,6.63,6.63,0,0,0,.11,1,6.35,6.35,0,0,0,.45,1c-.27-.09-.45-.15-.64-.23-.64-.26-1.25-.6-1.87-.92l-1.3-.65c-.21-.11-.4-.24-.59-.36Zm1.38,15.4c-.12.38-.23.77-.33,1.16a2.49,2.49,0,0,0,0,.49l-1-.22.34-.24.19-.54a5.16,5.16,0,0,1-.52.09,4.19,4.19,0,0,1-.71,0c-.26,0-.27-.11-.23-.37s.29-.46.42-.69c0,0,.08-.09.11-.14L27,33.43c-.3-.09-.49,0-.71.26a1.37,1.37,0,0,0,.22,2.09.85.85,0,0,0,.45.14c.35,0,.71,0,1.06,0,0,0,.09,0,.13,0l0,.1-.57.13a7.24,7.24,0,0,1-1.9.25l-.54,0-1.62-.22a6.91,6.91,0,0,1-.9-.21c-1-.29-2-.61-3.06-.81a.55.55,0,0,1-.27-.1.46.46,0,0,0-.53-.08c-.21.08-.35,0-.53-.09s-.6-.21-.9-.3c-.06,0-.14,0-.23,0L17,35a2.06,2.06,0,0,0,.93.54l-.39.71a.36.36,0,0,0-.06.2A6.08,6.08,0,0,0,17.65,38a2.36,2.36,0,0,1,.05.6c0,.68.08,1.36.1,2a5.17,5.17,0,0,1,0,.68c0,.48-.1,1-.13,1.45s-.05,1.12-.06,1.68c0,.22,0,.45,0,.67l-.07,0c-.14-.24-.28-.46-.4-.7-.33-.73-.65-1.46-1-2.18a9.34,9.34,0,0,1-.43-1.19c-.2-.66-.28-1.34-.44-2a5.51,5.51,0,0,1-.07-1.46,7.74,7.74,0,0,0,.05-1.07,9.86,9.86,0,0,1,0-1.63,8.63,8.63,0,0,1,.34-1.68,13.19,13.19,0,0,1,.7-1.94.61.61,0,0,1,.33-.39c.13-.06.22-.22.31-.34a.48.48,0,0,1,.63-.15,1.81,1.81,0,0,1,.33.2,2.54,2.54,0,0,0,1.57.51.24.24,0,0,0,.17,0c.26-.2.53-.09.78,0,.6.19,1.19.41,1.78.6a23.67,23.67,0,0,0,2.88.95,10.42,10.42,0,0,1,1.1.28c.19.06.37.15.56.23.46.2.93.41,1.4.6a1.75,1.75,0,0,0,.46.05C28.9,33.87,29,33.94,28.87,34.27Zm.94-.12-.32-.66.43-.1.15.69Zm2.24-2.24A6.43,6.43,0,0,1,31,33a.9.9,0,0,1-.62.11c0-.08.08-.19.16-.25a1.21,1.21,0,0,0,.45-1l-.65.15-1,.17a1.55,1.55,0,0,1-1-.27.25.25,0,0,1-.14-.3,1.29,1.29,0,0,1,.29-.75.71.71,0,0,0,.16-.83,4.51,4.51,0,0,0-.52,0,.23.23,0,0,0-.17.11,2.9,2.9,0,0,0-.56,1.14,1.1,1.1,0,0,0,.05.48c.11.3.26.58.4.9a.56.56,0,0,1-.23,0c-.48-.22-1-.41-1.47-.62a9.9,9.9,0,0,0-1.72-.46A8.15,8.15,0,0,1,22.82,31a20.68,20.68,0,0,0-2.22-.75,3.34,3.34,0,0,0-1.34-.16,1.26,1.26,0,0,1-.63-.18,3.4,3.4,0,0,0-1.6-.26,1.87,1.87,0,0,0-.62.1.85.85,0,0,0-.32.21q-.35.32-.66.66a1.7,1.7,0,0,0-.18.26.49.49,0,0,1-.21.19c0-.06,0-.13,0-.19,0-.3-.07-.59-.12-.89a.94.94,0,0,1,.11-.78,1.45,1.45,0,0,0,.23-.85,1.75,1.75,0,0,1,.52-1.31s.1-.07.1-.1c0-.35.28-.45.49-.59A5.26,5.26,0,0,1,17.2,26a.51.51,0,0,1,.6.06.8.8,0,0,0,.58.13,1.54,1.54,0,0,1,.73.12,8.89,8.89,0,0,0,.88.26.68.68,0,0,1,.24.08,2.23,2.23,0,0,0,1.2.37,1.47,1.47,0,0,1,.53.19,12.06,12.06,0,0,0,2.07,1,3.71,3.71,0,0,1,.46.19,3.16,3.16,0,0,0,.9.34.67.67,0,0,1,.36.14,1.73,1.73,0,0,0,1.07.32,4,4,0,0,1,1.22.26,3.14,3.14,0,0,0,1,.18A8.64,8.64,0,0,1,31,30a1.28,1.28,0,0,1,.8.71c.12.23.21.47.31.71A.42.42,0,0,1,32.05,31.91Zm.78-3.79a1,1,0,0,1-.42,1.29,2.48,2.48,0,0,1-.35.13c-.34-.35-.34-.35-.24-.73a.52.52,0,0,0-.41-.24c-.35-.06-.7-.14-1.05-.21a.88.88,0,0,1-.27-.1.29.29,0,0,1,0-.5,1,1,0,0,1,.31-.16l.21-.05.19,0s0-.05,0-.07,0-.36,0-.4a1,1,0,0,0-.57-.11,1.52,1.52,0,0,0-1,.68,3.53,3.53,0,0,0-.24.61A5,5,0,0,1,27.36,28a3.38,3.38,0,0,0-1.18-.22,1.46,1.46,0,0,1-.78-.22,3.38,3.38,0,0,0-.63-.23l-.6-.23-.83-.32a1.86,1.86,0,0,1-.31-.1c-.43-.21-.88-.41-1.3-.66a2.68,2.68,0,0,0-1-.36c-.48-.07-.95-.2-1.43-.27s-.85-.08-1.28-.12c-.23,0-.47-.07-.7-.08a1.27,1.27,0,0,0-.52,0c-.4.18-.78.4-1.17.61l-.18.1a1.57,1.57,0,0,1,0-.33c.11-.47.21-.95.35-1.42a7.89,7.89,0,0,1,.36-1,3.67,3.67,0,0,1,.72-1.14.67.67,0,0,0,.11-.18.81.81,0,0,1,.93-.52,2.12,2.12,0,0,0,.69-.14c.37-.12.73-.27,1.11-.38a.84.84,0,0,1,.75.09,1.12,1.12,0,0,0,.54.15,2.65,2.65,0,0,1,1.17.28,9.88,9.88,0,0,0,.94.41,8,8,0,0,1,1.43.87l1.24.77.58.36.6.38.92.54.9.57a1.25,1.25,0,0,1,.24.16,5.5,5.5,0,0,0,1.15.77c.4.23.78.5,1.17.75a3.5,3.5,0,0,0,.56.32A1.8,1.8,0,0,1,32.83,28.12Zm-.18-4.6,0,0A1.09,1.09,0,0,1,33,24.81c0,.11,0,.23-.07.34s-.07.15-.12.16a.76.76,0,0,0-.37.26c-.16.21-.34.08-.53,0l0,.29-1.09-.6v-.05h.64c.15-.14.25-.28.16-.48a.46.46,0,0,0-.46-.27c-.57,0-.64,0-.7-.61a5.91,5.91,0,0,1,0-1c0-.36,0-.39-.34-.58a1.09,1.09,0,0,0-.5,1c0,.25.09.49.12.74s0,.35,0,.57l-.27-.09a2.53,2.53,0,0,0-.27-.18,9,9,0,0,1-1.51-.93c-.44-.28-.91-.5-1.34-.81-.68-.48-1.36-1-2.07-1.4-.48-.29-1-.46-1.54-.72a3.66,3.66,0,0,0-.95-.27.69.69,0,0,0-.35,0,1,1,0,0,1-.63,0c-.33-.08-.67-.17-1-.23a1.76,1.76,0,0,0-.56,0,1.84,1.84,0,0,1-.84,0,1.21,1.21,0,0,0-.5,0c-.12,0-.24.07-.4.11A1.89,1.89,0,0,1,18,18.82a1.81,1.81,0,0,0,.3-.32,1.2,1.2,0,0,0,.24-.46.52.52,0,0,1,.31-.39l1-.52a.74.74,0,0,1,.55-.06c.46.11.93.19,1.39.31a7.21,7.21,0,0,1,.82.35c.78.35,1.55.71,2.34,1a10.5,10.5,0,0,1,1.45.84c.76.46,1.52.94,2.29,1.39a5.85,5.85,0,0,0,.84.39c.35.15.71.28,1.05.43a1.74,1.74,0,0,1,.49.3C31.65,22.58,32.15,23.05,32.65,23.52Z" style="fill:#0410f2"/><path d="M36.85,18.82c-.17-.19-.37-.36-.55-.55a.25.25,0,0,0-.36,0,2,2,0,0,0,0,.35,1.45,1.45,0,0,0,.09.22.89.89,0,0,1,.06.35c-.05.42-.12.84-.18,1.26,0,.24-.08.29-.33.25a2.93,2.93,0,0,1-.79-.18,1.4,1.4,0,0,0-.83-.07c-.13,0-.24,0-.27.18a.28.28,0,0,0,.1.32,2.74,2.74,0,0,0,.49.29,4.94,4.94,0,0,0,1.83.2,1.65,1.65,0,0,0,.62-.25.62.62,0,0,0,.31-.81.87.87,0,0,0,.24-.58A1.24,1.24,0,0,0,36.85,18.82Z" style="fill:#0410f2"/></svg>