<svg id="Layer_1" data-name="Layer 1" xmlns="http://www.w3.org/2000/svg" viewBox="0 0 82.3 59.44"><title>logo</title><path d="M15.64,42.81c.29-.55.57-1.11.87-1.65A32.2,32.2,0,0,1,20.74,35a6.46,6.46,0,0,1,1.64-1.35,2.66,2.66,0,0,1,.82-.33,1.34,1.34,0,0,1,1.61.93,4.33,4.33,0,0,1,.11,2c-.05.38-.12.75-.19,1.12s-.17.73-.27,1.14l.72-.9a13.18,13.18,0,0,1,2.24-2.3,4.88,4.88,0,0,1,1.45-.79,1.64,1.64,0,0,1,2.26,1.15,5,5,0,0,1,.21,1.22,12.74,12.74,0,0,1-.53,3.78c-.35,1.51-.72,3-1,4.54a8.59,8.59,0,0,0-.21,2.77A2.07,2.07,0,0,0,30,49a.93.93,0,0,0,.89.35,3.1,3.1,0,0,0,1.48-.65,23.25,23.25,0,0,0,4.16-3.83,9.12,9.12,0,0,1,.68-.92c.37-.36.29-.78.33-1.2a8,8,0,0,1,1-3.44,3.88,3.88,0,0,1,.76-.95,1.38,1.38,0,0,1,1.87-.07,2.7,2.7,0,0,1,.78.93l.2.38c.14-.37.27-.7.39-1a2.52,2.52,0,0,1,.12-.29.6.6,0,0,1,1.13.32c0,.38-.14.74-.2,1.12A21,21,0,0,0,43.26,44a3.68,3.68,0,0,0,.35,1.45c.17.35.27.38.59.16a4.4,4.4,0,0,0,1.22-1.32,40.36,40.36,0,0,0,3.8-7.75c.31-.88.61-1.77.91-2.66a3,3,0,0,1,.12-.32.62.62,0,0,1,.61-.35.54.54,0,0,1,.51.48,6,6,0,0,1-.06,1c-.22,1.63-.46,3.25-.66,4.88a13.1,13.1,0,0,0-.06,3.19c0,.27.11.53.16.79s.11.16.21.08a3.39,3.39,0,0,0,.62-.5c.51-.64,1-1.3,1.48-2,1-1.42,2-2.87,3-4.3a12.13,12.13,0,0,1,.89-1,1.59,1.59,0,0,1,.32-.26,1.09,1.09,0,0,1,1.7.48,3.7,3.7,0,0,1,.35,1.56c0,.69,0,1.38,0,2.07a.31.31,0,0,0,0,.18,3,3,0,0,1,.17-.41c.4-.82.8-1.64,1.22-2.46a.81.81,0,0,1,.85-.51.85.85,0,0,1,.68.82c.08.51.12,1,.18,1.55a6.68,6.68,0,0,0,.48,1.92.92.92,0,0,0,1.27.62,2.93,2.93,0,0,0,1.3-.8,6.91,6.91,0,0,0,1.68-2.76c.15-.41.26-.84.39-1.25a.25.25,0,0,0-.14-.33A6,6,0,0,1,65.75,35a4.16,4.16,0,0,1-.91-3.61,1.8,1.8,0,0,1,1.56-1.47,1.55,1.55,0,0,1,1.27.46,4.28,4.28,0,0,1,1,1.6A6.86,6.86,0,0,1,69,35.55c0,.17,0,.23.17.3.87.42,1.74.83,2.6,1.28a4.43,4.43,0,0,1,1.34,1.14c.09.11.16.11.28,0l3.06-1.68a.58.58,0,0,1,.7.07.52.52,0,0,1,.1.69,1.79,1.79,0,0,1-.5.49c-.7.4-1.42.77-2.13,1.15-.22.12-.44.23-.65.36,0,0-.09.13-.07.17a4.58,4.58,0,0,1-.12,3.16,6.32,6.32,0,0,1-2.75,3.35,3.75,3.75,0,0,1-2.49.55A1.77,1.77,0,0,1,67,45a2.68,2.68,0,0,1,.31-1.3,7.33,7.33,0,0,1,1.63-2.19A17.27,17.27,0,0,1,72,39.12c.15-.09.14-.14,0-.25a5.53,5.53,0,0,0-1.6-1.11l-1.5-.7c-.16-.07-.2,0-.25.13a10.64,10.64,0,0,1-1.42,3.28,5.63,5.63,0,0,1-2.16,2,2.78,2.78,0,0,1-1.65.3,2.08,2.08,0,0,1-1.63-1.36,8.13,8.13,0,0,1-.62-2.59c-.05.1-.08.14-.1.19a31.61,31.61,0,0,0-1.44,3.83,4.55,4.55,0,0,1-.33.79.68.68,0,0,1-.7.41.8.8,0,0,1-.65-.63,5.7,5.7,0,0,1,0-1.65,31.08,31.08,0,0,0,.1-4.09A3.75,3.75,0,0,0,58,37c-.07-.27-.1-.29-.28-.08-.38.46-.77.91-1.11,1.4-1.11,1.58-2.18,3.17-3.29,4.74a12.58,12.58,0,0,1-1.17,1.35,2.1,2.1,0,0,1-1,.57,1.14,1.14,0,0,1-1.34-.56,3.44,3.44,0,0,1-.42-1.54,16.12,16.12,0,0,1,.07-3.33.68.68,0,0,0,0-.15c-.23.49-.43.94-.64,1.38a41.5,41.5,0,0,1-2.57,4.55,4.69,4.69,0,0,1-1.49,1.45,1.39,1.39,0,0,1-2.08-.49,4.09,4.09,0,0,1-.57-1.83C42,43.88,42,43.34,42,42.8q-.16.31-.36.63a5.56,5.56,0,0,1-1.37,1.68,1.7,1.7,0,0,1-1.32.38,1.41,1.41,0,0,1-.94-.55c-.09-.11-.14-.12-.21,0a1.64,1.64,0,0,0-.14.22,4.79,4.79,0,0,1-.46.71,23,23,0,0,1-4.56,4,3.66,3.66,0,0,1-1.67.6,2.16,2.16,0,0,1-2.24-1.24,4.33,4.33,0,0,1-.4-2.29,32.53,32.53,0,0,1,1.08-5.78c.25-1,.47-2,.65-3a5,5,0,0,0,0-2.08c-.14-.6-.38-.72-1-.49a4.52,4.52,0,0,0-1.41,1A18.68,18.68,0,0,0,24.3,41c-.35.64-.71,1.27-1.07,1.9a2,2,0,0,1-.17.23.63.63,0,0,1-.77.17.61.61,0,0,1-.3-.73c.23-.87.48-1.73.73-2.59a26.22,26.22,0,0,0,.92-3.48,5,5,0,0,0,.07-1.64c-.07-.38-.16-.45-.51-.27a3.73,3.73,0,0,0-.73.46A13.28,13.28,0,0,0,20,37.89a45.25,45.25,0,0,0-3.22,5.4,37.56,37.56,0,0,0-2.21,5c-.29.85-.49,1.72-.72,2.58-.12.43-.24.85-.37,1.28a2.5,2.5,0,0,1-.15.38.61.61,0,0,1-.62.4.64.64,0,0,1-.58-.52,1.7,1.7,0,0,1,0-.71c.22-.81.43-1.64.73-2.43a19.65,19.65,0,0,0,1-3.59c.28-1.5.54-3,.73-4.51a35.45,35.45,0,0,0,.22-3.57,8.33,8.33,0,0,0-.21-1.85c-.13-.67-.36-.75-1-.4A6.44,6.44,0,0,0,12,36.79,23.17,23.17,0,0,0,8.8,41.51,8.72,8.72,0,0,0,8,43.34a.52.52,0,0,1-.58.37A.51.51,0,0,1,7,43.19a1.67,1.67,0,0,1,.11-.59,17.52,17.52,0,0,1,2.23-4.32,19.8,19.8,0,0,1,2.34-2.9,5.88,5.88,0,0,1,1.84-1.27,1.51,1.51,0,0,1,2.12.91A5.45,5.45,0,0,1,16,36.8a25.58,25.58,0,0,1-.19,4.46c-.06.51-.13,1-.19,1.53Zm57.29-1.92c0-.18-.05-.4-.08-.61s-.08-.21-.24-.11A17.37,17.37,0,0,0,70.11,42a7.28,7.28,0,0,0-1.32,1.45,3.48,3.48,0,0,0-.6,1.31.44.44,0,0,0,.25.52,1.32,1.32,0,0,0,.85.11,3.52,3.52,0,0,0,1.95-1A5.1,5.1,0,0,0,72.93,40.89ZM38.67,43.18a7.78,7.78,0,0,0,.2.87c.09.27.28.32.52.16a3.53,3.53,0,0,0,.63-.59,11.27,11.27,0,0,0,1.37-2.41.31.31,0,0,0,0-.23,11.89,11.89,0,0,0-.53-1.28,2.1,2.1,0,0,0-.48-.51.22.22,0,0,0-.32,0,3.21,3.21,0,0,0-.42.49A7.39,7.39,0,0,0,38.67,43.18Zm29.21-8.81a5.11,5.11,0,0,0-.57-2.4,3.66,3.66,0,0,0-.45-.66.38.38,0,0,0-.67.05A1.34,1.34,0,0,0,66,32a3.13,3.13,0,0,0,1.72,3.09c.08.06.14.08.14-.06Z" style="fill:#fff"/><path d="M61.77,20.1c-.21.43-.39.85-.6,1.25a11.26,11.26,0,0,1-2.24,3.11,2.54,2.54,0,0,1-1.23.68,1.26,1.26,0,0,1-1.33-.57A2.88,2.88,0,0,1,56,23.26c0-.27-.05-.54-.07-.82-.21.43-.41.86-.63,1.28a10.76,10.76,0,0,1-2,2.71,4.12,4.12,0,0,1-1,.72,1.23,1.23,0,0,1-1.8-.74A3.42,3.42,0,0,1,50.38,25a27.1,27.1,0,0,1,.57-3.7,1.59,1.59,0,0,0,0-.17l-.91,1.48A18.59,18.59,0,0,1,46.44,27a7.54,7.54,0,0,1-1,.71.94.94,0,0,1-.75.14.66.66,0,0,1-.47-.84.51.51,0,0,1,.61-.36.34.34,0,0,0,.35-.1c.44-.43.88-.85,1.3-1.29A26.07,26.07,0,0,0,50.17,20,33.61,33.61,0,0,0,52,16.22l.06-.22-.21.06-2.31.83a.55.55,0,0,1-.75-.28.56.56,0,0,1,.36-.74l.14,0,2.51-1.05a7.67,7.67,0,0,0,.77-.36.35.35,0,0,0,.16-.23c.24-1,.47-2,.7-3a2.34,2.34,0,0,1,.1-.4,1.23,1.23,0,0,1,.24-.38.59.59,0,0,1,.68-.15.56.56,0,0,1,.38.6,14.69,14.69,0,0,1-.23,1.48c-.07.36-.19.72-.29,1.07,0,0,0,.09,0,.13a.5.5,0,0,0,.12,0,.56.56,0,0,1,.68.18.6.6,0,0,1,0,.71,1.67,1.67,0,0,1-.81.58,1,1,0,0,0-.68.82C53,18,52.38,20.19,52,22.45c-.15.85-.26,1.7-.36,2.55a3.75,3.75,0,0,0,0,.82c0,.27.1.31.33.15a3.53,3.53,0,0,0,.55-.46,10.85,10.85,0,0,0,1.85-2.66,21.05,21.05,0,0,0,1.79-5.62c0-.08,0-.16,0-.24a.65.65,0,0,1,.66-.53.62.62,0,0,1,.57.63,4.79,4.79,0,0,1,0,.76c-.1,1.63-.29,3.26-.23,4.9a5.17,5.17,0,0,0,.13.95c0,.26.15.3.38.15a3.74,3.74,0,0,0,.63-.5A10.53,10.53,0,0,0,60,20.88a18.34,18.34,0,0,0,1.7-5.25c.17-.93.31-1.86.47-2.79,0-.25,0-.26-.23-.18l-1.77.52a.87.87,0,0,1-.28.05.53.53,0,0,1-.28-1l.3-.13,2.2-.77a.27.27,0,0,0,.2-.29q.12-1.61.27-3.21a1.11,1.11,0,0,1,.17-.49.6.6,0,0,1,.69-.29.59.59,0,0,1,.45.62q0,.71-.06,1.41c0,.5-.09,1-.15,1.48,0,.15,0,.17.16.12l3.91-1.47a1,1,0,0,1,.4-.1.57.57,0,0,1,.48.84,1,1,0,0,1-.59.46L64.7,11.69c-.32.11-.63.24-.94.34a.3.3,0,0,0-.25.3c0,.51-.1,1-.14,1.54-.1,1.48-.21,3-.29,4.44a18,18,0,0,0,0,3.59,4,4,0,0,0,.4,1.44.93.93,0,0,0,1.29.45,5.1,5.1,0,0,0,1.79-1.29c.08-.09.08-.14,0-.23a4.83,4.83,0,0,1-1.19-2.93,7.69,7.69,0,0,1,.5-3.68A2.86,2.86,0,0,1,67,14.24a1.49,1.49,0,0,1,1.76.06,2.65,2.65,0,0,1,1,1.88,7.34,7.34,0,0,1-.19,2.72,11.31,11.31,0,0,1-1.11,3c-.1.17,0,.17.14.18a2.89,2.89,0,0,0,2-.56,5.79,5.79,0,0,0,1.9-2.34,10,10,0,0,0,.8-2.55.66.66,0,0,0,0-.31c-.2-.72-.44-1.42-.6-2.14a3.57,3.57,0,0,1,0-1.08.68.68,0,0,1,.56-.57.66.66,0,0,1,.71.28,2.67,2.67,0,0,1,.35.67,5.65,5.65,0,0,1,.31,2.34,2.16,2.16,0,0,0,.18,1c.6,1.41,1.17,2.83,1.75,4.25a4.76,4.76,0,0,1,.19.53c0,.16.1.16.24.11.81-.29,1.62-.6,2.45-.84a7.06,7.06,0,0,1,1.39-.21.82.82,0,0,1,.69.28.53.53,0,0,1,.1.62.51.51,0,0,1-.51.34,5.6,5.6,0,0,0-2.36.44c-.48.15-.93.37-1.4.54-.16.06-.17.13-.15.28a13.82,13.82,0,0,1,.27,1.69,5.71,5.71,0,0,1-.85,3.63,4,4,0,0,1-2.9,1.89,2.48,2.48,0,0,1-2.47-1.16,2.52,2.52,0,0,1-.1-1.83A6.14,6.14,0,0,1,72.49,25a11.47,11.47,0,0,1,3.07-2.48c.15-.08.19-.16.13-.32-.48-1.2-1-2.4-1.43-3.6l-.08-.12a.75.75,0,0,0-.07.12,9.52,9.52,0,0,1-1,2.18,5.72,5.72,0,0,1-2.85,2.35,3.45,3.45,0,0,1-2.39,0c-.13,0-.18,0-.25.09a6.9,6.9,0,0,1-2.11,1.6,2.22,2.22,0,0,1-3.23-1.37,7.25,7.25,0,0,1-.4-2C61.8,21,61.79,20.57,61.77,20.1Zm14.55,5c0-.34-.12-.84-.19-1.35,0-.12-.06-.16-.17-.08s-.33.21-.5.31a8.53,8.53,0,0,0-2.55,2.49,3.42,3.42,0,0,0-.61,1.88.73.73,0,0,0,.4.65,1.51,1.51,0,0,0,1.06.16,2.88,2.88,0,0,0,2-1.51A5.36,5.36,0,0,0,76.32,25.12Zm-7.71-8c0-.25,0-.43,0-.61a1.73,1.73,0,0,0-.38-1c-.24-.28-.45-.31-.69,0a2,2,0,0,0-.44.64,6.48,6.48,0,0,0-.41,3.54,3.4,3.4,0,0,0,.63,1.62c.08.12.13.14.2,0A10.7,10.7,0,0,0,68.61,17.07Z" style="fill:#fff"/><path d="M27.15,17.09c-.08.54-.16,1.18-.26,1.82a.24.24,0,0,0,.15.32c.8.42,1.61.83,2.39,1.3a4.75,4.75,0,0,1,2,2.45.48.48,0,0,0,.19.21.55.55,0,0,1,.18.85.39.39,0,0,0-.1.26A5.41,5.41,0,0,1,30.63,28a4.32,4.32,0,0,1-1.93,1.58,2.82,2.82,0,0,1-2,.1,1.51,1.51,0,0,1-1-1.92,3.76,3.76,0,0,1,.9-1.59,10.53,10.53,0,0,1,3.47-2.59c.19-.08.2-.16.13-.33a3.84,3.84,0,0,0-1.66-1.81c-.63-.36-1.27-.68-1.9-1-.13-.07-.15,0-.18.09A12.9,12.9,0,0,1,24.7,24,10.17,10.17,0,0,1,22,26.8a5.51,5.51,0,0,1-1.63.76,3.2,3.2,0,0,1-3-.61.36.36,0,0,0-.44-.06,3.35,3.35,0,0,1-3.7-.44,5.73,5.73,0,0,1-1.9-2.86c-.22-.74-.36-1.51-.52-2.27,0-.19-.08-.17-.21-.08A12.49,12.49,0,0,1,7.5,23a7.22,7.22,0,0,1-1.39.33.5.5,0,0,1-.56-.44.51.51,0,0,1,.41-.6A6.87,6.87,0,0,0,8.6,21.14c.63-.42,1.24-.87,1.86-1.31a.32.32,0,0,0,.16-.34,18.93,18.93,0,0,1,.73-6.57,17.12,17.12,0,0,1,1.83-4.29,5.59,5.59,0,0,1,2.08-2.1,3,3,0,0,1,2-.38,2.28,2.28,0,0,1,1.76,2A6.26,6.26,0,0,1,18.73,11a16.4,16.4,0,0,1-3.3,5.74A30.68,30.68,0,0,1,12,20.15a.3.3,0,0,0-.1.23,14.37,14.37,0,0,0,.56,2.82,4.58,4.58,0,0,0,1.81,2.51,2.11,2.11,0,0,0,1.94.15c.15-.05.08-.12,0-.2a4.6,4.6,0,0,1-.69-2,5.88,5.88,0,0,1,.85-3.86,2.26,2.26,0,0,1,3-.92,2.45,2.45,0,0,1,1.29,1.82,4.65,4.65,0,0,1-.52,3A7.1,7.1,0,0,1,18.39,26c-.14.13-.1.17,0,.24a2.09,2.09,0,0,0,1.73.15A5.43,5.43,0,0,0,22.3,25a12.26,12.26,0,0,0,3.08-5.11.18.18,0,0,0-.09-.25,13,13,0,0,1-1.15-.79,4.43,4.43,0,0,1-1.59-2.42,2.78,2.78,0,0,1,1.4-3,1.75,1.75,0,0,1,2.29.53,4.3,4.3,0,0,1,.79,2C27.08,16.29,27.1,16.64,27.15,17.09Zm-15.34.83c0,.2,0,.4,0,.61,0,0,0,.08,0,.12a1.05,1.05,0,0,0,.11-.07,23.26,23.26,0,0,0,4.15-4.82,11.29,11.29,0,0,0,1.7-4.12,5,5,0,0,0,0-1.45,1,1,0,0,0-1.26-.82,3.23,3.23,0,0,0-1,.44,4.23,4.23,0,0,0-1.34,1.51A17.93,17.93,0,0,0,11.81,17.92Zm5,5.06A3.83,3.83,0,0,0,17.31,25c.06.09.1.17.22.06a5.79,5.79,0,0,0,1.87-2.73,2.65,2.65,0,0,0,0-1.8,1,1,0,0,0-1.15-.68,1.11,1.11,0,0,0-.81.58A4.8,4.8,0,0,0,16.77,23Zm10.74,5.58a2,2,0,0,0,1-.28,4.09,4.09,0,0,0,1.94-3.39c0-.15,0-.17-.17-.1a9.22,9.22,0,0,0-2.91,2.32,3,3,0,0,0-.4.64C26.71,28.33,26.87,28.56,27.51,28.56Zm-1.6-11.51c0-.34,0-.58-.07-.83a3.29,3.29,0,0,0-.55-1.51.58.58,0,0,0-.89-.15,1.6,1.6,0,0,0-.48,2.1,4.41,4.41,0,0,0,1.68,1.72c.1.07.15.05.16-.08C25.81,17.86,25.87,17.41,25.91,17.05Z" style="fill:#fff"/><path d="M39.72,15.74c-.2.3-.38.61-.58.91A17.14,17.14,0,0,1,37,19.25a5.17,5.17,0,0,1-1.64,1.13,2.31,2.31,0,0,1-.64.16.5.5,0,0,1-.51-.42.51.51,0,0,1,.32-.6,4.69,4.69,0,0,0,2-1.48,20.52,20.52,0,0,0,3.11-4.72.68.68,0,0,1,.76-.46.73.73,0,0,1,.59.76c0,1.21,0,2.41-.06,3.62,0,.36,0,.72-.05,1.13.22-.37.42-.7.63-1a6.59,6.59,0,0,1,1.62-1.87A2.17,2.17,0,0,1,44.85,15a1.92,1.92,0,0,1,1.51,1.44,4.09,4.09,0,0,1,0,2.3,6.85,6.85,0,0,1-2.19,3.75,5.66,5.66,0,0,1-2.78,1.37,3.32,3.32,0,0,1-.63,0c-.15,0-.21,0-.22.18,0,.55-.07,1.1-.11,1.65-.09,1.21-.19,2.41-.29,3.61s-.19,2.17-.28,3.26c0,.59-.07,1.18-.11,1.78a1.18,1.18,0,0,1-.06.27.59.59,0,0,1-.55.4.58.58,0,0,1-.55-.36,1.62,1.62,0,0,1-.08-.49c0-1.15,0-2.3,0-3.44a34.72,34.72,0,0,1,.8-7.53,6.43,6.43,0,0,1,.16-1.31c.06-1,.14-2,.2-3s.1-2.1.15-3.16Zm5.57,1.75a5,5,0,0,0-.11-.69.69.69,0,0,0-1.11-.47,3.6,3.6,0,0,0-.84.72,12.67,12.67,0,0,0-2.57,5.44c0,.15,0,.17.15.18a2.22,2.22,0,0,0,1.08-.21A5.68,5.68,0,0,0,45.29,17.49Z" style="fill:#fff"/><path d="M50.08,7c-.17.75-.32,1.5-.51,2.24a15.36,15.36,0,0,1-1.4,3.38.54.54,0,0,1-1-.41c.1-.29.24-.57.37-.86a17.53,17.53,0,0,0,1.23-4.19c0-.15.06-.3.1-.44A.58.58,0,0,1,50,6.84v.1Z" style="fill:#fff"/><path d="M74.13,5.13c0,.42-.16.65-.43.72a.56.56,0,0,1-.66-.3,2.4,2.4,0,0,1-.17-.65c-.1-1-.2-1.92-.28-2.88a8,8,0,0,1,0-1,.55.55,0,0,1,.53-.6.57.57,0,0,1,.55.57c.1.83.19,1.66.29,2.48C74,4.08,74.07,4.66,74.13,5.13Z" style="fill:#fff"/><path d="M4.61,50.36h.26a.57.57,0,0,1,.61.52c0,.31-.24.52-.6.57-.52.08-1,.15-1.55.27s-1.11.34-1.67.5a5.63,5.63,0,0,1-.59.14A.55.55,0,0,1,.47,52a.5.5,0,0,1,.17-.64A2.39,2.39,0,0,1,1.38,51c.92-.24,1.85-.45,2.77-.66a3.4,3.4,0,0,1,.45,0Z" style="fill:#fff"/><path d="M77.9,5.84a.57.57,0,0,1-.53-.78,1.21,1.21,0,0,1,.18-.28l1.86-2.59A.6.6,0,0,1,80,1.88a.55.55,0,0,1,.41.77c-.14.28-.3.56-.47.83-.32.51-.65,1-1,1.5a5,5,0,0,1-.68.7A1.25,1.25,0,0,1,77.9,5.84Z" style="fill:#fff"/><path d="M3.16,56.4A1.89,1.89,0,0,1,3.37,56c.37-.44.78-.85,1.15-1.3a6.52,6.52,0,0,0,.55-.82.56.56,0,0,1,.57-.31.51.51,0,0,1,.45.54,1.36,1.36,0,0,1-.18.59,9.87,9.87,0,0,1-1.67,2,1.17,1.17,0,0,1-.38.24C3.52,57.12,3.17,56.86,3.16,56.4Z" style="fill:#fff"/><path d="M52.35,30.46a3.31,3.31,0,0,1-.11.36,1.46,1.46,0,0,1-1.09.79.82.82,0,0,1-.87-1,1.61,1.61,0,0,1,.48-.86.87.87,0,0,1,1-.18A1,1,0,0,1,52.35,30.46Z" style="fill:#fff"/><path d="M10,56.54a.63.63,0,0,1,.6.78c-.08.26-.13.53-.21.79a2.64,2.64,0,0,1-.23.61.51.51,0,0,1-.63.24.52.52,0,0,1-.33-.6c.07-.43.14-.87.24-1.3A.6.6,0,0,1,10,56.54Z" style="fill:#fff"/><path d="M57.64,10.6a.54.54,0,0,1-.52-.53.55.55,0,0,1,.54-.52.53.53,0,0,1,0,1Z" style="fill:#fff"/></svg>