<svg id="Calque_1" data-name="Calque 1" xmlns="http://www.w3.org/2000/svg" viewBox="0 0 340.55 377.41"><title>schema_spock</title><text transform="translate(22.2 104.85)" style="font-size:10.492819786071777px;fill:#f24343;font-family:McLaren-Regular, McLaren">PIERRE</text><text transform="translate(265.36 104.85)" style="font-size:10.492819786071777px;fill:#4e2fbf;font-family:McLaren-Regular, McLaren">FEUILLE</text><text transform="translate(67.96 368.05)" style="font-size:10.492819786071777px;fill:#f2e74b;font-family:McLaren-Regular, McLaren">CISE<tspan x="24.41" y="0" style="letter-spacing:-0.009772307596105947em">A</tspan><tspan x="32.38" y="0">UX</tspan></text><text transform="translate(218.65 368.05)" style="font-size:10.492819786071777px;fill:#020772;font-family:McLaren-Regular, McLaren">SERPEN<tspan x="44.31" y="0" style="letter-spacing:-0.014704996192235614em">T</tspan></text><text transform="translate(147.55 15.48)" style="font-size:10.492819786071777px;fill:#f25ca2;font-family:McLaren-Regular, McLaren">SPOCK</text><path d="M138.72,302.18a43.35,43.35,0,1,1-43.34-43.34A43.34,43.34,0,0,1,138.72,302.18Z" style="fill:none;stroke:#f2e74b;stroke-miterlimit:10;stroke-width:1.7960200000000002px"/><path d="M83.16,326.42A27.2,27.2,0,0,1,71,313c-.11.28-.23.56-.34.85a40.14,40.14,0,0,0,10-9.1A118.16,118.16,0,0,0,89,293.31c2.39-3.77,4.3-7.77,6.47-11.66A33.17,33.17,0,0,1,99,276.3a14.27,14.27,0,0,1,2.25-2.28c1.27-1,1.72.56,1.4,1.59a18.31,18.31,0,0,1-1.51,3.12c-.52,1-1.06,1.95-1.57,2.93a34.44,34.44,0,0,0-2.62,6c-.5,1.63-1.23,4-.35,5.63,1.14,2.13,3.51.4,4.92-.43,3.87-2.29,7.64-4.85,11.83-6.55a27.68,27.68,0,0,1,3.18-1.08c.93-.25,2.72-.59,3.09.69.26.9-1.33,1.78-1.9,2.23-.91.7-1.83,1.37-2.76,2-1.92,1.36-3.91,2.62-5.94,3.8s-4.13,2.13-6.11,3.33c-1.2.73-4.18,2.56-2.37,4.2a3.62,3.62,0,0,0,2.16.6,2.12,2.12,0,0,1,2,1.42,2.59,2.59,0,0,1-1,2.7.74.74,0,0,0-.12.9,6,6,0,0,1,1,2.84,3.51,3.51,0,0,1-1.9,2.87c-.54.36-1.15.61-1.69,1a10.55,10.55,0,0,0-1.53,1.29c-1,.94-1.83,1.93-2.83,2.82-4.08,3.63-9,6.09-13.91,8.49-.86.43-.11,1.72.76,1.29a73.58,73.58,0,0,0,12-6.91,51.51,51.51,0,0,0,5-4.63c1.53-1.53,3.75-2.12,5-4s.47-4.1-.56-5.77c0,.3-.07.6-.11.9a3.88,3.88,0,0,0,.8-5.22,3.4,3.4,0,0,0-2.22-1.38c-.39-.06-.78-.06-1.17-.12s-.81-.09-.43-.56a10,10,0,0,1,3-2c1-.58,2.12-1.11,3.18-1.68,2.15-1.16,4.24-2.43,6.27-3.78a66.65,66.65,0,0,0,5.78-4.26,2.79,2.79,0,0,0,1.21-2.36,2.76,2.76,0,0,0-1.62-2.14,5,5,0,0,0-3.38,0,26.77,26.77,0,0,0-3.3,1.14,50.11,50.11,0,0,0-6.17,3.1c-2,1.18-4,2.43-6,3.61-.58.35-2.37,1.81-2.79.84a5.25,5.25,0,0,1,.15-3c1-4.56,3.82-8.33,5.71-12.52a4.22,4.22,0,0,0,.41-3.14,2.36,2.36,0,0,0-2-1.63,3.61,3.61,0,0,0-2.65,1.35,21.36,21.36,0,0,0-2.2,2.46c-2.74,3.51-4.55,7.59-6.66,11.48a98.08,98.08,0,0,1-8.07,12.38,58.75,58.75,0,0,1-9.79,10.68,27.67,27.67,0,0,1-2.89,2,.77.77,0,0,0-.34.85,28.85,28.85,0,0,0,12.8,14.31c.85.46,1.6-.83.76-1.3" style="fill:#f2e74b"/><path d="M215.59,72.28a43.35,43.35,0,1,1-43.35-43.34A43.34,43.34,0,0,1,215.59,72.28Z" style="fill:none;stroke:#f25ca2;stroke-miterlimit:10;stroke-width:1.7960200000000002px"/><path d="M163.66,47.86a2.39,2.39,0,0,0,.13.21.75.75,0,0,0,1.36-.18c.18-.9.1-1.81.26-2.7.13-.73.82-1.88,1.61-1.12,1.13,1.1,1.27,3.21,1.49,4.67a62.43,62.43,0,0,0,2.75,11.11c.48,1.37.93,3.22,2.24,4.06s2.65,0,3.31-1.19c.87-1.65,1.5-3.47,2.23-5.19.81-1.9,1.61-3.81,2.42-5.71.43-1,.85-2,1.27-3,.34-.79.69-2,1.54-2.45,1.11-.51,1.27.9,1.34,1.67a8.1,8.1,0,0,1-.36,3.24.76.76,0,0,0,.93.92,1.58,1.58,0,0,1,1.83.9,4.15,4.15,0,0,1-.12,3.15c-.63,2-1.34,3.88-1.88,5.87a69.89,69.89,0,0,0-2.12,12.19c-.38,4.32-.52,8.66-.73,13L182.83,94c-.05,1-.09,2-.14,3,0,.46.09,1.22-.25,1.58a3,3,0,0,1-1.37.5,34.57,34.57,0,0,1-14.1.75l.52.92a36.73,36.73,0,0,0,.37-5.84c0-1.87,0-3.68-1.57-4.92-1.27-1-2.8-1.5-4-2.55a20,20,0,0,1-3-3.38c-1.83-2.5-3.37-5.23-5.42-7.56a15.83,15.83,0,0,0-3.41-3c-.59-.36-1.72-.8-1.34-1.68.44-1,1.89-.91,2.78-.77a12.51,12.51,0,0,1,9.08,6.53.76.76,0,0,0,1.37-.18,48,48,0,0,0,.37-13c-.48-4.33-1.51-8.63-1.45-13a22.28,22.28,0,0,1,.25-3.06c.1-.59.17-1.6.91-1.71a.6.6,0,0,1,.46.2,3.3,3.3,0,0,1,.67,1,21.47,21.47,0,0,1,1.37,5.82c.58,4.05,1.21,8.06,1.44,12.15.05,1,1.55,1,1.5,0-.24-4.13-.87-8.17-1.46-12.26a23.36,23.36,0,0,0-1.51-6.35,3.37,3.37,0,0,0-1.88-2A2.33,2.33,0,0,0,160.17,47a20.25,20.25,0,0,0-.41,6.59c.14,2.36.52,4.71.88,7.06A51.93,51.93,0,0,1,160.83,77l1.36-.18A14,14,0,0,0,153.94,70c-1.68-.52-4.06-1-5.53.24a2.61,2.61,0,0,0-.95,2,2.68,2.68,0,0,0,1.43,2.11,18.06,18.06,0,0,1,3.84,3.18,38.42,38.42,0,0,1,3,4.07c1.81,2.69,3.61,5.5,6.23,7.48a19.92,19.92,0,0,0,2.47,1.48,2.93,2.93,0,0,1,1.9,2.41,29.23,29.23,0,0,1,0,4,27.48,27.48,0,0,1-.26,3.39.76.76,0,0,0,.52.92,36.88,36.88,0,0,0,13.81-.48,8.53,8.53,0,0,0,2.8-.91c.92-.61.94-1.59,1-2.59l.36-7.4c.24-4.88.4-9.77.78-14.64a68.67,68.67,0,0,1,2.53-14c.37-1.26.79-2.5,1.22-3.74a8.39,8.39,0,0,0,.68-3.66c-.21-1.86-2-3.68-4-3,.3.31.61.62.92.92a8.28,8.28,0,0,0,0-5.68c-.79-1.64-2.88-1.47-4-.24a8.18,8.18,0,0,0-1.24,2.31l-1.38,3.27q-1.31,3-2.6,6.11c-.41,1-.81,1.91-1.22,2.86-.26.62-.63,2.17-1.39,2.43s-1.25-.94-1.46-1.45c-.44-1-.79-2.11-1.13-3.17a60.67,60.67,0,0,1-1.67-6.22c-.41-1.95-.57-4-1.06-5.9-.39-1.52-1.42-4.12-3.46-3.65a2.92,2.92,0,0,0-1.9,1.76c-.44,1.08-.24,2.27-.46,3.38l1.37-.18-.13-.2a.75.75,0,0,0-1.29.75" style="fill:#f25ca2"/><path d="M185.34,51.1a82.29,82.29,0,0,0-5.53,15.78c-.22.94,1.22,1.34,1.45.4a79.72,79.72,0,0,1,5.38-15.43c.4-.86-.89-1.62-1.3-.75" style="fill:#f25ca2"/><path d="M289.7,301.58a43.34,43.34,0,1,1-43.34-43.34A43.34,43.34,0,0,1,289.7,301.58Z" style="fill:none;stroke:#020772;stroke-miterlimit:10;stroke-width:1.7960200000000002px"/><path d="M219.82,315.76c4.75-2.52,7.67-7.36,9.28-12.34a71.65,71.65,0,0,0,2.13-9.5,36.66,36.66,0,0,1,.91-4.69c.46-1.43,2.12-2,3.38-2.51a41.94,41.94,0,0,1,8.93-2.53,74.36,74.36,0,0,1,9.6-1.33,25.68,25.68,0,0,1,8.63,1.06,26.29,26.29,0,0,1,4.2,1.68c1.17.6,2.8,1.31,3.58,2.43.48.68.11,1-.5,1.35l-2.24,1.41a3.42,3.42,0,0,0-.77.59c-.19.2-.12.27-.46.35a20.77,20.77,0,0,1-2.5.27c-1.7.16-3.41.29-5.12.33s-3.32-.07-5-.09a27.05,27.05,0,0,0-9.56,1.87,2.34,2.34,0,0,0-1.85,2.56c.18,1.37,1.37,2.27,2.41,3,2.24,1.66,5.36,3.35,8.19,2.3a14.77,14.77,0,0,0,3.66-2.23,32.11,32.11,0,0,0,3.31-2.87,18.35,18.35,0,0,1,3-2.94c1-.6,3.28-.48,2.82,1.1a21.19,21.19,0,0,1-1.66,3.74,27.76,27.76,0,0,1-2.29,3.57c-3.72,4.94-8.84,8.57-14,11.93-2.55,1.67-5.15,3.65-8.13,4.46a30.62,30.62,0,0,0-4.43,1.24,16.19,16.19,0,0,0-3.46,2.19c-1.1.88-2.12,1.85-3.13,2.83l.91-.12a31.28,31.28,0,0,1-10.16-9.86c-.52-.81-1.82-.06-1.29.75a32.89,32.89,0,0,0,10.69,10.4.76.76,0,0,0,.91-.11c2.48-2.4,5-4.67,8.46-5.44a20.23,20.23,0,0,0,5-1.7c1.62-.85,3.14-1.9,4.68-2.9,5.85-3.82,11.71-7.92,15.77-13.72a26.55,26.55,0,0,0,2.47-4.34c.51-1.15,1.48-2.7,1.12-4-.41-1.48-2.3-2-3.64-1.82a6,6,0,0,0-3.47,2.36,31.55,31.55,0,0,1-3.8,3.6c-1.29,1-2.83,2.32-4.48,2.66-1.82.38-3.75-.69-5.24-1.62-.66-.42-4.09-2.64-2.31-3.49a21,21,0,0,1,3-1,26.4,26.4,0,0,1,3-.74,36.69,36.69,0,0,1,6.63-.1,55.81,55.81,0,0,0,6.59-.31c1-.09,2-.14,3-.31a1.85,1.85,0,0,0,1.61-1.26l-.35.45,1.87-1.18a11.81,11.81,0,0,0,1.73-1.15,2.1,2.1,0,0,0,.18-2.8,8.3,8.3,0,0,0-2.89-2.29,27.79,27.79,0,0,0-3.38-1.65,27.16,27.16,0,0,0-7.73-1.88,35.13,35.13,0,0,0-8.38.44c-5.44.79-11,1.69-15.94,4.15a4.76,4.76,0,0,0-2.57,2.34,20.3,20.3,0,0,0-.9,4.16c-.51,2.88-1,5.77-1.75,8.59-1.42,5.3-4.11,10.67-9.14,13.34-.86.45-.1,1.74.75,1.29" style="fill:#020772"/><path d="M249.72,283.43A29.11,29.11,0,0,1,260,284.59a24.25,24.25,0,0,1,4.77,2.05,22.6,22.6,0,0,1,2.07,1.32c.55.4,1.88,1.18,1.74,2s-1.79.67-2.4.57a19.83,19.83,0,0,1-2.7-.79,23.71,23.71,0,0,0-5.55-1,18.38,18.38,0,0,0-5.59,0,13.09,13.09,0,0,0-2.33,1,17.4,17.4,0,0,1-2.9,1c-1.7.45-3.5,1.05-4.56,2.56a3.42,3.42,0,0,0,.28,4.39c.7.66,1.76-.4,1.06-1.06-1.39-1.32.15-3.08,1.41-3.7,1.65-.82,3.55-1,5.23-1.77a9.3,9.3,0,0,1,2.61-1,16.26,16.26,0,0,1,3,0,27,27,0,0,1,6.07.79c1.76.49,3.5,1.34,5.37,1.17a2.88,2.88,0,0,0,2.16-1,2.26,2.26,0,0,0,.18-2.17c-.62-1.45-2.43-2.46-3.72-3.25a24.71,24.71,0,0,0-4.71-2.22,30,30,0,0,0-11.74-1.57c-1,.06-1,1.55,0,1.5" style="fill:#020772"/><path d="M265.69,290.44c-3.44.06-6.87,0-10.31.16-1.59.06-3.19.15-4.78.32a8,8,0,0,1-3.42,0c-.9-.34-1.29,1.1-.4,1.44a7.86,7.86,0,0,0,3.48.09c1.61-.17,3.23-.28,4.85-.34,3.52-.15,7.05-.11,10.58-.17a.75.75,0,0,0,0-1.5" style="fill:#020772"/><path d="M267.65,170c.8-.39,1.69-.53,2.5-.92a3.79,3.79,0,0,0,1.83-2.24,30.58,30.58,0,0,0,1-3.92c.33-1.38.66-2.75,1-4.13a18,18,0,0,1,3-6.8,16.53,16.53,0,0,1,5.44-4.6,19.35,19.35,0,0,1,8.54-2.18.75.75,0,0,0,0-1.49,19.84,19.84,0,0,0-13.7,5.67,17.12,17.12,0,0,0-3.83,6,74.68,74.68,0,0,0-2.12,8.23c-.28,1.17-.47,3.17-1.53,3.91a19,19,0,0,1-2.89,1.13c-.87.42-.11,1.71.76,1.3" style="fill:#4e2fbf"/><path d="M277.48,155.46a98.39,98.39,0,0,0,18.35-13.52c2.6-2.42,5.05-5.12,8.22-6.82a5.64,5.64,0,0,1,2.65-.88c.89,0,1.64.69,1.22,1.6a6.93,6.93,0,0,1-1.69,1.85L303.84,140q-5.22,4.91-10.42,9.83c-.71.66.35,1.72,1.06,1.05l10.2-9.62,2.39-2.25a11.35,11.35,0,0,0,2-2.18,2.55,2.55,0,0,0-1.32-3.84c-1.88-.69-4,.54-5.57,1.52a31.44,31.44,0,0,0-4.46,3.59c-3,2.79-5.91,5.58-9.11,8.1a95.36,95.36,0,0,1-11.91,8,.75.75,0,0,0,.75,1.3" style="fill:#4e2fbf"/><path d="M309.4,136.41a5.63,5.63,0,0,1,2.93-.52c1.14.23.28,1.67-.08,2.26a34.45,34.45,0,0,1-4.32,5l-9.65,10.51c-.65.71.4,1.78,1.06,1.06L311,142.06c1.36-1.49,3.66-3.65,3.37-5.89-.33-2.54-3.76-1.83-5.36-1.2-.89.35-.5,1.8.39,1.44" style="fill:#4e2fbf"/><path d="M312.19,141.06c.76-.58,1.79-.72,2.22.34s-.38,2.45-.89,3.38a29.67,29.67,0,0,1-4,5.62c-1.59,1.75-3.38,3.32-4.94,5.1-1.16,1.32-2.43,2.52-3.64,3.78-.67.7.39,1.75,1.06,1.06q2.29-2.39,4.56-4.8a82,82,0,0,0,5.82-6.26,30.55,30.55,0,0,0,2.32-3.52,7.7,7.7,0,0,0,1.33-3.83,2.79,2.79,0,0,0-4.58-2.16c-.76.57,0,1.87.76,1.29" style="fill:#4e2fbf"/><path d="M312.18,149.19c2,.41,1.65,2.86.89,4.15a17,17,0,0,1-1.86,2.39l-2.42,2.79q-4.77,5.53-9.55,11.06a34.48,34.48,0,0,1-4.69,4.59c-1.9,1.51-3.84,3-5.76,4.49l-2.59,2-1.41,1.1c-.56.43-.86.62-1.56.33a70.35,70.35,0,0,1-6.43-3.1c-4.06-2.23-6.53-6.16-8.88-10a.75.75,0,0,0-1.3.76c2.29,3.74,4.72,7.61,8.5,10a61.68,61.68,0,0,0,7,3.45c.95.45,1.85.86,2.85.3a26.25,26.25,0,0,0,3-2.32c4.11-3.19,8.52-6.17,12-10.11s7.07-8.18,10.6-12.26c.94-1.09,1.92-2.17,2.82-3.29a8.39,8.39,0,0,0,1.7-3c.5-1.9-.37-4.34-2.47-4.77-.94-.2-1.34,1.25-.4,1.44" style="fill:#4e2fbf"/><path d="M267.42,170a5.25,5.25,0,0,0,4.05-2.71c1-1.78,1.2-3.89,1.58-5.88.74-3.86,2.09-7.68,4.92-10.51a19.52,19.52,0,0,1,10.38-5.26c.8-.13,1.63-.11,2.42-.29a6.27,6.27,0,0,0,2.46-1.23c1.55-1.18,3-2.53,4.44-3.83a45.35,45.35,0,0,1,5.45-4.44,8.66,8.66,0,0,1,2.82-1.4c.86-.15,2.54-.11,2.55,1.11a.76.76,0,0,0,1.13.65c.76-.57,2.1-1,2.92-.27,1.19,1.06-.38,2.86-1.11,3.66a.76.76,0,0,0,.91,1.18,1.82,1.82,0,0,1,1.81.23,1.74,1.74,0,0,1,.68,1.91,9.59,9.59,0,0,1-1.21,2.67c-.5.9-1.06,1.78-1.65,2.63a.76.76,0,0,0,.45,1.1,2.23,2.23,0,0,1,1.58,1.9c.1,1.05-.72,2-1.28,2.82q-2,2.82-4.09,5.5a113.27,113.27,0,0,1-9,10,110.38,110.38,0,0,1-10.1,8.86c-.89.7-1.8,1.37-2.71,2l-1.25.89a5.76,5.76,0,0,1-1.52,1c-.59.17-1.33-.36-1.86-.61l-1.69-.8-3.45-1.63a18.92,18.92,0,0,1-5.91-4.09,15.56,15.56,0,0,1-3.46-6.06.75.75,0,0,0-1.44.4,17.34,17.34,0,0,0,8.63,10.32c2.4,1.27,4.9,2.37,7.35,3.52a3.67,3.67,0,0,0,1.64.51,3.2,3.2,0,0,0,1.73-.74c1-.71,2-1.43,3-2.17A113.08,113.08,0,0,0,310.08,160c.84-1,1.65-2.13,2.44-3.21a32.39,32.39,0,0,0,2.38-3.44,3.76,3.76,0,0,0-2.08-5.57l.45,1.1a30.12,30.12,0,0,0,2.3-3.87,5.07,5.07,0,0,0,.7-3.61,3.42,3.42,0,0,0-4.69-2l.91,1.17c1.32-1.45,2.92-3.85,1.23-5.65-1.25-1.33-3.5-1.11-4.86-.09l1.13.64c0-2-2.05-2.78-3.78-2.64-1.93.16-3.71,1.48-5.21,2.61-1.75,1.32-3.37,2.78-5,4.24-.79.72-1.58,1.43-2.39,2.11a11.17,11.17,0,0,1-2.37,1.73,8.29,8.29,0,0,1-2.66.49,17.84,17.84,0,0,0-3,.67,21.66,21.66,0,0,0-5.51,2.53,18.12,18.12,0,0,0-7.33,9.35,47,47,0,0,0-1.6,6.93c-.39,2-1.32,4.73-3.74,4.92-1,.08-1,1.58,0,1.5" style="fill:#4e2fbf"/><path d="M277.79,155.14a77.58,77.58,0,0,0,15.12-10.84c.73-.64-.34-1.7-1.06-1.06A75.53,75.53,0,0,1,277,153.84c-.85.45-.1,1.74.76,1.3" style="fill:#4e2fbf"/><path d="M294.57,150.7A169.54,169.54,0,0,0,309.69,136c.64-.71-.41-1.77-1.06-1.06a169.54,169.54,0,0,1-15.12,14.73c-.73.63.33,1.69,1.06,1.06" style="fill:#4e2fbf"/><path d="M299.39,154.51c4.31-4.69,8.8-9.21,13.1-13.9.65-.71-.41-1.77-1.06-1.06-4.3,4.69-8.79,9.21-13.1,13.9-.65.71.41,1.77,1.06,1.06" style="fill:#4e2fbf"/><path d="M302,160.39q3.42-3.49,6.77-7.06a77,77,0,0,0,6-6.85c.56-.78-.73-1.53-1.3-.76a73.58,73.58,0,0,1-6,6.75q-3.27,3.47-6.59,6.86c-.68.69.38,1.75,1.06,1.06" style="fill:#4e2fbf"/><path d="M91.78,159.81a43.34,43.34,0,1,1-43.34-43.34A43.33,43.33,0,0,1,91.78,159.81Z" style="fill:none;stroke:#f24343;stroke-miterlimit:10;stroke-width:1.7960200000000002px"/><path d="M18.79,165.72a44.75,44.75,0,0,0,12-4.1,10.72,10.72,0,0,0,4.24-3.57,27.24,27.24,0,0,0,2.36-5,94.29,94.29,0,0,1,4.24-10.24c1.72-3.16,4.28-6.58,8-7.38a23.45,23.45,0,0,1,7.29,0,11.62,11.62,0,0,1,3.51.67c.72.32,1.58,1.31.79,2a.76.76,0,0,0,.32,1.26,5,5,0,0,1,3,6.08.77.77,0,0,0,.52.92A2.79,2.79,0,0,1,66.76,150a.75.75,0,0,0,.27,1,2.6,2.6,0,0,1,.91,3.78.75.75,0,0,0,.65,1.12c.41,0,.64.35.64.74a2.07,2.07,0,0,1-.77,1.31c-.89.88-1.89,1.67-2.83,2.49-1.91,1.66-3.81,3.33-5.72,5A86.57,86.57,0,0,1,48.67,174a44.83,44.83,0,0,1-6.41,3.25,42.23,42.23,0,0,0-6.6,3.1,27.3,27.3,0,0,0-2.84,2.05c-.29.24-.86.95-1.2.84s-1-.78-1.29-1.06a53.88,53.88,0,0,1-4.63-4.44,25.5,25.5,0,0,1-6.79-12.65c-.12.28-.23.56-.35.85l.41-.26c.8-.52.05-1.82-.76-1.3l-.4.26a.79.79,0,0,0-.35.85A26.24,26.24,0,0,0,23.92,178a51.35,51.35,0,0,0,5.26,5.17c.72.62,1.67,1.76,2.71,1.64a2.25,2.25,0,0,0,1.18-.64c.56-.48,1.11-1,1.7-1.4A32,32,0,0,1,42,178.92a50.25,50.25,0,0,0,7.18-3.52,91.83,91.83,0,0,0,12.56-9.56c2.43-2.1,4.86-4.2,7.26-6.33a3.83,3.83,0,0,0,1.69-3,2.11,2.11,0,0,0-2.12-2.06c.22.38.43.76.65,1.13a4.09,4.09,0,0,0-1.46-5.82l.27,1a4.3,4.3,0,0,0-2.55-5.92l.52.92a6.55,6.55,0,0,0-4-7.93l.33,1.25c1.32-1.16.72-3.19-.58-4.08a6.74,6.74,0,0,0-2.83-.91c-1.18-.17-2.36-.31-3.54-.39a19.7,19.7,0,0,0-6.72.39,11.56,11.56,0,0,0-5.11,3.43c-2.65,2.88-4.25,6.49-5.64,10.09-.71,1.84-1.37,3.7-2.11,5.53s-1.6,4.09-3.18,5.53a20.51,20.51,0,0,1-6.53,3.42,45.57,45.57,0,0,1-7.67,2.17c-.95.18-.55,1.62.4,1.44" style="fill:#f24343"/><path d="M54.58,138.78A8.87,8.87,0,0,1,58,139a11.5,11.5,0,0,0,3.55.36.75.75,0,1,0,0-1.49,9.64,9.64,0,0,1-1.86-.05,16.21,16.21,0,0,1-1.68-.36,10.17,10.17,0,0,0-3.85-.12.75.75,0,0,0-.52.92.77.77,0,0,0,.92.52" style="fill:#f24343"/><path d="M60.6,143.86a2.57,2.57,0,0,1,1.26.16,4.68,4.68,0,0,1,1.13.65c.07.05.29.23.42.35l.5.47a2.88,2.88,0,0,0,1.25.78.77.77,0,0,0,.93-.53.76.76,0,0,0-.53-.91l-.14,0c.1,0,0,0,0,0l-.13-.08c-.1-.06.07.06,0,0s-.32-.3-.48-.45a11.27,11.27,0,0,0-1.19-1,4.6,4.6,0,0,0-2.95-.87.75.75,0,1,0,0,1.5" style="fill:#f24343"/><line x1="259.95" y1="259.85" x2="276.21" y2="209.32" style="fill:none;stroke:#020772;stroke-miterlimit:10;stroke-width:1.7960200000000002px"/><polyline points="270.31 211.25 276.67 207.88 279.97 214.16" style="fill:none;stroke:#020772;stroke-linecap:round;stroke-linejoin:round;stroke-width:2.6232px"/><line x1="138.69" y1="300.75" x2="194.24" y2="301.01" style="fill:none;stroke:#f2e74b;stroke-miterlimit:10;stroke-width:1.7960200000000002px"/><polyline points="190.61 295.98 195.75 301.01 190.77 306.06" style="fill:none;stroke:#f2e74b;stroke-linecap:round;stroke-linejoin:round;stroke-width:2.6232px"/><line x1="232.71" y1="260.75" x2="187.71" y2="125.39" style="fill:none;stroke:#020772;stroke-miterlimit:10;stroke-width:1.7960200000000002px"/><polyline points="184.07 130.42 187.24 123.96 193.6 127.1" style="fill:none;stroke:#020772;stroke-linecap:round;stroke-linejoin:round;stroke-width:2.6232px"/><line x1="248.89" y1="158.79" x2="106.25" y2="159.1" style="fill:none;stroke:#4e2fbf;stroke-miterlimit:10;stroke-width:1.7960200000000002px"/><polyline points="111.45 164.13 106.31 159.1 111.29 154.05" style="fill:none;stroke:#4e2fbf;stroke-linecap:round;stroke-linejoin:round;stroke-width:2.6232px"/><line x1="258.15" y1="132.88" x2="220.58" y2="105.31" style="fill:none;stroke:#4e2fbf;stroke-miterlimit:10;stroke-width:1.7960200000000002px"/><polyline points="220.52 111.52 219.37 104.42 226.37 103.3" style="fill:none;stroke:#4e2fbf;stroke-linecap:round;stroke-linejoin:round;stroke-width:2.6232px"/><line x1="157.68" y1="113.11" x2="113.12" y2="253.36" style="fill:none;stroke:#f25ca2;stroke-miterlimit:10;stroke-width:1.7960200000000002px"/><polyline points="119.02 251.43 112.66 254.79 109.36 248.52" style="fill:none;stroke:#f25ca2;stroke-linecap:round;stroke-linejoin:round;stroke-width:2.6232px"/><line x1="135.65" y1="95.77" x2="91.56" y2="128.29" style="fill:none;stroke:#f25ca2;stroke-miterlimit:10;stroke-width:1.7960200000000002px"/><polyline points="97.47 130.18 90.35 129.19 91.36 122.17" style="fill:none;stroke:#f25ca2;stroke-linecap:round;stroke-linejoin:round;stroke-width:2.6232px"/><line x1="84.39" y1="184.04" x2="202.65" y2="270.51" style="fill:none;stroke:#ef4343;stroke-miterlimit:10;stroke-width:1.7960200000000002px"/><polyline points="202.69 264.31 203.86 271.4 196.86 272.54" style="fill:none;stroke:#ef4343;stroke-linecap:round;stroke-linejoin:round;stroke-width:2.6232px"/><line x1="130.28" y1="276.76" x2="245.39" y2="192.51" style="fill:none;stroke:#f2e74b;stroke-miterlimit:10;stroke-width:1.7960200000000002px"/><polyline points="239.49 190.59 246.61 191.63 245.56 198.64" style="fill:none;stroke:#f2e74b;stroke-linecap:round;stroke-linejoin:round;stroke-width:2.6232px"/><line x1="63.05" y1="201.62" x2="80.5" y2="251.71" style="fill:none;stroke:#ef4343;stroke-miterlimit:10;stroke-width:1.7960200000000002px"/><polyline points="84.06 246.63 80.99 253.13 74.59 250.08" style="fill:none;stroke:#ef4343;stroke-linecap:round;stroke-linejoin:round;stroke-width:2.6232px"/><path d="M335.33,159c0,24.35-19.14,44.1-42.75,44.1s-42.75-19.75-42.75-44.1,19.14-44.1,42.75-44.1S335.33,134.67,335.33,159Z" style="fill:none;stroke:#4e2fbf;stroke-miterlimit:10;stroke-width:1.79936px"/></svg>