<svg id="Calque_1" data-name="Calque 1" xmlns="http://www.w3.org/2000/svg" viewBox="0 0 199.22 247.66"><title>schema_esquive</title><path d="M174.08,8.18c7.79.33,14.29,3,19.49,8.58a15,15,0,0,1,1.73,2.45,4.55,4.55,0,0,1,0,4.91,16,16,0,0,1-3.6,4.27,26.87,26.87,0,0,1-13.25,6.26,25.28,25.28,0,0,1-15.58-2.33A24,24,0,0,1,155,26.5a18.61,18.61,0,0,1-1.72-2.42,4.57,4.57,0,0,1,0-5A16.65,16.65,0,0,1,157,14.72a27,27,0,0,1,13-6.1C171.46,8.38,172.89,8.31,174.08,8.18Zm8.56,13.46A8.36,8.36,0,1,0,174.27,30,8.35,8.35,0,0,0,182.64,21.64Zm-16.51,8.42a11.76,11.76,0,0,1,0-16.85l-.19,0a22.93,22.93,0,0,0-8,5.22,9.85,9.85,0,0,0-1.91,2.62,1,1,0,0,0,0,1.1,17.34,17.34,0,0,0,1.49,2.17A21.85,21.85,0,0,0,165.86,30Zm16.39-16.85A11.9,11.9,0,0,1,186,21.63a11.66,11.66,0,0,1-3.58,8.45l.27-.08A23,23,0,0,0,190.47,25a10.06,10.06,0,0,0,2.05-2.79,1,1,0,0,0,0-1.06A19,19,0,0,0,191,18.9a21.86,21.86,0,0,0-8.32-5.64Z" style="fill:#0410f2"/><path d="M173.19,21.61a5,5,0,1,1,5,5A5,5,0,0,1,173.19,21.61Zm6.68-3.32A1.67,1.67,0,0,0,178.2,20a1.68,1.68,0,0,0,1.69,1.67,1.67,1.67,0,0,0,0-3.34Z" style="fill:#0410f2"/><path d="M125.4,23.72c.07,3.43.12,6.17.19,9.6a4.29,4.29,0,0,1-4.23,4.47c-2.82.08-5.65.13-8.48.17a4.17,4.17,0,0,1-3.08-1.25l-7.71-7.53a1.81,1.81,0,0,1-.28-2.51,2,2,0,0,1,2.68-.42,2.51,2.51,0,0,1,.4.33l2.94,2.82a1.16,1.16,0,0,0,.24.2c.19.11.34.07.38-.17a2.06,2.06,0,0,0,0-.43c-.11-5.92-.34-15.82-.46-21.73a1.94,1.94,0,0,1,1.53-2,1.91,1.91,0,0,1,2.31,1.79v.34c.06,2.9.23,9.79.29,12.69a.72.72,0,0,0,0,.33c0,.1.18.22.26.21a.43.43,0,0,0,.28-.22.77.77,0,0,0,0-.34c0-1.08,0-.6,0-1.53a1.9,1.9,0,0,1,3.77-.41,4.84,4.84,0,0,1,0,.53c0,.94,0,.6,0,1.34,0,.24,0,.54.3.55s.3-.32.3-.57c0-.7,0-1,0-1.47a1.9,1.9,0,0,1,3.78-.31c0,.14,0,.29,0,.43,0,.58,0,.72,0,1.22a2.44,2.44,0,0,0,0,.28.34.34,0,0,0,.29.33c.21,0,.3-.14.31-.34s0-.17,0-.25c0-.33,0-.7,0-.83a1.89,1.89,0,0,1,3.62-.79,2.36,2.36,0,0,1,.17.87c.08,3.49.09,3,.11,3.9" style="fill:#f25ca2"/><path d="M6.16,25.22c0,1.1-.67,2.27-1.75,2.27-.9,0-1.55-1.34-1.55-1.72L3,24.6l-.23-1.13.11-6.42L3,15.94,2.72,13v-.24a1.7,1.7,0,0,1,1.51-1.83c1.23,0,1.7,2,1.7,2L6,13.7,5.84,15,5.72,17.4l-.06,3.35.41,2.92.09,1.4Z" style="fill:#f25ca2"/><path d="M13.74,29.56c-.2,1.37-.61,3.12-1.81,3.12A1.64,1.64,0,0,1,10.09,31c0-.7,1.14-2.13,1.14-3.09a.83.83,0,0,0-.38-.73,4.18,4.18,0,0,0-.9-.44c-.56-.35-.61-.46-.61-1.43,0-1.4.81-3,2.36-3,1.25,0,2.21,2.07,2.21,2.07l0,.55.18.38.06.73.26,1.14A20.34,20.34,0,0,0,13.74,29.56Z" style="fill:#f25ca2"/><path d="M41.47,26.24l-3.35.14-3.39.41h-.11a1.32,1.32,0,0,1-1.23-1.34.74.74,0,0,1,0-.26,6.89,6.89,0,0,1,.82-3l.67-1.14.17-.75,1.26-2,.49-1.23a8.15,8.15,0,0,0,.88-1.37c0-1.11-.5-2.07-1.2-2.07l-1.43.09-.43.41-2.42,1.42c-.3.38-1.14,1.49-1.58,1.49a1.6,1.6,0,0,1-1.52-1.57,4,4,0,0,1,2.31-3.33l1.28-.46.7-.38,1-.29,1-.33.5-.17.93.06,1.43.11a4.35,4.35,0,0,1,2.45,3.94c0,3.68-3,6.88-3,8a.51.51,0,0,0,.49.47l1.14-.32h.7l.61-.18,1.9.24c.76.14,1.48.87,1.48,1.37C44.06,25.27,42.87,26.12,41.47,26.24Z" style="fill:#f25ca2"/><path d="M49.08,26.85A2,2,0,0,1,46.89,25a1.61,1.61,0,0,1,1.66-1.72l1.58-.11.44.35c.35.14,1.08.46,1.08,1.22A2.53,2.53,0,0,1,49.08,26.85Z" style="fill:#f25ca2"/><path d="M57.42,26.85A2,2,0,0,1,55.23,25a1.61,1.61,0,0,1,1.66-1.72l1.58-.11.44.35c.35.14,1.08.46,1.08,1.22A2.53,2.53,0,0,1,57.42,26.85Z" style="fill:#f25ca2"/><path d="M65.76,26.85A2,2,0,0,1,63.57,25a1.61,1.61,0,0,1,1.66-1.72l1.58-.11.44.35c.35.14,1.08.46,1.08,1.22A2.53,2.53,0,0,1,65.76,26.85Z" style="fill:#f25ca2"/><path d="M173.85,60.84c7.79.32,14.29,3,19.48,8.58a14.59,14.59,0,0,1,1.74,2.44,4.55,4.55,0,0,1,0,4.91,16.31,16.31,0,0,1-3.6,4.28,27,27,0,0,1-13.26,6.26A25.31,25.31,0,0,1,162.62,85a24,24,0,0,1-7.87-5.82A18.22,18.22,0,0,1,153,76.73a4.59,4.59,0,0,1,0-5,16.59,16.59,0,0,1,3.74-4.39,27,27,0,0,1,13-6.1C171.23,61,172.66,61,173.85,60.84Zm8.55,13.45A8.36,8.36,0,1,0,174,82.64,8.34,8.34,0,0,0,182.4,74.29Zm-16.51,8.42a11.78,11.78,0,0,1,0-16.85l-.19,0a22.86,22.86,0,0,0-8,5.21,9.75,9.75,0,0,0-1.91,2.63,1.06,1.06,0,0,0,0,1.1A18,18,0,0,0,157.31,77a21.85,21.85,0,0,0,8.31,5.65A1.24,1.24,0,0,0,165.89,82.71Zm16.39-16.84a11.82,11.82,0,0,1,3.47,8.41,11.67,11.67,0,0,1-3.57,8.45l.27-.08a22.91,22.91,0,0,0,7.78-5.05,10,10,0,0,0,2.05-2.78,1,1,0,0,0,0-1.07,17.48,17.48,0,0,0-1.51-2.2,22.05,22.05,0,0,0-8.31-5.64Z" style="fill:#f25ca2"/><path d="M169,69.45a5,5,0,1,1,5,5A5,5,0,0,1,169,69.45Zm6.69-3.33a1.67,1.67,0,1,0,1.66,1.68A1.65,1.65,0,0,0,175.72,66.12Z" style="fill:#f25ca2"/><path d="M111,86.21l-9.6.1A4.29,4.29,0,0,1,97,82c0-2.82-.07-5.65-.09-8.48a4.16,4.16,0,0,1,1.28-3.07l7.59-7.65a1.84,1.84,0,0,1,2.52-.25,2,2,0,0,1,.4,2.68,2.66,2.66,0,0,1-.34.4l-2.84,2.91a1.11,1.11,0,0,0-.2.24c-.12.19-.08.34.16.38a3.1,3.1,0,0,0,.43,0c5.92-.06,15.82-.2,21.73-.26a1.94,1.94,0,0,1,2,1.55,1.91,1.91,0,0,1-1.81,2.29h-.34L114.77,73a.75.75,0,0,0-.34,0c-.1,0-.22.18-.21.26a.43.43,0,0,0,.22.28.77.77,0,0,0,.34,0c1.08,0,.6,0,1.53,0a1.91,1.91,0,0,1,.37,3.79h-.53c-.93,0-.59,0-1.34,0-.23,0-.54,0-.55.3s.32.3.56.3l1.48,0a1.9,1.9,0,0,1,.28,3.79h-.44c-.57,0-.71,0-1.22,0h-.27a.33.33,0,0,0-.33.29c0,.21.13.3.33.31h.25l.83,0a1.89,1.89,0,0,1,.76,3.63,2.37,2.37,0,0,1-.88.16c-3.49.05-3,.06-3.9.07" style="fill:#0410f2"/><path d="M6.39,77.87c0,1.11-.67,2.27-1.74,2.27-.91,0-1.55-1.34-1.55-1.72l.09-1.16L3,76.12l.12-6.41.2-1.11L3,65.65v-.23a1.72,1.72,0,0,1,1.52-1.84c1.22,0,1.69,2,1.69,2l.12.81-.21,1.26L6,70.06,5.9,73.41l.41,2.91.08,1.4Z" style="fill:#0410f2"/><path d="M14,82.21c-.21,1.37-.62,3.12-1.81,3.12a1.64,1.64,0,0,1-1.84-1.72c0-.7,1.14-2.12,1.14-3.09a.85.85,0,0,0-.38-.73,4.16,4.16,0,0,0-.9-.43c-.56-.35-.62-.47-.62-1.43,0-1.4.82-3,2.36-3C13.19,75,14.15,77,14.15,77l0,.56.17.38.06.73.27,1.13A19,19,0,0,0,14,82.21Z" style="fill:#0410f2"/><path d="M41.71,78.89,38.35,79l-3.38.4h-.12a1.31,1.31,0,0,1-1.22-1.34.8.8,0,0,1,0-.26,6.72,6.72,0,0,1,.81-2.94l.67-1.14.18-.76,1.25-2,.5-1.23a7.77,7.77,0,0,0,.87-1.37c0-1.1-.49-2.07-1.19-2.07l-1.43.09-.44.41-2.42,1.43c-.29.38-1.13,1.49-1.57,1.49a1.6,1.6,0,0,1-1.52-1.58,4,4,0,0,1,2.31-3.32L33,64.34l.7-.38,1-.29,1-.32.49-.18.94.06,1.43.12A4.35,4.35,0,0,1,41,67.29c0,3.67-3,6.88-3,8a.51.51,0,0,0,.5.46l1.14-.32h.7l.61-.17,1.89.23c.76.15,1.49.87,1.49,1.37C44.3,77.93,43.11,78.77,41.71,78.89Z" style="fill:#0410f2"/><path d="M49.32,79.5a2,2,0,0,1-2.19-1.89,1.6,1.6,0,0,1,1.66-1.72l1.58-.12.43.35c.35.15,1.08.47,1.08,1.22A2.52,2.52,0,0,1,49.32,79.5Z" style="fill:#0410f2"/><path d="M57.66,79.5a2,2,0,0,1-2.19-1.89,1.6,1.6,0,0,1,1.66-1.72l1.58-.12.43.35c.35.15,1.08.47,1.08,1.22A2.52,2.52,0,0,1,57.66,79.5Z" style="fill:#0410f2"/><path d="M66,79.5a2,2,0,0,1-2.19-1.89,1.6,1.6,0,0,1,1.66-1.72l1.58-.12.43.35c.35.15,1.08.47,1.08,1.22A2.52,2.52,0,0,1,66,79.5Z" style="fill:#0410f2"/><path d="M174.08,109.48c7.79.33,14.29,3,19.49,8.58a15,15,0,0,1,1.73,2.45,4.55,4.55,0,0,1,0,4.91,16.09,16.09,0,0,1-3.6,4.28A27,27,0,0,1,178.43,136a25.35,25.35,0,0,1-15.58-2.34A24,24,0,0,1,155,127.8a18,18,0,0,1-1.72-2.42,4.57,4.57,0,0,1,0-5A16.65,16.65,0,0,1,157,116a27,27,0,0,1,13-6.1C171.46,109.68,172.89,109.61,174.08,109.48Zm8.56,13.46a8.36,8.36,0,1,0-8.37,8.35A8.35,8.35,0,0,0,182.64,122.94Zm-16.51,8.42a11.76,11.76,0,0,1,0-16.85c-.12,0-.16,0-.19,0a22.77,22.77,0,0,0-8,5.21,9.75,9.75,0,0,0-1.91,2.63,1,1,0,0,0,0,1.09,17.34,17.34,0,0,0,1.49,2.17,21.85,21.85,0,0,0,8.31,5.65A2.38,2.38,0,0,0,166.13,131.36Zm16.39-16.85a11.9,11.9,0,0,1,3.47,8.42,11.64,11.64,0,0,1-3.58,8.45l.27-.08a23,23,0,0,0,7.79-5.05,9.92,9.92,0,0,0,2.05-2.79,1,1,0,0,0,0-1.06,19,19,0,0,0-1.51-2.2,22,22,0,0,0-8.32-5.64Z" style="fill:#0410f2"/><path d="M169.27,127.47a5,5,0,1,1,5,5A5,5,0,0,1,169.27,127.47Zm6.68-3.32a1.67,1.67,0,1,0,1.67,1.68A1.67,1.67,0,0,0,176,124.15Z" style="fill:#0410f2"/><path d="M115.76,134.86l9.6.1a4.29,4.29,0,0,0,4.43-4.27c.05-2.83.08-5.65.09-8.48a4.15,4.15,0,0,0-1.28-3.07L121,111.49a1.84,1.84,0,0,0-2.52-.25,2,2,0,0,0-.4,2.68,2.66,2.66,0,0,0,.34.4l2.84,2.91a1.57,1.57,0,0,1,.21.24c.11.19.07.34-.17.38a3.1,3.1,0,0,1-.43,0c-5.92-.06-15.82-.2-21.73-.26a1.93,1.93,0,0,0-2,1.55A1.91,1.91,0,0,0,99,121.45h.34l12.7.17a.72.72,0,0,1,.33,0c.1,0,.22.17.21.26a.46.46,0,0,1-.22.28.77.77,0,0,1-.34,0c-1.07,0-.6,0-1.53,0a1.9,1.9,0,0,0-.37,3.78,4.7,4.7,0,0,0,.53,0c.93,0,.59,0,1.34,0,.23,0,.54,0,.55.3s-.32.3-.56.3l-1.48,0a1.9,1.9,0,0,0-.28,3.79h.44c.57,0,.71,0,1.22,0h.28a.32.32,0,0,1,.32.29c.05.2-.13.3-.33.31h-.25l-.83,0a1.89,1.89,0,0,0-.76,3.63,2.37,2.37,0,0,0,.88.16c3.49.05,3,.06,3.9.07" style="fill:#f25ca2"/><path d="M6.16,126.52c0,1.11-.67,2.27-1.75,2.27-.9,0-1.55-1.34-1.55-1.72L3,125.91l-.23-1.14.11-6.42.21-1.1-.32-3v-.23a1.7,1.7,0,0,1,1.51-1.84c1.23,0,1.7,2,1.7,2L6,115l-.2,1.25-.12,2.45-.06,3.36L6.07,125l.09,1.4Z" style="fill:#f25ca2"/><path d="M13.74,130.86c-.2,1.37-.61,3.12-1.81,3.12a1.64,1.64,0,0,1-1.84-1.72c0-.7,1.14-2.13,1.14-3.09a.83.83,0,0,0-.38-.73A4.7,4.7,0,0,0,10,128c-.56-.34-.61-.46-.61-1.42,0-1.4.81-3,2.36-3,1.25,0,2.21,2.07,2.21,2.07l0,.56.18.38.06.72.26,1.14A21,21,0,0,0,13.74,130.86Z" style="fill:#f25ca2"/><path d="M41.47,127.54l-3.35.14-3.39.41h-.11a1.32,1.32,0,0,1-1.23-1.34.77.77,0,0,1,0-.26,6.92,6.92,0,0,1,.82-2.95l.67-1.13.17-.76,1.26-2,.49-1.23a7.76,7.76,0,0,0,.88-1.37c0-1.11-.5-2.07-1.2-2.07l-1.43.09-.43.41-2.42,1.43c-.3.38-1.14,1.48-1.58,1.48a1.59,1.59,0,0,1-1.52-1.57,4,4,0,0,1,2.31-3.33l1.28-.46.7-.38,1-.29,1-.32.5-.18.93.06,1.43.12a4.34,4.34,0,0,1,2.45,3.93c0,3.68-3,6.88-3,8a.5.5,0,0,0,.49.47l1.14-.32h.7l.61-.18,1.9.24c.76.14,1.48.87,1.48,1.37C44.06,126.58,42.87,127.42,41.47,127.54Z" style="fill:#f25ca2"/><path d="M49.08,128.15a2,2,0,0,1-2.19-1.89,1.61,1.61,0,0,1,1.66-1.73l1.58-.11.44.35c.35.14,1.08.46,1.08,1.22A2.53,2.53,0,0,1,49.08,128.15Z" style="fill:#f25ca2"/><path d="M57.42,128.15a2,2,0,0,1-2.19-1.89,1.61,1.61,0,0,1,1.66-1.73l1.58-.11.44.35c.35.14,1.08.46,1.08,1.22A2.53,2.53,0,0,1,57.42,128.15Z" style="fill:#f25ca2"/><path d="M65.76,128.15a2,2,0,0,1-2.19-1.89,1.61,1.61,0,0,1,1.66-1.73l1.58-.11.44.35c.35.14,1.08.46,1.08,1.22A2.53,2.53,0,0,1,65.76,128.15Z" style="fill:#f25ca2"/><path d="M173.85,160.73c7.79.32,14.29,3,19.48,8.58a14.59,14.59,0,0,1,1.74,2.44,4.55,4.55,0,0,1,0,4.91,16.31,16.31,0,0,1-3.6,4.28,26.9,26.9,0,0,1-13.26,6.26,25.24,25.24,0,0,1-15.57-2.34,24,24,0,0,1-7.87-5.82,18.79,18.79,0,0,1-1.72-2.41,4.61,4.61,0,0,1,0-5,16.39,16.39,0,0,1,3.74-4.38,27,27,0,0,1,13-6.1C171.23,160.92,172.66,160.85,173.85,160.73Zm8.55,13.45a8.36,8.36,0,1,0-8.37,8.35A8.34,8.34,0,0,0,182.4,174.18Zm-16.51,8.42a11.77,11.77,0,0,1,0-16.84l-.19,0a22.88,22.88,0,0,0-8,5.22,9.7,9.7,0,0,0-1.91,2.62,1.06,1.06,0,0,0,0,1.1,18.11,18.11,0,0,0,1.49,2.17,22,22,0,0,0,8.31,5.65Zm16.39-16.84a11.86,11.86,0,0,1,3.47,8.42,11.67,11.67,0,0,1-3.57,8.44,1.31,1.31,0,0,0,.27-.08,22.76,22.76,0,0,0,7.78-5,9.87,9.87,0,0,0,2.05-2.78,1,1,0,0,0,0-1.07,17.37,17.37,0,0,0-1.51-2.19,22,22,0,0,0-8.31-5.65Z" style="fill:#f25ca2"/><path d="M169,169.34a5,5,0,1,1,5,5A5,5,0,0,1,169,169.34Zm6.69-3.33a1.67,1.67,0,1,0,1.66,1.68A1.65,1.65,0,0,0,175.72,166Z" style="fill:#f25ca2"/><path d="M125.23,176.39c0,3.43.06,6.18.1,9.6a4.29,4.29,0,0,1-4.27,4.44c-2.83,0-5.65.07-8.48.09a4.15,4.15,0,0,1-3.07-1.28l-7.65-7.6a1.83,1.83,0,0,1-.25-2.51,2,2,0,0,1,2.68-.4,2.66,2.66,0,0,1,.4.34l2.91,2.84a1.11,1.11,0,0,0,.24.2c.19.12.34.08.38-.16a3.1,3.1,0,0,0,0-.43c-.06-5.92-.2-15.82-.26-21.74a1.92,1.92,0,1,1,3.84-.16V160c0,2.9.14,9.79.17,12.69a.75.75,0,0,0,0,.34c0,.09.17.21.26.2a.41.41,0,0,0,.28-.21.77.77,0,0,0,0-.34c0-1.08,0-.6,0-1.53a1.9,1.9,0,0,1,3.78-.37,4.61,4.61,0,0,1,0,.53c0,.93,0,.59,0,1.34,0,.23,0,.54.3.54s.3-.31.3-.56c0-.7,0-1,0-1.47a1.9,1.9,0,0,1,3.79-.28c0,.14,0,.29,0,.43,0,.58,0,.72,0,1.23a2.35,2.35,0,0,0,0,.27.32.32,0,0,0,.29.33c.2,0,.3-.13.31-.33a2.09,2.09,0,0,0,0-.25c0-.33,0-.7,0-.83a1.89,1.89,0,0,1,3.63-.76,2.35,2.35,0,0,1,.16.87c0,3.5.06,3,.07,3.91" style="fill:#0410f2"/><path d="M6.39,177.76c0,1.11-.67,2.28-1.74,2.28-.91,0-1.55-1.34-1.55-1.72l.09-1.17L3,176l.12-6.41.2-1.11-.32-3v-.23a1.72,1.72,0,0,1,1.52-1.84c1.22,0,1.69,2,1.69,2l.12.81-.21,1.26L6,170,5.9,173.3l.41,2.92.08,1.4Z" style="fill:#0410f2"/><path d="M14,182.11c-.21,1.37-.62,3.12-1.81,3.12a1.64,1.64,0,0,1-1.84-1.72c0-.7,1.14-2.13,1.14-3.09a.83.83,0,0,0-.38-.73,4.18,4.18,0,0,0-.9-.44c-.56-.35-.62-.47-.62-1.43,0-1.4.82-3,2.36-3,1.26,0,2.22,2.07,2.22,2.07l0,.55.17.38.06.73.27,1.14A18.48,18.48,0,0,0,14,182.11Z" style="fill:#0410f2"/><path d="M41.71,178.78l-3.36.15-3.38.41h-.12A1.31,1.31,0,0,1,33.63,178a.83.83,0,0,1,0-.27,6.72,6.72,0,0,1,.81-2.94l.67-1.14.18-.76,1.25-2,.5-1.22a8.16,8.16,0,0,0,.87-1.37c0-1.11-.49-2.07-1.19-2.07l-1.43.08-.44.41-2.42,1.43c-.29.38-1.13,1.49-1.57,1.49A1.6,1.6,0,0,1,29.37,168a4,4,0,0,1,2.31-3.32l1.28-.47.7-.38,1-.29,1-.32.49-.17.94.05,1.43.12A4.35,4.35,0,0,1,41,167.18c0,3.67-3,6.88-3,8a.5.5,0,0,0,.5.46l1.14-.32h.7l.61-.17,1.89.23c.76.15,1.49.88,1.49,1.37C44.3,177.82,43.11,178.67,41.71,178.78Z" style="fill:#0410f2"/><path d="M49.32,179.4a2,2,0,0,1-2.19-1.9,1.61,1.61,0,0,1,1.66-1.72l1.58-.12.43.35c.35.15,1.08.47,1.08,1.23A2.53,2.53,0,0,1,49.32,179.4Z" style="fill:#0410f2"/><path d="M57.66,179.4a2,2,0,0,1-2.19-1.9,1.61,1.61,0,0,1,1.66-1.72l1.58-.12.43.35c.35.15,1.08.47,1.08,1.23A2.53,2.53,0,0,1,57.66,179.4Z" style="fill:#0410f2"/><path d="M66,179.4a2,2,0,0,1-2.19-1.9,1.61,1.61,0,0,1,1.66-1.72l1.58-.12.43.35c.35.15,1.08.47,1.08,1.23A2.53,2.53,0,0,1,66,179.4Z" style="fill:#0410f2"/><path d="M50.65,241.6l-.81.18-1.16-.33-1.22-.09-1.17-.62-.8-.24a4.7,4.7,0,0,1-1.2-1.19c-.08-.15-.38-.6-.5-.87l-.57-.42a8,8,0,0,1-1.13-4.41c0-2.9.59-4.77,2.2-5.85L47,226l1-.68.66-.57,2.36-.57,2,.09,1.11-.15a7.21,7.21,0,0,1,.77-.06c1.85,0,2.75,1.08,2.75,2.45,0,.86-.39,1.64-1.2,1.64-.44,0-1.58-1-3-1a16.16,16.16,0,0,0-4.77,1l-.36.36-1.34.77-1.46,1.43c-.39.33-.42,1-.42,2v.45a5,5,0,0,0,1.73,4.12l1.19.38.87.54a3,3,0,0,0,1,.21,4,4,0,0,0,4.33-3.58,2.66,2.66,0,0,0,0-.39,1,1,0,0,0-.06-.36s-.12,0-.21,0-.57.08-.78.08l-1.55.09h-.09a1.47,1.47,0,0,1-1.4-1.34,1.88,1.88,0,0,1,1.34-1.7l1.08-.18.59-.21a7.93,7.93,0,0,0,1.35.18c.44,0,1.46-.06,1.46-.06l.68.48.63.36a4.55,4.55,0,0,1,.33,1.34c0,.09,0,.15,0,.21C57,237.58,55.66,240.77,50.65,241.6Z" style="fill:#0410f2"/><path d="M77,242.59c-.48,0-1.35-.84-1.35-.84l-.35-.95.09-1.14-.3-.68a8.86,8.86,0,0,1-.69-2c-.36-1.52-.65-2.54-1.16-2.54s-2.48.57-3.94.57c-.83,0-1.19,0-1.31.39l-.42.89-.21.78-.39.71-.26.72-.81,1-.69,1.79a2.35,2.35,0,0,1-1.64,1.2,2.18,2.18,0,0,1-1.7-1.82,7.47,7.47,0,0,1,1.2-2.78,14.64,14.64,0,0,1,.53-1.82c.39-.83,1.11-2,1.11-2l1.4-2.69L67,229l.48-.8,1.08-2.36c.56-1.25,1-2.62,2.44-2.62,1.11,0,1.61.5,2.42,2.26l2.12,5,.2,1,1.47,3.16a3.8,3.8,0,0,1,.56,1c.33.92.3,1.76.63,2.44a8.59,8.59,0,0,1,.77,2.15A3.55,3.55,0,0,1,77,242.59Zm-4.75-12.41-.15-.54-.68-1.22s-.09-.69-.42-.69-1.52,1.85-1.73,2.87a3.92,3.92,0,0,0-.12.77c0,.18,0,.27.15.27l2.63-.18c.38,0,.77-.15.77-.3A3.36,3.36,0,0,0,72.27,230.18Z" style="fill:#0410f2"/><path d="M91.87,241.6c-.18,0-.8.18-.8.18l-1.17-.33-1.22-.09-1.16-.62-.81-.24a4.59,4.59,0,0,1-1.19-1.19,9.67,9.67,0,0,1-.51-.87l-.57-.42a8,8,0,0,1-1.13-4.41c0-2.9.6-4.77,2.21-5.85L88.23,226l1-.68.65-.57,2.36-.57,2,.09,1.1-.15a7.39,7.39,0,0,1,.78-.06c1.85,0,2.74,1.08,2.74,2.45,0,.86-.39,1.64-1.19,1.64-.45,0-1.58-1-3-1a16.24,16.24,0,0,0-4.77,1l-.36.36-1.34.77-1.46,1.43c-.39.33-.42,1-.42,2v.45a5,5,0,0,0,1.73,4.12l1.2.38.86.54a3.11,3.11,0,0,0,1,.21,4,4,0,0,0,4.32-3.58,2.66,2.66,0,0,0,0-.39,1,1,0,0,0-.06-.36s-.12,0-.21,0-.57.08-.77.08l-1.55.09h-.09A1.48,1.48,0,0,1,91.48,233a1.87,1.87,0,0,1,1.35-1.7l1.07-.18.6-.21a7.74,7.74,0,0,0,1.34.18c.45,0,1.46-.06,1.46-.06l.69.48.62.36a4.55,4.55,0,0,1,.33,1.34c0,.09,0,.15,0,.21C98.19,237.58,96.88,240.77,91.87,241.6Z" style="fill:#0410f2"/><path d="M122.36,231.19l0,.72-.75,1.91-.39,1.88L120,238l-.3,1.23-.42.62-.62,1.28c-.45.81-1.28,1.76-1.76,1.76-.87,0-1.26-.74-1.73-1.4l-2.78-3.43-1.22-1.1-1-1.55-.9-1-.21-.65-.3-.39-.29-.18a.18.18,0,0,0-.12,0,.53.53,0,0,0-.48.54l0,1.22-.15,2-.69,3-.83,2a4.48,4.48,0,0,1-1.19.36c-.54,0-1.14-1.11-1.14-1.11v-1l.39-1,0-.48s.81-4.33.9-5.73l0-1.76c0-.77.51-1.22.54-1.67.06-.71.06-2.12.06-2.12s.87-1.37,1.64-1.37a4.36,4.36,0,0,1,1.37.51l.54,2.06,2.74,4.11A28.41,28.41,0,0,0,114.9,236c.57.66.74,1.91,1.64,1.91.18,0,.33-.32.36-.62.06-.57.36-.78.65-1.41a41,41,0,0,0,1.7-4.74l.24-1.31.3-.63c0-.18.09-.59.15-1s.39-1.19.48-1.46A1.78,1.78,0,0,1,122.3,225c.83,0,1.37,1,1.37,2.12a2.79,2.79,0,0,1-.18,1Z" style="fill:#0410f2"/><path d="M140.43,227c-.33,0-1.34-.24-1.73-.24l-2.29,0-.51-.21-1.1,0-.69-.06a6.82,6.82,0,0,0-.72,0c-.39,0-.44.06-.47.27l-.06,1.13-.33.81-.18,1.64c0,.3-.06.53-.06.71s.06.36.24.36l1.46-.21.66.06,1-.42,1.58.18a2.05,2.05,0,0,1,1.91,1.91c0,.84-1.19,1.61-1.76,1.61h-.06l-1.43-.18-3.19.18-.3.09-.21.3-.36.3-.21,3.82a8.73,8.73,0,0,0-.27,1.58c0,.27,0,.48.12.54.27,0,1.38-.15,1.94-.15,1.11,0,2.09-.06,2.39-.09l1.34-.48.81.06,1.1-.06h.09a2.56,2.56,0,0,1,2.15,1.58c0,.66-1.43,1.55-1.76,1.55h0l-.33-.06-.66.33-4.17.18s-3.85.89-4.63.89a1.76,1.76,0,0,1-1.73-1.85v-.12l.15-3.4.36-.89.21-2.74.24-.51.09-2.54.59-3.76.15-3.52a2.07,2.07,0,0,1,2-2.14h.09l.81.06.62-.15,1.32.24.89-.15h2.6l1.7.18,1.52-.06c.41,0,1.13.83,1.13,1.64a1,1,0,0,1-.15.59A2.25,2.25,0,0,1,140.43,227Zm-1.34-8-.27.42-.39,1-.38.6c-.57.78-.93,1.07-1.67,1.07a6.09,6.09,0,0,1-.87-.08,1.11,1.11,0,0,1-.77-1.08,1.53,1.53,0,0,1,.2-.74l.24-.42.21-.45.72-.74.21-.51a2,2,0,0,1,1.52-1l.18,0a4.39,4.39,0,0,1,1.19.63l.36.75Z" style="fill:#0410f2"/><path d="M159.4,243a3.65,3.65,0,0,1-1.22-.29l-.86-.39-.24-.54a2.84,2.84,0,0,1-.42-1.22,2.47,2.47,0,0,1,2.62-2.24,2.35,2.35,0,0,1,.12,4.68Zm2.72-15.77-.09,2.11.12.54L162,231s-.45,5.82-1.73,5.82a2,2,0,0,1-2.09-2.21,3.43,3.43,0,0,1,.06-.56l.63-1.76v-1.82l.38-1.94,0-1,.54-2.32v-1a1.65,1.65,0,0,1,1.7-1.46,1.69,1.69,0,0,1,1.46,1.58A20.16,20.16,0,0,1,162.12,227.2Z" style="fill:#0410f2"/></svg>