<svg id="Calque_1" data-name="Calque 1" xmlns="http://www.w3.org/2000/svg" viewBox="0 0 50 50"><title>schema_elephant</title><path d="M39.21,31.7a1.65,1.65,0,0,1-.32.06H10.49c0-.18,0-.34,0-.5-.13-2.15-.26-4.31-.4-6.46Q9.86,21,9.62,17.26l-.21-3.37a.53.53,0,0,0-.33-.55,1.63,1.63,0,0,1-.86-1.66,1.71,1.71,0,0,1,3.23-.53,1.67,1.67,0,0,1-.49,2c-.16.13-.19.22-.08.41q1.21,2.14,2.42,4.31Q15.58,22,17.85,26l1.95,3.44a1.86,1.86,0,0,0,.14.21c.08-.29.14-.54.2-.79.54-2.11,1.08-4.23,1.61-6.34q1-3.9,1.93-7.8l.84-3.35a.24.24,0,0,0-.14-.33A1.69,1.69,0,0,1,25.75,8a1.63,1.63,0,0,1,1.17,1.32A1.6,1.6,0,0,1,26.16,11a.31.31,0,0,0-.16.41l2.31,9.21c.72,2.88,1.43,5.76,2.15,8.63,0,.11.07.22.12.4l9.15-16.27a7,7,0,0,1-.59-.69,1.68,1.68,0,0,1,.55-2.28,1.7,1.7,0,0,1,2.31.5,1.66,1.66,0,0,1-.68,2.46.32.32,0,0,0-.21.32l-.18,2.87-.3,4.69c-.09,1.52-.18,3-.28,4.57l-.3,4.82c0,.08,0,.16-.06.25Z" style="fill:#a7f2d6;fill-rule:evenodd"/><path d="M25.24,42h-15a1.41,1.41,0,0,1-.64-.13.58.58,0,0,1-.24-.42c0-.76,0-1.52,0-2.29a.52.52,0,0,1,.52-.54H40.39c.61,0,.77.15.77.77s0,1.32,0,2a.56.56,0,0,1-.62.64H25.24Z" style="fill:#a7f2d6;fill-rule:evenodd"/><path d="M25.7,32.92h8.19a2.31,2.31,0,0,0-.08,4.5H25.87a2.33,2.33,0,0,0-.17-4.5Z" style="fill:#a7f2d6;fill-rule:evenodd"/><path d="M16.61,32.92H24.8a2.31,2.31,0,0,0-.12,4.49H16.82A2.32,2.32,0,0,0,18.44,35,2.3,2.3,0,0,0,16.61,32.92Z" style="fill:#a7f2d6;fill-rule:evenodd"/><path d="M15.7,32.93a2.26,2.26,0,0,0-1.82,2.14,2.28,2.28,0,0,0,1.69,2.33l-.16,0H10.82c-.26,0-.33-.08-.33-.34,0-1.3,0-2.6,0-3.9a2.65,2.65,0,0,1,0-.27Z" style="fill:#a7f2d6;fill-rule:evenodd"/><path d="M34.87,37.41a2.31,2.31,0,0,0,0-4.49H40a1.13,1.13,0,0,1,0,.18c0,1.33,0,2.67,0,4,0,.24-.05.33-.32.33H35Z" style="fill:#a7f2d6;fill-rule:evenodd"/><path d="M25.27,34.06a1.09,1.09,0,0,1,1.1,1.14,1.11,1.11,0,0,1-1.14,1.11,1.13,1.13,0,0,1-1.1-1.17A1.11,1.11,0,0,1,25.27,34.06Z" style="fill:#a7f2d6;fill-rule:evenodd"/><path d="M33.22,35.19a1.12,1.12,0,0,1,1.1-1.13,1.07,1.07,0,0,1,1.13,1.11,1,1,0,0,1-1.14,1.13A1.1,1.1,0,0,1,33.22,35.19Z" style="fill:#a7f2d6;fill-rule:evenodd"/><path d="M17.29,35.19a1.12,1.12,0,0,1-1.12,1.11A1.17,1.17,0,0,1,15,35.1a1.13,1.13,0,0,1,2.25.09Z" style="fill:#a7f2d6;fill-rule:evenodd"/><path d="M39.21,31.7l.78-.78c0,.24,0,.49,0,.73,0,0,0,.09-.07.09Z" style="fill:#a7f2d6;fill-rule:evenodd"/></svg>