<svg id="Calque_1" data-name="Calque 1" xmlns="http://www.w3.org/2000/svg" viewBox="0 0 454.06 191.3"><title>schema_elephant</title><path d="M112.23,164.47q0-7.36,0-14.72a3.39,3.39,0,0,0-.22-1.23,2.66,2.66,0,0,0-5.11,1c0,3.47,0,6.93,0,10.4,0,.11,0,.23,0,.35,0,.28-.15.53-.44.46s-.3-.28-.4-.46a1,1,0,0,1,0-.39V143.11c0-.21,0-.41,0-.61a2.67,2.67,0,0,0-5.33.34V160c0,.34.08.79-.44.78s-.41-.44-.41-.77V141.06c0-.25,0-.5,0-.74a2.67,2.67,0,0,0-5.32.46q0,9.6,0,19.19c0,.16.05.34,0,.47a.62.62,0,0,1-.41.3c-.11,0-.29-.16-.36-.29a1.21,1.21,0,0,1,0-.47V147.74c0-.16,0-.32,0-.48a2.67,2.67,0,0,0-3.19-2.58,2.71,2.71,0,0,0-2.2,2.75v24.95a4.17,4.17,0,0,1,0,.61c-.06.34-.27.4-.54.23a2.22,2.22,0,0,1-.33-.28l-4-4.05a3.64,3.64,0,0,0-.56-.48,2.82,2.82,0,0,0-3.78.51,2.58,2.58,0,0,0,.32,3.55l10.65,10.8a5.87,5.87,0,0,0,4.29,1.84c4,0,8,0,11.93,0a6,6,0,0,0,6.07-6.17Z" style="fill:#fff"/><path d="M112.23,164.47v14.47a6,6,0,0,1-6.07,6.17c-4,0-8,0-11.93,0a5.87,5.87,0,0,1-4.29-1.84l-10.65-10.8a2.58,2.58,0,0,1-.32-3.55,2.82,2.82,0,0,1,3.78-.51,3.64,3.64,0,0,1,.56.48l4,4.05a2.22,2.22,0,0,0,.33.28c.27.17.48.11.54-.23a4.17,4.17,0,0,0,0-.61V147.43a2.71,2.71,0,0,1,2.2-2.75,2.67,2.67,0,0,1,3.19,2.58c0,.16,0,.32,0,.48V160a1.21,1.21,0,0,0,0,.47c.07.13.25.3.36.29a.62.62,0,0,0,.41-.3c.07-.13,0-.31,0-.47q0-9.6,0-19.19a2.67,2.67,0,0,1,5.32-.46c0,.24,0,.49,0,.74V160c0,.33-.06.76.41.77s.44-.44.44-.78V142.84a2.67,2.67,0,0,1,5.33-.34c0,.2,0,.4,0,.61v16.78a1,1,0,0,0,0,.39c.1.18.24.43.4.46s.43-.18.44-.46c0-.12,0-.24,0-.35,0-3.47,0-6.93,0-10.4a2.66,2.66,0,0,1,5.11-1,3.39,3.39,0,0,1,.22,1.23q0,7.37,0,14.72" style="fill:#020772"/><path d="M39.93,129.82q6.3-3.81,12.59-7.64a3.35,3.35,0,0,0,.94-.82A2.66,2.66,0,0,0,50,117.52q-4.46,2.67-8.9,5.38a2.16,2.16,0,0,1-.3.18c-.25.13-.53.14-.62-.14s.08-.4.19-.58.21-.14.32-.21L55,113.46c.17-.11.35-.21.51-.33a2.67,2.67,0,0,0-3-4.38l-14.65,8.87c-.29.18-.64.48-.9,0s.17-.58.45-.74q8.09-4.91,16.19-9.81c.21-.13.42-.26.62-.4A2.68,2.68,0,0,0,51,102.38L34.6,112.32c-.14.08-.28.22-.42.22a.6.6,0,0,1-.47-.18c-.07-.1,0-.34.07-.47s.25-.18.39-.27l10.46-6.34c.13-.09.27-.16.41-.25a2.68,2.68,0,0,0,.55-4.07,2.73,2.73,0,0,0-3.5-.46L20.75,113.43a3.45,3.45,0,0,1-.54.28c-.32.13-.47,0-.47-.34a2.14,2.14,0,0,1,.07-.43c.45-1.85.91-3.7,1.36-5.56a3.59,3.59,0,0,0,.12-.73,2.82,2.82,0,0,0-2.4-3A2.59,2.59,0,0,0,16,105.8c-1.25,4.9-2.48,9.8-3.73,14.7a5.88,5.88,0,0,0,.66,4.63c2,3.41,4.09,6.81,6.18,10.2a6,6,0,0,0,8.42,2l12.37-7.5" style="fill:#fff"/><path d="M39.93,129.82l-12.37,7.5a6,6,0,0,1-8.42-2c-2.09-3.39-4.14-6.79-6.18-10.2a5.88,5.88,0,0,1-.66-4.63c1.25-4.9,2.48-9.8,3.73-14.7a2.59,2.59,0,0,1,2.86-2.12,2.82,2.82,0,0,1,2.4,3,3.59,3.59,0,0,1-.12.73c-.45,1.86-.91,3.71-1.36,5.56a2.14,2.14,0,0,0-.07.43c0,.32.15.47.47.34a3.45,3.45,0,0,0,.54-.28L42.09,100.5a2.73,2.73,0,0,1,3.5.46A2.68,2.68,0,0,1,45,105c-.14.09-.28.16-.41.25l-10.46,6.34c-.14.09-.31.15-.39.27s-.14.37-.07.47a.6.6,0,0,0,.47.18c.14,0,.28-.14.42-.22L51,102.38a2.68,2.68,0,0,1,3.16,4.32c-.2.14-.41.27-.62.4q-8.1,4.89-16.19,9.81c-.28.16-.68.33-.45.74s.61.15.9,0l14.65-8.87a2.67,2.67,0,0,1,3,4.38c-.16.12-.34.22-.51.33l-14.36,8.69c-.11.07-.27.11-.32.21s-.25.43-.19.58.37.27.62.14a2.16,2.16,0,0,0,.3-.18q4.46-2.7,8.9-5.38a2.66,2.66,0,0,1,3.51,3.84,3.35,3.35,0,0,1-.94.82q-6.29,3.84-12.59,7.64" style="fill:#f2e74b"/><path d="M46.16,52.64c3.3,3.63,6.59,7.27,9.91,10.89a3.52,3.52,0,0,0,1,.77,2.66,2.66,0,0,0,3.1-4.19c-2.32-2.57-4.66-5.13-7-7.7l-.24-.26c-.17-.22-.24-.49,0-.64s.42,0,.62.08.18.18.26.28L65.11,64.28c.14.15.27.31.42.45a2.67,2.67,0,0,0,3.72-3.84L57.72,48.21c-.22-.25-.59-.53-.2-.87s.6.06.82.3q6.38,7,12.73,14a6.5,6.5,0,0,0,.52.53,2.67,2.67,0,0,0,3.62-3.93L62.31,44.05c-.11-.12-.26-.23-.3-.37a.66.66,0,0,1,.09-.49.51.51,0,0,1,.47,0c.14.05.24.21.34.33q4.13,4.51,8.23,9l.33.35a2.68,2.68,0,0,0,4.1-.24,2.72,2.72,0,0,0-.22-3.52L58.56,30.67a4.33,4.33,0,0,1-.38-.47c-.19-.3-.06-.47.25-.54a2.06,2.06,0,0,1,.43,0l5.72.26a3.06,3.06,0,0,0,.74,0A2.81,2.81,0,0,0,67.77,27a2.58,2.58,0,0,0-2.63-2.41L50,23.74a5.85,5.85,0,0,0-4.42,1.53c-3,2.66-5.91,5.32-8.83,8a6,6,0,0,0-.34,8.65q4.88,5.36,9.74,10.7" style="fill:#fff"/><path d="M46.16,52.64q-4.87-5.34-9.74-10.7a6,6,0,0,1,.34-8.65c2.92-2.7,5.87-5.36,8.83-8A5.85,5.85,0,0,1,50,23.74l15.13.83A2.58,2.58,0,0,1,67.77,27a2.81,2.81,0,0,1-2.45,2.92,3.06,3.06,0,0,1-.74,0l-5.72-.26a2.06,2.06,0,0,0-.43,0c-.31.07-.44.24-.25.54a4.33,4.33,0,0,0,.38.47L75.35,49.13a2.72,2.72,0,0,1,.22,3.52,2.68,2.68,0,0,1-4.1.24l-.33-.35Q67,48,62.91,43.49c-.1-.12-.2-.28-.34-.33a.51.51,0,0,0-.47,0,.66.66,0,0,0-.09.49c0,.14.19.25.3.37l12.9,14.19a2.67,2.67,0,0,1-3.62,3.93,6.5,6.5,0,0,1-.52-.53q-6.36-7-12.73-14c-.22-.24-.46-.61-.82-.3s0,.62.2.87L69.25,60.89a2.67,2.67,0,0,1-3.72,3.84c-.15-.14-.28-.3-.42-.45L53.82,51.87c-.08-.1-.15-.24-.26-.28s-.47-.16-.62-.08-.18.42,0,.64l.24.26c2.33,2.57,4.67,5.13,7,7.7a2.66,2.66,0,0,1-3.1,4.19,3.52,3.52,0,0,1-1-.77c-3.32-3.62-6.61-7.26-9.91-10.89" style="fill:#f24343"/><path d="M122.49,37.17q-3.52,6.46-7,12.94a3.37,3.37,0,0,0-.4,1.18,2.66,2.66,0,0,0,5,1.56c1.67-3,3.32-6.09,5-9.13l.17-.31c.15-.24.38-.39.61-.2s.12.39.13.61-.12.22-.18.34q-4,7.37-8,14.74a4.58,4.58,0,0,0-.28.54,2.67,2.67,0,0,0,4.84,2.25l8.19-15c.16-.3.31-.73.76-.48s.14.59,0,.88l-9,16.62a6.77,6.77,0,0,0-.33.66,2.67,2.67,0,0,0,4.9,2.13l9.17-16.84c.08-.15.13-.33.25-.4a.61.61,0,0,1,.5-.08c.11,0,.18.28.18.43a1.12,1.12,0,0,1-.2.43l-5.85,10.75a4.23,4.23,0,0,0-.22.42A2.67,2.67,0,0,0,132.13,65a2.72,2.72,0,0,0,3.26-1.36l11.93-21.91a4.52,4.52,0,0,1,.32-.52c.21-.27.42-.22.58.06a2,2,0,0,1,.16.4c.54,1.83,1.07,3.66,1.62,5.49a4.19,4.19,0,0,0,.26.7,2.83,2.83,0,0,0,3.57,1.35,2.59,2.59,0,0,0,1.41-3.27q-2.09-7.29-4.18-14.57a5.93,5.93,0,0,0-2.9-3.68c-3.48-1.91-7-3.82-10.48-5.7a6,6,0,0,0-8.27,2.52Z" style="fill:#fff"/><path d="M122.49,37.17l6.92-12.71a6,6,0,0,1,8.27-2.52c3.51,1.88,7,3.79,10.48,5.7a5.93,5.93,0,0,1,2.9,3.68q2.08,7.27,4.18,14.57a2.59,2.59,0,0,1-1.41,3.27,2.83,2.83,0,0,1-3.57-1.35,4.19,4.19,0,0,1-.26-.7c-.55-1.83-1.08-3.66-1.62-5.49a2,2,0,0,0-.16-.4c-.16-.28-.37-.33-.58-.06a4.52,4.52,0,0,0-.32.52L135.39,63.59A2.72,2.72,0,0,1,132.13,65a2.67,2.67,0,0,1-1.56-3.79,4.23,4.23,0,0,1,.22-.42L136.64,50a1.12,1.12,0,0,0,.2-.43c0-.15-.07-.38-.18-.43a.61.61,0,0,0-.5.08c-.12.07-.17.25-.25.4l-9.17,16.84a2.67,2.67,0,0,1-4.9-2.13,6.77,6.77,0,0,1,.33-.66l9-16.62c.15-.29.42-.64,0-.88s-.6.18-.76.48l-8.19,15a2.67,2.67,0,0,1-4.84-2.25,4.58,4.58,0,0,1,.28-.54q4-7.38,8-14.74c.06-.12.18-.23.18-.34s0-.5-.13-.61-.46,0-.61.2l-.17.31c-1.66,3-3.31,6.09-5,9.13a2.66,2.66,0,0,1-5-1.56,3.37,3.37,0,0,1,.4-1.18q3.5-6.48,7-12.94" style="fill:#f25ca2"/><path d="M167.64,135.71a6,6,0,0,0,8.21-2.75c1.77-3.56,3.5-7.14,5.22-10.72a5.88,5.88,0,0,0,.23-4.67q-2.52-7.16-5.05-14.3a2.58,2.58,0,0,0-3.05-1.84,2.83,2.83,0,0,0-2.12,3.17,4.79,4.79,0,0,0,.19.72l1.86,5.41a2,2,0,0,1,.12.42c0,.31-.11.48-.45.38a3,3,0,0,1-.56-.23l-22.43-10.93a2.72,2.72,0,0,0-3.44.78,2.68,2.68,0,0,0,.92,4c.14.08.29.14.43.21l11,5.36a1.27,1.27,0,0,1,.41.24c.09.12.17.36.11.45a.62.62,0,0,1-.45.23c-.14,0-.29-.11-.44-.18l-17.24-8.4a2.68,2.68,0,0,0-2.76,4.58c.21.13.44.24.66.35l17,8.29c.29.14.71.27.51.7s-.58.2-.89,0l-15.4-7.5a2.67,2.67,0,0,0-2.64,4.64l.54.28,15.09,7.35c.12.06.28.09.34.18s.29.4.25.56-.35.3-.61.19a3.13,3.13,0,0,1-.32-.15L143.54,118a2.66,2.66,0,0,0-3.15,4.15,3.51,3.51,0,0,0,1,.74l13.24,6.46,13,6.33" style="fill:#fff"/><path d="M154.64,129.38l13,6.33a6,6,0,0,0,8.21-2.75c1.77-3.56,3.5-7.14,5.22-10.72a5.88,5.88,0,0,0,.23-4.67q-2.52-7.16-5.05-14.3a2.58,2.58,0,0,0-3.05-1.84,2.83,2.83,0,0,0-2.12,3.17,4.79,4.79,0,0,0,.19.72l1.86,5.41a2,2,0,0,1,.12.42c0,.31-.11.48-.45.38a3,3,0,0,1-.56-.23l-22.43-10.93a2.72,2.72,0,0,0-3.44.78,2.68,2.68,0,0,0,.92,4c.14.08.29.14.43.21l11,5.36a1.27,1.27,0,0,1,.41.24c.09.12.17.36.11.45a.62.62,0,0,1-.45.23c-.14,0-.29-.11-.44-.18l-17.24-8.4a2.68,2.68,0,0,0-2.76,4.58c.21.13.44.24.66.35l17,8.29c.29.14.71.27.51.7s-.58.2-.89,0l-15.4-7.5a2.67,2.67,0,0,0-2.64,4.64l.54.28,15.09,7.35c.12.06.28.09.34.18s.29.4.25.56-.35.31-.61.19a3.13,3.13,0,0,1-.32-.15L143.54,118a2.66,2.66,0,0,0-3.15,4.15,3.51,3.51,0,0,0,1,.74l13.24,6.46" style="fill:#4e2fbf"/><path d="M19.72,93.77A33.27,33.27,0,0,1,31,48.08" style="fill:none;stroke:#0410f2;stroke-miterlimit:10;stroke-width:1.29672px"/><path d="M71.79,18.4a33.26,33.26,0,0,1,47.05-.13" style="fill:none;stroke:#0410f2;stroke-miterlimit:10;stroke-width:1.29672px"/><path d="M162.93,49.57a33.27,33.27,0,0,1,12,45.5" style="fill:none;stroke:#0410f2;stroke-miterlimit:10;stroke-width:1.29672px"/><path d="M162.71,151a33.28,33.28,0,0,1-39,26.39" style="fill:none;stroke:#0410f2;stroke-miterlimit:10;stroke-width:1.29672px"/><path d="M73.41,177.65a33.28,33.28,0,0,1-36.78-29.34" style="fill:none;stroke:#0410f2;stroke-miterlimit:10;stroke-width:1.29672px"/><polygon points="31.74 51.9 28.17 45.41 33.2 46.87 31.74 51.9" style="fill:#0410f2"/><polygon points="31.74 51.9 28.17 45.41 33.2 46.87 31.74 51.9" style="fill:#0410f2"/><polygon points="115.67 20.72 120.61 15.21 120.9 20.44 115.67 20.72" style="fill:none;stroke:#0410f2;stroke-miterlimit:10;stroke-width:1.29672px"/><polygon points="115.67 20.72 120.61 15.21 120.9 20.44 115.67 20.72" style="fill:#0410f2"/><polygon points="172.86 90.52 179.35 94.06 174.34 95.53 172.86 90.52" style="fill:#231f20"/><polygon points="172.86 90.52 179.35 94.06 174.34 95.53 172.86 90.52" style="fill:#0410f2"/><polygon points="125.31 173.62 124.42 180.97 121.19 176.85 125.31 173.62" style="fill:#231f20"/><polygon points="125.31 173.62 124.42 180.97 121.19 176.85 125.31 173.62" style="fill:#0410f2"/><polygon points="40.26 149.52 33.02 151.06 35.87 146.67 40.26 149.52" style="fill:#231f20"/><polygon points="40.26 149.52 33.02 151.06 35.87 146.67 40.26 149.52" style="fill:#0410f2"/><path d="M412.38,126.61v-2H385.8a2.73,2.73,0,0,1-3-2.27,2.67,2.67,0,0,1,2.8-3.11c2.93,0,5.85,0,8.77,0h9.22c0-.71-.08-1.33-.12-2-6.19,0-12.3-.06-18.41,0a3.79,3.79,0,0,0-3.52,2.45,1,1,0,0,1-.72.47,13.08,13.08,0,0,1-2,0,3.6,3.6,0,0,1-3.43-3.62,3.65,3.65,0,0,1,3.51-3.65c1.65,0,3.31,0,5,0h19.64v-1.65H382.16c-1.1,0-1.29-.17-1.36-1.27a3.4,3.4,0,0,1,3.34-3.62c1.39,0,2.78,0,4.16,0q16,0,32,0a1.24,1.24,0,0,0,1.34-.85c2.27-5.18,4.6-10.34,6.88-15.51a1.16,1.16,0,0,1,1.25-.84c6.15,0,12.3,0,18.45,0h.89c-.16.36-.26.64-.39.9-6,12.08-12,24.14-17.92,36.25-2,4.1-5.22,6.28-9.69,6.4-5.81.17-11.62.11-17.44.09a3.12,3.12,0,0,1,.11-6.23c2.53,0,5.06,0,7.59,0Z" style="fill:#f25ca2"/><path d="M370.35,105.15c-.24.26-.48.72-.82.82a2.12,2.12,0,0,1-1.2-.31c-.15-.07-.21-.35-.29-.54q-2.28-6.12-4.55-12.25l-.07-.16c-.2-.66-.11-1.25.58-1.51a1.07,1.07,0,0,1,1.49.76c1,2.64,2,5.29,3,7.93.53,1.44,1.07,2.87,1.6,4.31.09.25.16.51.3,1" style="fill:#f25ca2"/><path d="M366.61,111.06c-.26.31-.44.72-.74.85a1.64,1.64,0,0,1-1.09-.06c-.26-.09-.44-.4-.64-.62l-6.51-7.5-.24-.27c-.54-.67-.56-1.31,0-1.74s1.17-.26,1.65.29l5.75,6.6c.43.5.88,1,1.29,1.51a7.51,7.51,0,0,1,.53.94" style="fill:#f25ca2"/><path d="M376.47,98.26c0,1.29,0,2.58,0,3.87,0,.75-.31,1.27-1.07,1.27s-1.12-.51-1.12-1.25c0-2.58,0-5.16,0-7.74,0-.74.39-1.24,1.14-1.23s1.05.49,1.05,1.2v3.88" style="fill:#f25ca2"/><path d="M322.74,143.57V128.71h.95c5.13-.17,10.26-.32,15.39-.52A13,13,0,0,0,344,127a55.2,55.2,0,0,1,11.61-4.27,11.77,11.77,0,0,1,5.47.1c2.24.57,4.57.71,6.85,1.13a27.38,27.38,0,0,1,4.47,1.14c1.89.69,2.77,2,2.58,3.5a3.77,3.77,0,0,1-3.52,3.48c-2.31.35-4.55-.21-6.8-.6-1.66-.28-3.32-.56-5-.8a5.26,5.26,0,0,0-1.48,0,1.21,1.21,0,0,0-.86,2.06A5.47,5.47,0,0,0,359,134a18.85,18.85,0,0,0,6.31,1.59,44.19,44.19,0,0,0,12.37-.14,10.07,10.07,0,0,0,2.81-.92,47.48,47.48,0,0,1,10-4.09,10.74,10.74,0,0,1,3.19-.26,2.51,2.51,0,0,1,2.12,3.89,11,11,0,0,1-2.69,2.91c-4,3.09-6.21,3.31-10.89,5.09a30.89,30.89,0,0,1-9.23,2.12c-7.07.27-11.66.56-18.79,0-3.25-.87-8.23-.78-10.88-2.3a8.89,8.89,0,0,0-2.2-.15l-18,1.84c-.11,0-.21,0-.37,0" style="fill:#f2e74b"/><path d="M278.46,106l-7.13-7.13a.44.44,0,0,0-.3-.12.42.42,0,0,0-.3.12.43.43,0,0,0,0,.61l6.82,6.82-6.82,6.82a.43.43,0,0,0,0,.61.42.42,0,0,0,.6,0l7.13-7.13A.42.42,0,0,0,278.46,106Z" style="fill:none;stroke:#0410f2;stroke-miterlimit:10;stroke-width:1.29672px"/><line x1="278.42" y1="106.71" x2="233" y2="106.71" style="fill:none;stroke:#0410f2;stroke-miterlimit:10;stroke-width:2px"/><text transform="translate(312.05 67.91)" style="font-size:29px;fill:#f25ca2;font-family:ProvidenceSansPro-Bold, Providence Sans Pro;font-weight:700">... DOUE !</text></svg>