<svg id="Calque_1" data-name="Calque 1" xmlns="http://www.w3.org/2000/svg" viewBox="0 0 256.92 281.76"><title>schema_chifoumi</title><text transform="translate(14.9 12.11)" style="font-size:12px;fill:#f24343;font-family:McLaren-Regular, McLaren">PIERRE</text><text transform="translate(190.61 13.52)" style="font-size:12px;fill:#4e2fbf;font-family:McLaren-Regular, McLaren">FEUILLE</text><text transform="translate(102.53 276.4)" style="font-size:12px;fill:#f2e74b;font-family:McLaren-Regular, McLaren">CISE<tspan x="27.91" y="0" style="letter-spacing:-0.009765625em">A</tspan><tspan x="37.03" y="0">UX</tspan></text><path d="M76.66,57.63A36.14,36.14,0,1,1,40.52,21.49,36.14,36.14,0,0,1,76.66,57.63Z" style="fill:none;stroke:#ef4343;stroke-miterlimit:10;stroke-width:1.5146300000000001px"/><path d="M15.79,62.55a37.11,37.11,0,0,0,10-3.41,9.14,9.14,0,0,0,3.54-3,23.07,23.07,0,0,0,2-4.21,76.53,76.53,0,0,1,3.53-8.53c1.43-2.64,3.57-5.49,6.66-6.16a19.68,19.68,0,0,1,6.08,0,9.75,9.75,0,0,1,2.93.56c.6.26,1.32,1.09.65,1.68a.63.63,0,0,0,.28,1A4.19,4.19,0,0,1,54,45.59a.64.64,0,0,0,.44.77,2.32,2.32,0,0,1,1.38,3.11.63.63,0,0,0,.22.85,2.17,2.17,0,0,1,.77,3.15.63.63,0,0,0,.54.94c.34,0,.53.29.53.61a1.79,1.79,0,0,1-.64,1.1c-.74.73-1.58,1.39-2.36,2.07q-2.39,2.09-4.78,4.16a71.63,71.63,0,0,1-9.36,7.08,38.24,38.24,0,0,1-5.34,2.71,35.9,35.9,0,0,0-5.51,2.58,22.37,22.37,0,0,0-2.37,1.72c-.24.2-.72.78-1,.7s-.8-.66-1.07-.89a45,45,0,0,1-3.87-3.7A21.29,21.29,0,0,1,15.89,62c-.09.24-.19.47-.29.71l.34-.22c.67-.43.05-1.51-.63-1.08l-.34.22a.66.66,0,0,0-.28.71,21.89,21.89,0,0,0,5.38,10.42,42.54,42.54,0,0,0,4.39,4.31c.6.51,1.39,1.47,2.26,1.36a1.82,1.82,0,0,0,1-.53c.47-.4.93-.8,1.42-1.16a26.41,26.41,0,0,1,6-3.18,40.54,40.54,0,0,0,6-2.94,77,77,0,0,0,10.47-8c2-1.76,4.05-3.51,6.06-5.28a3.26,3.26,0,0,0,1.41-2.51,1.75,1.75,0,0,0-1.77-1.71l.54.94a3.42,3.42,0,0,0-1.22-4.86c.08.29.15.58.22.86a3.58,3.58,0,0,0-2.12-4.94l.44.77a5.47,5.47,0,0,0-3.38-6.61l.27,1A2.22,2.22,0,0,0,51.59,37a5.6,5.6,0,0,0-2.36-.75c-1-.15-2-.26-3-.33a16.46,16.46,0,0,0-5.6.32,9.61,9.61,0,0,0-4.26,2.87,25.61,25.61,0,0,0-4.7,8.41C31.12,49,30.57,50.56,30,52.08a12.08,12.08,0,0,1-2.65,4.61,17.11,17.11,0,0,1-5.45,2.85,37.24,37.24,0,0,1-6.39,1.81c-.79.15-.45,1.35.33,1.2Z" style="fill:#ef4343"/><path d="M45.64,40.09a7.46,7.46,0,0,1,2.86.18,9.92,9.92,0,0,0,3,.31.64.64,0,0,0,.62-.63.63.63,0,0,0-.62-.62,8.14,8.14,0,0,1-1.56,0,14,14,0,0,1-1.4-.3,8.61,8.61,0,0,0-3.2-.1.63.63,0,0,0-.44.77.64.64,0,0,0,.77.43Z" style="fill:#ef4343"/><path d="M50.65,44.32a2.14,2.14,0,0,1,1.06.14,4,4,0,0,1,.94.54l.35.29.41.39a2.32,2.32,0,0,0,1.05.65.63.63,0,0,0,.77-.43.64.64,0,0,0-.44-.77l-.12,0c.09,0,0,0,0,0l-.1-.06,0,0-.39-.37a9.91,9.91,0,0,0-1-.82,3.82,3.82,0,0,0-2.46-.73.64.64,0,0,0-.62.63.62.62,0,0,0,.62.62Z" style="fill:#ef4343"/><path d="M253.17,57.63a36.55,36.55,0,1,1-36.55-36.55A36.55,36.55,0,0,1,253.17,57.63Z" style="fill:none;stroke:#4e2fbf;stroke-miterlimit:10;stroke-width:1.5146300000000001px"/><path d="M196,66.41c.67-.33,1.43-.45,2.1-.78a3.16,3.16,0,0,0,1.55-1.88,23.74,23.74,0,0,0,.88-3.31c.28-1.16.56-2.32.85-3.48a15,15,0,0,1,2.49-5.73,13.85,13.85,0,0,1,4.58-3.89,16.28,16.28,0,0,1,7.2-1.83.63.63,0,0,0,0-1.26A16.64,16.64,0,0,0,204.12,49a14.45,14.45,0,0,0-3.24,5.09,63.23,63.23,0,0,0-1.79,7c-.23,1-.39,2.67-1.29,3.3a16.56,16.56,0,0,1-2.43.95c-.73.35-.09,1.44.64,1.09" style="fill:#4e2fbf"/><path d="M204.3,54.14a83.85,83.85,0,0,0,15.48-11.4c2.19-2,4.25-4.32,6.93-5.75a4.71,4.71,0,0,1,2.23-.75c.75,0,1.38.59,1,1.35a5.94,5.94,0,0,1-1.43,1.57l-2,1.9-8.79,8.29c-.59.56.3,1.45.89.89l8.61-8.12,2-1.89A9.32,9.32,0,0,0,231,38.39a2.15,2.15,0,0,0-1.11-3.24c-1.58-.59-3.39.46-4.69,1.28a26.2,26.2,0,0,0-3.77,3c-2.51,2.35-5,4.7-7.68,6.83a82.11,82.11,0,0,1-10.05,6.76.63.63,0,0,0,.64,1.09" style="fill:#4e2fbf"/><path d="M231.22,38.08a4.67,4.67,0,0,1,2.46-.44c1,.19.25,1.41-.06,1.9A28.29,28.29,0,0,1,230,43.79l-8.14,8.87c-.55.6.34,1.49.89.89l9.83-10.71c1.15-1.26,3.1-3.08,2.85-5-.28-2.15-3.17-1.55-4.53-1-.74.29-.42,1.52.34,1.22" style="fill:#4e2fbf"/><path d="M233.57,42c.64-.5,1.51-.61,1.87.28s-.32,2.07-.75,2.85a24.8,24.8,0,0,1-3.39,4.74c-1.34,1.48-2.85,2.8-4.17,4.31-1,1.11-2,2.12-3.07,3.18-.56.59.33,1.48.9.9,1.29-1.35,2.57-2.69,3.85-4a70,70,0,0,0,4.91-5.28,25.76,25.76,0,0,0,1.95-3,6.44,6.44,0,0,0,1.12-3.23,2.36,2.36,0,0,0-3.86-1.82c-.64.48,0,1.58.64,1.09" style="fill:#4e2fbf"/><path d="M233.57,48.86c1.64.34,1.39,2.41.74,3.49a13.25,13.25,0,0,1-1.57,2c-.67.79-1.35,1.58-2,2.36l-8.06,9.33a29.48,29.48,0,0,1-4,3.87c-1.61,1.27-3.25,2.52-4.87,3.78-.72.57-1.45,1.13-2.18,1.69l-1.18.93c-.48.37-.74.53-1.32.28A60.17,60.17,0,0,1,203.72,74c-3.42-1.89-5.5-5.2-7.49-8.44a.63.63,0,0,0-1.09.63c1.93,3.15,4,6.42,7.17,8.44a55.06,55.06,0,0,0,5.86,2.91,2.46,2.46,0,0,0,2.41.25,21.08,21.08,0,0,0,2.56-2c3.47-2.7,7.19-5.21,10.09-8.53s6-6.9,8.94-10.35c.79-.92,1.61-1.82,2.38-2.77A7,7,0,0,0,236,51.66c.43-1.6-.31-3.66-2.08-4-.79-.17-1.13,1-.33,1.22" style="fill:#4e2fbf"/><path d="M165.09,220.71a36.32,36.32,0,1,1-36.31-36.32A36.32,36.32,0,0,1,165.09,220.71Z" style="fill:none;stroke:#f2e74b;stroke-miterlimit:10;stroke-width:1.50496px"/><path d="M118.54,241a22.8,22.8,0,0,1-10.16-11.24c-.09.24-.19.48-.28.71a33.66,33.66,0,0,0,8.35-7.62,99.58,99.58,0,0,0,7-9.6c2-3.15,3.6-6.51,5.41-9.77a28.18,28.18,0,0,1,3-4.48,12.13,12.13,0,0,1,1.88-1.91c1.07-.8,1.45.47,1.18,1.34a16.48,16.48,0,0,1-1.26,2.61c-.44.82-.89,1.63-1.33,2.46a28.93,28.93,0,0,0-2.19,5c-.42,1.36-1,3.35-.29,4.71,1,1.78,2.94.34,4.12-.36,3.25-1.91,6.41-4.06,9.92-5.48a20.85,20.85,0,0,1,2.66-.91c.78-.21,2.28-.5,2.59.58.22.75-1.12,1.49-1.6,1.86q-1.12.89-2.31,1.71-2.41,1.69-5,3.18c-1.68,1-3.45,1.78-5.12,2.79-1,.61-3.49,2.15-2,3.53a3,3,0,0,0,1.81.49,1.77,1.77,0,0,1,1.63,1.19,2.14,2.14,0,0,1-.81,2.26.64.64,0,0,0-.1.76,5.08,5.08,0,0,1,.8,2.38,2.94,2.94,0,0,1-1.58,2.41c-.46.29-1,.5-1.43.81a8.72,8.72,0,0,0-1.28,1.08c-.79.78-1.53,1.61-2.37,2.36-3.41,3-7.58,5.1-11.65,7.12-.73.35-.09,1.43.63,1.08a61.1,61.1,0,0,0,10-5.79,42.11,42.11,0,0,0,4.23-3.89c1.29-1.27,3.15-1.77,4.15-3.35s.4-3.44-.46-4.84c0,.25-.07.51-.1.76a3.26,3.26,0,0,0,.67-4.38,2.84,2.84,0,0,0-1.86-1.15c-.32-.05-.65-.06-1-.1s-.68-.08-.36-.47a8.5,8.5,0,0,1,2.49-1.67c.88-.49,1.78-.94,2.67-1.41q2.7-1.46,5.25-3.17a53.08,53.08,0,0,0,4.85-3.57,2.32,2.32,0,0,0,1-2,2.26,2.26,0,0,0-1.36-1.79,4.11,4.11,0,0,0-2.83,0,22.62,22.62,0,0,0-2.77.95,42.23,42.23,0,0,0-5.16,2.6c-1.7,1-3.36,2-5,3-.49.28-2,1.51-2.34.69a4.43,4.43,0,0,1,.13-2.47c.84-3.82,3.2-7,4.78-10.5a3.56,3.56,0,0,0,.35-2.63,2,2,0,0,0-1.64-1.37,3.05,3.05,0,0,0-2.22,1.14,20,20,0,0,0-1.84,2.06c-2.3,2.94-3.81,6.36-5.58,9.62a83.17,83.17,0,0,1-6.76,10.38,49.41,49.41,0,0,1-8.21,8.94,21.46,21.46,0,0,1-2.42,1.7.63.63,0,0,0-.28.71,24.19,24.19,0,0,0,10.72,12c.71.38,1.35-.7.64-1.09" style="fill:#f2e74b"/><line x1="155.13" y1="166.57" x2="186.4" y2="114.53" style="fill:none;stroke:#f2e74b;stroke-linecap:round;stroke-linejoin:round;stroke-width:2.054px"/><polyline points="179.33 115.14 187.28 113.05 189.32 120.9" style="fill:none;stroke:#f2e74b;stroke-linecap:round;stroke-linejoin:round;stroke-width:3px"/><line x1="68.23" y1="113.19" x2="99.93" y2="164.96" style="fill:none;stroke:#ef4343;stroke-linecap:round;stroke-linejoin:round;stroke-width:2.054px"/><polyline points="102.66 158.41 100.83 166.43 92.93 164.61" style="fill:none;stroke:#ef4343;stroke-linecap:round;stroke-linejoin:round;stroke-width:3px"/><line x1="159.99" y1="55.78" x2="99.28" y2="55.95" style="fill:none;stroke:#4e2fbf;stroke-linecap:round;stroke-linejoin:round;stroke-width:2.054px"/><polyline points="103.43 50.19 97.56 55.95 103.26 61.72" style="fill:none;stroke:#4e2fbf;stroke-linecap:round;stroke-linejoin:round;stroke-width:3px"/></svg>