<svg id="Calque_1" data-name="Calque 1" xmlns="http://www.w3.org/2000/svg" viewBox="0 0 60 60"><title>schema_elephant</title><circle cx="29.92" cy="30.08" r="29.5" style="fill:#a7f2d6"/><path d="M16.47,16.1a19.52,19.52,0,0,0,.78,2.68c.22.71.51,1.39.74,2.09a2.73,2.73,0,0,0,.32.72,9.1,9.1,0,0,1,.48,1.05.73.73,0,0,1,.07.24,1.76,1.76,0,0,0,.16.49c.14.34.24.7.36,1.05,0,.11.1.3.13.42a9.82,9.82,0,0,0,.32,1,8.57,8.57,0,0,1,.63,1.83c.07.53.12,1.06.14,1.6,0,.2,0,.41,0,.62s.05.36-.08.51-.22-.11-.3-.2a5.75,5.75,0,0,1-.64-1.29,4.25,4.25,0,0,1-.21-.49c-.17-.5-.29-1-.5-1.51a11.42,11.42,0,0,1-.59-2.13c0-.19-.05-.39-.1-.58-.1-.38-.2-.77-.31-1.15s-.25-.84-.37-1.26l-.18-.59a11.18,11.18,0,0,0-.38-1.11,8.53,8.53,0,0,0-.57-1,4.72,4.72,0,0,0-.61-.73,1.5,1.5,0,0,0-1.68-.18,1.19,1.19,0,0,0-.63.56A4.17,4.17,0,0,0,13,20a1.8,1.8,0,0,0,0,.73A12.45,12.45,0,0,0,13.41,22c.11.29.23.58.34.88s.17.55.26.82.27.65.37,1c.22.76.52,1.49.68,2.27.12.6.28,1.2.43,1.8,0,.22.12.45.17.68a2.63,2.63,0,0,1,.06.39c0,.08,0,.16,0,.24,0,.52.14,1,.15,1.57A13.46,13.46,0,0,1,15.76,34a3.53,3.53,0,0,0,0,.46c0,.14,0,.29,0,.43a7.79,7.79,0,0,0,0,1.45c0,.53,0,1.06.06,1.6s.09,1.38.17,2.07a11.22,11.22,0,0,0,.19,1.16c.08.42.15.85.25,1.27s.35,1.14.47,1.72a6.46,6.46,0,0,0,.34,1.16c.36.87.58,1.78,1,2.64a14.56,14.56,0,0,0,1.14,2.18,13.81,13.81,0,0,0,.86,1.12,6.51,6.51,0,0,0,1,1,6.05,6.05,0,0,0,1.84,1,5.52,5.52,0,0,0,1.13.29,8.56,8.56,0,0,0,1.68,0,3.72,3.72,0,0,1,1,0s2.31.06,2.95,0c.3,0,.6,0,.89,0a.63.63,0,0,0,.24,0,30.08,30.08,0,0,0,3.7-.81c.58-.28,1.9-1,2.45-1.39a5.61,5.61,0,0,0,.7-.59c.26-.26.49-.55.75-.8s.37-.3.55-.46.27-.34.43-.47a8.91,8.91,0,0,0,1.25-1.28c.28-.32.53-.65.79-1,.13-.17.28-.33.41-.52s.37-.56.55-.85l.82-1.34c.13-.21.23-.44.37-.64.61-.89,1.15-1.82,1.7-2.74a7.34,7.34,0,0,1,.48-.71c.29-.37.6-.71.91-1a.57.57,0,0,1,.16-.15l.89-.58.38-.29c.46-.31.94-.6,1.37-.94a11.79,11.79,0,0,1,1.87-1.34,2.37,2.37,0,0,0,.8-.6,2.19,2.19,0,0,0,.45-1.48.9.9,0,0,0-.08-.28,2.33,2.33,0,0,0-.55-1,1.08,1.08,0,0,1-.11-.18,3.53,3.53,0,0,0-1.41-1.38,2.86,2.86,0,0,0-2.25-.22,6.8,6.8,0,0,0-1.45.73,16.41,16.41,0,0,0-2,1.68l-.07.07c-.34.43-.69.84-1,1.28s-.65.93-1,1.41a5.43,5.43,0,0,1-1.1,1.34,1.87,1.87,0,0,0-.32.31,1.35,1.35,0,0,1-1.08.58c-1.63-.16-.82-3.73-.82-3.73a1.1,1.1,0,0,1,0-.16,4.53,4.53,0,0,1,.09-.74c0-.21,0-.43.11-.65s.19-.69.27-1,.07-.42.12-.64c.15-.7.32-1.39.48-2.09a2.5,2.5,0,0,0,.06-.38c.08-.57.15-1.15.23-1.73,0-.13.06-.26.06-.39a6.73,6.73,0,0,0-.11-1.9,1,1,0,0,1-.05-.45A4.11,4.11,0,0,0,40.8,23a.5.5,0,0,1,0-.12c.11-.38.23-.75.33-1.12.22-.76.45-1.52.63-2.29A9.31,9.31,0,0,0,42,16.71a1,1,0,0,0-.22-.69.54.54,0,0,1-.07-.13A2,2,0,0,0,41,15a3.1,3.1,0,0,0-1.68-.61.43.43,0,0,0-.29.07,1.83,1.83,0,0,0-.95.93.36.36,0,0,1-.13.19,3.85,3.85,0,0,0-.63,1,6.65,6.65,0,0,0-.66,1.72,6,6,0,0,0-.13.76c0,.19,0,.39,0,.58-.08.52-.18,1-.25,1.54s-.09,1-.22,1.56l-.76,4.14a.7.7,0,0,1,0,.14c-.2.55-.44,1.07-.61,1.63a14.13,14.13,0,0,1-.72,1.76c0,.09-.07.21-.22.2s-.07-.11-.06-.18a.56.56,0,0,0,0-.36,3.75,3.75,0,0,1-.07-2,2.34,2.34,0,0,0,0-.79,1.18,1.18,0,0,1,0-.62c.13-.43.31-.85.47-1.27a5.71,5.71,0,0,0,.3-.67,5.51,5.51,0,0,1,.51-1.37c.06-.11.06-.26.13-.36s.6-2.77.6-2.77a3.62,3.62,0,0,1,.23-1c.14-.42.22-.85.33-1.28,0-.12,0-.25,0-.36s0-.34,0-.65c0-.05,0-.1,0-.15a2,2,0,0,1,.09-.42c0-.11.43-1.93.43-1.93,0-.25,0-.51.05-.76s.06-.31.06-.46a3.07,3.07,0,0,0-.57-1.7c-.23-.32-.52-.61-.74-.94a1,1,0,0,0-.74-.47,1.42,1.42,0,0,0-1.07.18,1.67,1.67,0,0,0-.33.32q-.33.4-.63.84a2.43,2.43,0,0,0-.28.56c0,.07-.21.37-.25.43a1.72,1.72,0,0,0-.35.73c0,.14-.15.26-.12.41A5.52,5.52,0,0,0,31.35,15c-.07.57-2.34,9.27-2.34,9.27-.23.75-.43,1.52-.68,2.27a10.13,10.13,0,0,1-.68,1.55A6.84,6.84,0,0,1,27,29.13a1.24,1.24,0,0,1-.32.28.49.49,0,0,1-.73-.2A11.56,11.56,0,0,1,25.37,28c-.21-.63-.38-1.27-.57-1.92s-.32-1.21-.49-1.81c-.32-1.11-.63-2.21-1-3.32a6.29,6.29,0,0,0-.31-1c-.15-.31-.18-.67-.3-1a11.5,11.5,0,0,1-.4-1.42c-.17-.72-.37-1.43-.59-2.14a9.91,9.91,0,0,0-.48-1.17,3.9,3.9,0,0,0-1.8-1.72,1,1,0,0,0-.68.05S16,13.62,16.47,16.1m2.81-2.84a.45.45,0,0,1,.45.14c.05,0,.11.1.15.15a4.21,4.21,0,0,1,1,1.79c.09.46.26.89.37,1.34.18.73.34,1.46.5,2.19.1.48.18.95.29,1.42s.17.64.26.95c.24.83.48,1.66.71,2.49.16.55.31,1.09.45,1.63a18.58,18.58,0,0,0,.73,2.55c.2.5.42,1,.64,1.48a1.48,1.48,0,0,0,.62.62,2.12,2.12,0,0,0,1.79,0A2.15,2.15,0,0,0,28,29a3.76,3.76,0,0,1,.39-.59,4,4,0,0,0,.45-1.11c.11-.33.2-.66.3-1l.54-1.7s.54-1.72.66-2A17.09,17.09,0,0,0,31,20.76c0-.17,0-.35.09-.52.13-.49.28-1,.42-1.45.09-.33.17-.66.26-1a1.67,1.67,0,0,1,.08-.2,3.45,3.45,0,0,0,.14-.34c.1-.39.21-.77.31-1.16s.17-.74.27-1.1c.06-.2.15-.39.21-.58a9.3,9.3,0,0,1,.75-1.82c.14-.26.23-.55.38-.81a5.89,5.89,0,0,1,.58-.83.37.37,0,0,1,.55,0,2.77,2.77,0,0,1,1,1.6,4.58,4.58,0,0,1,.07,1.11,14.8,14.8,0,0,1-.53,2.87,3.12,3.12,0,0,0-.11.61,2.93,2.93,0,0,1-.21.86c-.13.36-.22.74-.33,1.11-.18.61-.36,1.21-.52,1.82,0,.17-.08.34-.12.51a13.57,13.57,0,0,1-.87,2.73c-.17.4-.24.83-.4,1.23a16.28,16.28,0,0,0-.51,1.94,2.76,2.76,0,0,0-.07,1.37c.06.27,0,.55.08.82a7.51,7.51,0,0,0,.21.78,1.91,1.91,0,0,0,.64.89.86.86,0,0,0,.85.13.7.7,0,0,0,.29-.3,10.54,10.54,0,0,0,.89-1.93,15.61,15.61,0,0,1,.68-1.88,6.21,6.21,0,0,0,.38-1.32c.19-.95.4-1.89.57-2.84s.33-2.07.5-3.11l.21-1.31a.61.61,0,0,1,.07-.17,7,7,0,0,0,.52-1.41,1.52,1.52,0,0,1,.06-.2c.2-.32.41-.63.59-1a2.67,2.67,0,0,0,.14-.36c.08-.26.31-.49.53-.46a2.12,2.12,0,0,1,.6.2,1.6,1.6,0,0,1,.38.26,1.5,1.5,0,0,1,.59,1,6.09,6.09,0,0,1,0,1.35,12.06,12.06,0,0,1-.55,2.52c-.2.63-.4,1.25-.59,1.88a4.69,4.69,0,0,0-.11.54,6.63,6.63,0,0,0-.21,2.26,7.12,7.12,0,0,1-.14,1.66,7.33,7.33,0,0,1-.13.94c-.09.47-.2.93-.29,1.39-.22,1.13-.45,2.26-.66,3.39,0,.12-.29,3.72-.3,4.05,0,.93.28,1.52,1.44,2.21,0,0,1.68.68,3.39-2.25a5,5,0,0,1,.74-.92,1.72,1.72,0,0,0,.31-.45,4.05,4.05,0,0,1,.82-1.1,6.57,6.57,0,0,0,.48-.57,1.17,1.17,0,0,1,.41-.31,3.35,3.35,0,0,0,.57-.44s1.92-1.58,2.78-1.32c.28.09.57.12.84.18a.88.88,0,0,1,.28.12c.19.14.37.29.55.45a2.14,2.14,0,0,1,.28.32c.14.17.25.36.39.51a.46.46,0,0,1,.1.54,2.64,2.64,0,0,1-.64,1c-.68.6-1.35,1.2-2,1.78-.27.23-.61.39-.89.6s-.8.61-1.18.94a11.06,11.06,0,0,0-2,2.34c-.18.29-.33.59-.5.88l-.61,1c-.34.57-.67,1.15-1,1.71s-.56.86-.85,1.28-.67.94-1,1.39a13.9,13.9,0,0,1-1.48,1.68,7.84,7.84,0,0,1-.92.81,6.31,6.31,0,0,0-.76.7,4.45,4.45,0,0,1-.48.38c-.21.16-.42.34-.63.49a1.64,1.64,0,0,1-.29.16,2.39,2.39,0,0,0-.28.13c-.31.19-.59.41-.91.58s-.73.31-1.09.5a4.47,4.47,0,0,1-1.69.41l-3,.31c-.53.06-1.06.13-1.59.17-.35,0-.7,0-1.05,0l-1,0a3.47,3.47,0,0,1-1.35-.24,3.37,3.37,0,0,0-.86-.25,8.25,8.25,0,0,1-2.31-1.16,10.28,10.28,0,0,1-1.49-2.26,16,16,0,0,1-.72-1.77c-.24-.64-.46-1.3-.68-2-.09-.28-.16-.57-.23-.86-.21-.86-.46-1.71-.66-2.57a10.23,10.23,0,0,1-.27-1.83c0-.58-.1-1.16-.13-1.75,0-.31,0-.61,0-.92s0-.74,0-1.11,0-.59.05-.89c0-.12,0-.24,0-.36a1.63,1.63,0,0,1,0-.54,5.86,5.86,0,0,0,0-1.11,4.87,4.87,0,0,0,0-.54,6.5,6.5,0,0,0,0-1.08,5,5,0,0,0-.15-1.33.82.82,0,0,1,0-.22,1.2,1.2,0,0,0-.05-.33,2.68,2.68,0,0,1-.21-.92.63.63,0,0,0,0-.19l-.33-1.09c-.05-.18-.08-.37-.14-.56a3.42,3.42,0,0,0-.13-.34,13.48,13.48,0,0,0-.6-1.48l-.87-2c-.1-.32-.21-.63-.31-.94L14,22c-.1-.35-.21-.7-.31-1.06a2,2,0,0,1,.88-2.13.51.51,0,0,1,.76.13A3.68,3.68,0,0,1,16.06,20a14.2,14.2,0,0,1,.55,1.71c.12.49.25,1,.36,1.47.26,1.07.49,2.16.77,3.22.1.38.23.74.35,1.11.06.18.1.37.16.56a9.31,9.31,0,0,0,.82,1.75,7,7,0,0,0,.72.93s1.1.85,1.64.18a1.53,1.53,0,0,0,.16-.25.65.65,0,0,0,.09-.23,5,5,0,0,0,0-1.16c-.08-.44-.07-.88-.12-1.32s-.1-.59-.14-.88,0-.32,0-.48a4.45,4.45,0,0,0-.12-.73c-.33-1-.67-2-1-3,0-.13-.06-.26-.11-.39-.11-.3-.22-.59-.34-.89s-.27-.66-.39-1c-.23-.68-.58-1.32-.77-2-.09-.35-.27-.68-.38-1s-.33-1-.46-1.51a2.14,2.14,0,0,1,1.48-2.86" style="fill:#0410f2"/></svg>