<svg id="Calque_1" data-name="Calque 1" xmlns="http://www.w3.org/2000/svg" viewBox="0 0 60 60"><title>schema_elephant</title><circle cx="29.99" cy="30.08" r="29.5" style="fill:#a7f2d6"/><path d="M12,29.62c-.15,0-.13-.06-.11-.14a.9.9,0,0,0,.08-.21c0-.1,0-.2,0-.3a.18.18,0,0,1,0-.11,3.13,3.13,0,0,0,.73-.63c.51-.48,1-1,1.52-1.44a7.79,7.79,0,0,1,.87-.64c.24-.18.49-.34.74-.51s.48-.32.71-.49l.86-.65.65-.41.18-.12.85-.44.63-.32c.28-.15.54-.31.82-.45s.6-.28.89-.42l.65-.34.86-.42.3-.14.86-.41.7-.31c.3-.14.59-.3.89-.43a4.83,4.83,0,0,1,.74-.22,3.48,3.48,0,0,1,.64-.07c.22,0,.45,0,.67,0a9.57,9.57,0,0,0,1.31,0c.46,0,.92,0,1.37,0s1.15,0,1.72.06,1.24.11,1.86.18,1.47.15,2.2.25a3.93,3.93,0,0,1,.75.19c.55.17,1.11.33,1.66.53.36.12.68.32,1,.44a7.63,7.63,0,0,1,1.41.75c.25.15.48.33.72.49s.38.22.56.34.49.33.71.52c.39.36.77.72,1.13,1.1s.65.79,1,1.2.56.85.89,1.24.65.79,1,1.2a5.15,5.15,0,0,1,.47.74c.09.18.12.4.2.59A2.14,2.14,0,0,1,47.79,31a.94.94,0,0,1-.19.42,2.23,2.23,0,0,0-.2.33,11.55,11.55,0,0,1-1,1.42,4.33,4.33,0,0,1-.86.85l-1,.69c-.31.22-.62.44-.94.64s-.59.38-.9.56-.68.38-1,.56l-.75.4-1.63.94c-.23.13-.48.23-.72.35l-1,.45-1.27.53c-.33.13-.66.24-1,.36l-.88.32-.93.34c-.26.1-.52.22-.77.33l-.37.17-.63.32-.43.19c-.09,0-.18.1-.28.14l-.42.17-.3.11a2.72,2.72,0,0,1-.38.11l-.5.06a2.17,2.17,0,0,1-.36,0l-.33,0c-.15,0-.29,0-.43,0s-.51,0-.77,0l-.91-.15L26,41.47c-.11,0-.23,0-.34,0s-.47-.05-.7-.09-.22-.1-.31-.08-.21,0-.32-.06L24,41.14l-.2-.08-.11,0-.09,0c-.13,0-.23-.13-.36-.09s-.16,0-.2-.12-.13,0-.19,0l-1-.37-.62-.25-.54-.21-.46-.18c-.19-.07-.38-.11-.56-.19s-.5-.23-.73-.36a6.28,6.28,0,0,1-.69-.45c-.42-.33-.87-.63-1.32-.92s-.86-.6-1.28-.9a11.49,11.49,0,0,1-1.33-1.28c-.41-.43-.73-.93-1.1-1.39a5.52,5.52,0,0,1-.48-.77c-.16-.27-.33-.53-.47-.81a3.88,3.88,0,0,1-.45-1.37,5.43,5.43,0,0,1,.06-1C11.93,30.1,12,29.87,12,29.62Zm23.73-7.86-.5-.2c.25.19.34.22.5.2s.12.11.19.15l.6.27.5.25.6.38a2,2,0,0,0,.31.19c.29.14.59.26.89.38.11,0,.17.17.32.17s0,0,.06.05l.09,0,.26.12.37.19,0-.05-.15-.11-.17-.09-1.21-.66-.86-.44c-.25-.13-.49-.27-.72-.41A4.43,4.43,0,0,0,35.74,21.76Zm.66,2.37a1,1,0,0,0-.35-.35c-.06,0-.14-.05-.17-.09a.3.3,0,0,0-.31-.16c0-.11-.08-.17-.23-.14a.54.54,0,0,0-.09-.12,6.38,6.38,0,0,0-.57-.32,4.48,4.48,0,0,0-.87-.3,7.64,7.64,0,0,0-1-.13c-.28,0-.56-.05-.83-.1s-.64,0-1,0a3.14,3.14,0,0,0-.52,0,2.48,2.48,0,0,1-.38,0L30,22.34c-.15,0-.3,0-.44,0s0,0,0,0l-.6,0-.34,0-.27,0h-.23l-.84.06c-.27,0-.54,0-.81.07s-.55.1-.82.15l-.71.16-.65.19c-.33.11-.66.21-1,.34s-.73.34-1.1.49a4.24,4.24,0,0,0-1.05.61c-.27.2-.51.44-.76.66a.28.28,0,0,0-.07.09c-.13.28-.25.56-.37.84,0,.12-.09.24-.12.36s-.05.25-.08.38-.08.29-.11.44a2.84,2.84,0,0,1-.08.42,3.88,3.88,0,0,0-.11.49,1.52,1.52,0,0,1-.09.28.94.94,0,0,0-.06.15s0,.06,0,.08a.37.37,0,0,1,0,.29,1.83,1.83,0,0,0-.06.25c0,.22,0,.44,0,.67A9.76,9.76,0,0,0,19.32,32c.1.45.16.92.27,1.38s.22.77.33,1.16l0,0a.33.33,0,0,1,.12.35s.09,0,.1,0a2.4,2.4,0,0,1,.16.27l.12.24c.05.08.12.16.17.25s0,.12.07.18l.1.15c.05.08.08.21.15.23a.39.39,0,0,1,.21.19,1,1,0,0,0,.18.3,6,6,0,0,0,.54.46c.23.15.47.28.71.41s.4.18.6.28c.4.21.79.45,1.2.65a9.32,9.32,0,0,0,1,.43c.42.16.85.29,1.28.42a9.91,9.91,0,0,0,2,.27,4.73,4.73,0,0,0,.53,0,6.57,6.57,0,0,0,.77,0,13.94,13.94,0,0,0,1.58-.21,4.25,4.25,0,0,0,1-.32,2.19,2.19,0,0,1,.29-.17l.87-.29a4.08,4.08,0,0,0,1.91-1.12c.13-.14.29-.26.43-.39s.12-.19.2-.26c.26-.27.54-.51.79-.78a3.05,3.05,0,0,0,.46-.61c.2-.36.37-.75.56-1.12a4.2,4.2,0,0,0,.39-1,6.6,6.6,0,0,0,.14-1.83c0-.27,0-.53,0-.8a7.82,7.82,0,0,0-.23-1.92,3.39,3.39,0,0,1-.11-.71,2.19,2.19,0,0,0-.12-.33c-.16-.42-.27-.84-.45-1.25a2.54,2.54,0,0,0-.16-.28,3.23,3.23,0,0,1-.23-.51s.06-.07,0-.09l-.12-.27a3.38,3.38,0,0,0-.67-1l-.07,0-.08-.14Zm1.46,13.29,0,0,.16-.07,1-.54,1.75-1c.33-.19.65-.39,1-.59l.61-.4,1.11-.72c.31-.21.6-.45.93-.64a3.2,3.2,0,0,0,.61-.55l.68-.76.63-.67c.15-.18.28-.37.42-.56a.84.84,0,0,0,.14-.24.25.25,0,0,0,0-.3,2.69,2.69,0,0,1-.24-.48c0-.06-.1-.1-.11-.16s-.14-.23-.2-.34a3.55,3.55,0,0,0-.23-.31,2.4,2.4,0,0,0-.25-.37c-.19-.22-.4-.42-.61-.62s-.42-.36-.63-.54l-.42-.36L43.9,27l-.19-.13c-.19-.17-.37-.35-.56-.51A6.64,6.64,0,0,0,42,25.45a8.09,8.09,0,0,1-.73-.46l-.31-.22c-.08-.06-.17-.1-.25-.15l-.41-.28-.38-.23c-.19-.11-.37-.25-.57-.35s-.67-.31-1-.47-.47-.23-.7-.36-.43-.29-.66-.41-.63-.3-.94-.45-.34-.17-.52-.23c-.4-.13-.79-.26-1.19-.37a3,3,0,0,0-.42-.06v.06l.22,0s.07,0,.1,0a6,6,0,0,1,1,.57,1.44,1.44,0,0,0,.61.32.76.76,0,0,1,.26.06l.38.26c.15.11.29.25.45.36a4.39,4.39,0,0,1,.8.62l.27.24c.12.12.27.23.38.36s.24.34.36.51.1.1.14.15l.23.39c.12.19.26.38.37.58a5.9,5.9,0,0,1,.25.63,4.18,4.18,0,0,1,.38,1s0,0,0,0a3.24,3.24,0,0,1,.19.52,3,3,0,0,1,.08.6,4.87,4.87,0,0,0,0,.54,4.37,4.37,0,0,0,.15.7,3.18,3.18,0,0,1,0,.69l0,0c-.13.05-.08.17-.1.26s0,.13,0,.19-.08.37-.11.55c-.06.41-.1.82-.17,1.22s-.17.81-.26,1.22a2.81,2.81,0,0,1-.42,1c-.11.19-.23.37-.35.56a1.17,1.17,0,0,0-.05.11c-.09.17-.18.34-.28.51s-.18.21-.27.32-.07.12-.11.17-.16.12-.19.21-.19.21-.28.31A.47.47,0,0,0,37.86,37.42ZM19.25,25.15l0,0-.84.46L17,26.31c-.23.12-.48.24-.71.38a3.59,3.59,0,0,0-.84.67,2,2,0,0,1-.36.35,6.15,6.15,0,0,0-.85.76,2.54,2.54,0,0,0-.28.29,1.79,1.79,0,0,1-.38.3l-.35.26-.55.34a.2.2,0,0,0-.06.12,2,2,0,0,1-.08.65.52.52,0,0,0,.08.48c0,.05.06.12.1.18.17.31.34.62.52.93s.24.44.37.65a6.3,6.3,0,0,0,.37.53c.15.2.32.37.48.57s.38.5.56.75l.36.5c.15.2.29.41.44.62l.31.36c.11.11.21.23.32.33a5.2,5.2,0,0,0,.47.35l.94.58,1.15.64c.28.15.56.31.85.45l1.12.52c.18.08.36.19.55.27s.55.25.84.35.81.27,1.22.37c.64.16,1.28.29,1.92.41a5.61,5.61,0,0,0,.59.06s0,0,0,0,0,0,0,0a.94.94,0,0,1-.42-.13,5.31,5.31,0,0,0-.56-.2l-.29-.12-.14,0-.61-.23c-.13-.05-.26-.08-.39-.14l-.63-.29-.44-.22c-.15-.1-.29-.22-.43-.33a1.79,1.79,0,0,0-.25-.22,3.06,3.06,0,0,1-.55-.53l-.28-.25-.22-.19-.48-.5a3.72,3.72,0,0,1-.93-1.5c-.19-.59-.35-1.18-.52-1.78-.1-.37-.17-.74-.26-1.11a.65.65,0,0,0,0-.13,2.76,2.76,0,0,1-.23-.94v-.12c0-.19-.06-.38-.07-.57s0-.26,0-.4,0,0,0-.06-.07-.16-.05-.22a.84.84,0,0,0,0-.47,1.42,1.42,0,0,1,.05-.58s0-.05,0-.07a.36.36,0,0,1,0-.14c0-.15.06-.29.08-.44s.07-.52.11-.78l.09-.67,0-.09a2.77,2.77,0,0,0,.1-.26,7.15,7.15,0,0,1,.23-.79A5.3,5.3,0,0,1,19.25,25.15ZM15.63,35.7l0,0a3.17,3.17,0,0,1-.28-.36c-.1-.13-.17-.28-.27-.42s-.35-.48-.53-.71l-.32-.4c-.14-.18-.28-.35-.41-.53s-.32-.46-.47-.7L13.09,32c0-.08-.11-.15-.15-.23L12.5,31h0a1.27,1.27,0,0,0,0,.34c.09.26.19.52.31.78a5.12,5.12,0,0,0,.37.69c.19.29.41.57.62.85s.37.54.58.79.71.76,1.06,1.13A1.09,1.09,0,0,0,15.63,35.7ZM17,25l0,0c1.61-.86,3.23-1.7,4.78-2.66a2.78,2.78,0,0,0-.56.24,2.72,2.72,0,0,1-.46.21c-.14.05-.27.14-.42.2a4.93,4.93,0,0,0-.54.34c-.21.12-.42.21-.63.32l-.77.38-.33.19a4.8,4.8,0,0,0-.54.32c-.14.1-.26.22-.39.32Zm11.7,16.54A3.48,3.48,0,0,0,31,41.12,21.79,21.79,0,0,1,28.71,41.55Zm-4.5-2.15,0,0L24,39.24l-.77-.44a.63.63,0,0,0-.46-.09A5.42,5.42,0,0,0,24.21,39.4Zm22-10.31-.07,0s.06.09.1.13.06,0,.08.07.25.32.35.48.14.29.21.43l.07.11a.42.42,0,0,0,0-.15s0-.05,0-.07-.17-.29-.27-.43S46.42,29.29,46.26,29.09Zm-6-5,0,0,.3.22.32.24.5.33a2.71,2.71,0,0,0,.34.18l0,0ZM20.72,36.28l.05,0-.62-1A2.34,2.34,0,0,0,20.72,36.28Zm25.59-4.55,0,0-.88.95,0,0A4.27,4.27,0,0,0,46.31,31.73ZM26,20.38a8.28,8.28,0,0,0,1.11-.18v-.07A7,7,0,0,0,26,20.38Zm-6.46,6a1.8,1.8,0,0,0-.22.93C19.52,27,19.46,26.66,19.58,26.36ZM37.92,37.09l0,0,.64-.81,0,0Zm-9.31,4.5v0h-.79v0Zm-1.88-.2v0l.7.11v-.06l-.64-.08ZM47.66,30.93l0,0-.16.39,0,0ZM22.25,22.17l0-.05-.21.12,0,0Z" style="fill:#0410f2"/><path d="M16.27,39a1.57,1.57,0,0,1-.21.58,4,4,0,0,0-.49.89,5.6,5.6,0,0,1-.27.55c-.06.12-.11.25-.18.37s-.15.21-.22.32l-.21.29a.28.28,0,0,1-.09.1l-.56.41a1.94,1.94,0,0,1-.24.15,1.36,1.36,0,0,1-.6.11c-.12,0-.16.06-.21.14l-.21.29h-.07a.67.67,0,0,1-.47-.56c0-.07,0-.16-.11-.19s-.07-.09-.1-.14a2.16,2.16,0,0,1-.17-.34.2.2,0,0,1,0-.15c.07-.09.16-.15.23-.24a.63.63,0,0,0,.12-.23,2.16,2.16,0,0,1,.56-.77,4.8,4.8,0,0,1,1-.74,2.28,2.28,0,0,1,.51-.21,4.43,4.43,0,0,0,.86-.46,5.36,5.36,0,0,1,.62-.34,1.09,1.09,0,0,1,.31-.08C16.2,38.79,16.27,38.89,16.27,39Zm-1.63,2.77h-.07a2.82,2.82,0,0,0-.29.18c-.14.08-.27.17-.4.26a1.49,1.49,0,0,1-.59.17c-.1,0-.17,0-.18.15l.26,0a.65.65,0,0,0,.28,0,3.88,3.88,0,0,0,.48-.3c.17-.13.32-.28.48-.42A.16.16,0,0,0,14.64,41.81Zm-2.45.56-.06-.48A.29.29,0,0,0,12.19,42.37Z" style="fill:#0410f2"/><path d="M29.58,15.81c.05.19,0,.24-.17.33s-.27,0-.4-.06a2.12,2.12,0,0,0-.2-.12s-.07-.06-.07-.08c0-.26-.21-.42-.28-.64a5.62,5.62,0,0,1-.19-.58,5,5,0,0,1-.05-1.5c.06-.56.16-1.12.24-1.68,0-.12.09-.16.2-.18s.29-.11.43-.13.47-.07.64.14a.4.4,0,0,1,.07.19l.12.52a4.12,4.12,0,0,1,.14.78.47.47,0,0,0,.06.19.4.4,0,0,1,0,.15c0,.07,0,.13,0,.22s0,.18,0,.27,0,.48,0,.71a5.85,5.85,0,0,1,0,.73.85.85,0,0,1-.31.61Z" style="fill:#0410f2"/><path d="M13,22.79h-.06a1.37,1.37,0,0,1-.2-.13,2.13,2.13,0,0,0-.45-.34s-.07-.11-.11-.18c-.14.1-.19,0-.25-.11-.31-.35-.62-.71-.91-1.07a4.77,4.77,0,0,1-.9-1.58.67.67,0,0,1,0-.5.68.68,0,0,0,.07-.2c0-.13.08-.18.19-.14a.84.84,0,0,0,.47,0,.51.51,0,0,1,.41.06,3.13,3.13,0,0,1,.72.78,4.47,4.47,0,0,1,.29.35,11,11,0,0,1,.64.93,10.55,10.55,0,0,1,.47,1c.08.17.14.33.21.5a.28.28,0,0,0,.08.11.23.23,0,0,1,0,.36.45.45,0,0,1-.49.1L13,22.68l0,.11Z" style="fill:#0410f2"/><path d="M53.13,23.17s0,.09,0,.13a.82.82,0,0,0,0,.3.78.78,0,0,1-.13.54,2.34,2.34,0,0,1-1,1,1.3,1.3,0,0,0-.45.36.07.07,0,0,1-.07,0c-.06,0-.09,0-.08.06s0,0-.06.05l-.18.11-.41.2c-.09.05-.19.09-.28.15l-.53.36a.36.36,0,0,1-.53-.09l-.09-.13a.21.21,0,0,1,0-.28.36.36,0,0,0,0-.42c0-.07-.06-.12,0-.2s.17-.21.26-.31a3.58,3.58,0,0,1,1-.77l1.35-.8a3.36,3.36,0,0,1,.42-.22.41.41,0,0,1,.24,0c.13,0,.24.1.36.14s.12,0,.12-.09a.33.33,0,0,0,0-.1Z" style="fill:#0410f2"/><path d="M22.4,43.65l-.06.25h0a1,1,0,0,0,.12-.16c.06-.11.15-.08.21,0a.44.44,0,0,1,.13.2,4,4,0,0,1,.14.46,2.44,2.44,0,0,1,.08,1c-.05.31-.1.62-.16.92a2.7,2.7,0,0,1-.06.41c-.07.21-.17.41-.26.62a1.18,1.18,0,0,1-.41.45.2.2,0,0,0-.07.09c0,.09-.18.2-.25.19a.35.35,0,0,1-.29-.22.07.07,0,0,0,0-.06,1.55,1.55,0,0,1-.22-.89c0-.23,0-.46,0-.69a1.41,1.41,0,0,1,.14-.58,2,2,0,0,1,.13-.37c.11-.13.1-.31.21-.45a3.64,3.64,0,0,0,.27-.6c.06-.12.15-.23.22-.35s0-.1,0-.14l.08-.13Zm0,.3.33.53a.22.22,0,0,0,0-.16,1.48,1.48,0,0,0-.1-.27l-.07-.21Z" style="fill:#0410f2"/><path d="M32,44.35c.15.14.06.27,0,.39s0,.1.07.15a2.09,2.09,0,0,1,.52.42c.23.26.48.51.72.76l.07,0c-.06-.09-.08-.17-.13-.23l-.49-.47c-.11-.12-.2-.26-.32-.37s-.13-.09-.08-.21l.44.37a3.73,3.73,0,0,1,.3.26,3.47,3.47,0,0,1,.34.42A10.66,10.66,0,0,1,34.12,47a3.19,3.19,0,0,1,.35,1,.14.14,0,0,0,0,.07c.1.21.06.29-.21.29h-.13a2.42,2.42,0,0,1-.25,0c-.12,0-.23,0-.35-.05a1.34,1.34,0,0,0-.2,0,.51.51,0,0,1-.5-.33c-.08-.14-.22-.25-.29-.39a7.91,7.91,0,0,1-.35-.79c-.11-.29-.19-.59-.28-.89a1,1,0,0,1-.08-.22,2.33,2.33,0,0,1,0-.38c0-.09,0-.19-.06-.29s0-.13,0-.17.17-.23.19-.39A.54.54,0,0,1,32,44.35Zm2.18,3.55-.08.25.15,0Z" style="fill:#0410f2"/><path d="M20,18.4c0-.07,0-.12,0-.18s0-.08,0-.09A2.2,2.2,0,0,1,19.7,18s-.09-.07-.08-.08c.13-.34-.08-.62-.16-.93,0-.15-.06-.3-.1-.45a4.66,4.66,0,0,0-.22-.56c-.13-.26-.28-.5-.43-.74a.23.23,0,0,0-.07-.07.41.41,0,0,1,.09-.73c.07,0,.11-.15.22-.12l.46.1c.1,0,.23,0,.28.15.15,0,.22.12.34.15a.66.66,0,0,1,.44.39,4.23,4.23,0,0,1,.23,1,2.49,2.49,0,0,1,0,.77,1.92,1.92,0,0,1-.22.85c-.06.09-.13.17-.18.26a1.12,1.12,0,0,0-.1.31C20.19,18.43,20.19,18.44,20,18.4Z" style="fill:#0410f2"/><path d="M46.74,38.12a1.8,1.8,0,0,1,.8.17c.14.06.24.2.38.26s.17.28.32.35l0,0c0,.25.25.39.39.56s.23.2.32.32a4.87,4.87,0,0,1,.32.47l0,0a1.12,1.12,0,0,1,.32.45c.09.2.2.39.29.59s0,.12-.1.15a1.05,1.05,0,0,1-.53-.11l-.59-.17-.11,0a3.66,3.66,0,0,1-1.28-1,2.83,2.83,0,0,1-.6-.91.77.77,0,0,0-.14-.25.7.7,0,0,1-.1-.4,1.46,1.46,0,0,0,0-.22c0-.19,0-.3.23-.31Zm0,.1v0L48,39l0,0a2.2,2.2,0,0,0-.15-.26.9.9,0,0,0-.35-.25c-.13,0-.23-.16-.36-.21A2.84,2.84,0,0,0,46.79,38.22Zm2.83,3.14,0,0L49.49,41l-.13.24Zm-.56-1.1,0,0,.11.35.17-.11Z" style="fill:#0410f2"/><path d="M37,16.48c0,.14,0,.14-.11.12l.06-.18-.08,0a.24.24,0,0,1-.32-.1.77.77,0,0,0-.09-.13,1.69,1.69,0,0,0,.16-.45,3.08,3.08,0,0,1,.19-.47,6.7,6.7,0,0,0,.23-.88,2.17,2.17,0,0,1,.22-.79,8.88,8.88,0,0,1,.5-.9.47.47,0,0,1,.38-.23,1.36,1.36,0,0,1,.58.17.84.84,0,0,1,.14.06.14.14,0,0,1,.07.06.9.9,0,0,1-.06.84,8.7,8.7,0,0,0-.53.89c-.15.27-.24.56-.38.84a2.5,2.5,0,0,1-.25.41,5.2,5.2,0,0,1-.35.47A.72.72,0,0,1,37,16.48Z" style="fill:#0410f2"/><path d="M43,45a1.44,1.44,0,0,0-.31.13.44.44,0,0,0-.14.16c0,.05-.07.06-.14.06s-.3-.11-.44-.17,0-.06,0-.12l-.14,0,0,.09,0,.06s0,0-.08,0-.18.05-.18-.1c-.09,0-.13,0-.17-.12a1.31,1.31,0,0,1-.2-.39.52.52,0,0,0-.14-.2,4.13,4.13,0,0,1-.67-1.17c0-.12-.13-.21-.17-.33s-.2-.28-.18-.47,0-.09.1-.11a1.44,1.44,0,0,1,.62.09c.2,0,.4.08.59.12l0,0c.28.15.61.23.79.53l.27.43A6,6,0,0,1,43,44.78,1,1,0,0,1,43,45Zm-.55-1.12c0-.07.11-.21-.09-.26,0,0,0,0,0,0l-.21-.4s0-.11,0-.13-.17-.14-.26-.2a2.82,2.82,0,0,0-.84-.35h-.06Zm-2.09-1.17h0l-.05-.25C40.24,42.55,40.25,42.62,40.38,42.75Zm2.27,1.64c0-.17,0-.29-.14-.31Z" style="fill:#0410f2"/><path d="M47.59,17.17a.67.67,0,0,1,.15.06.23.23,0,0,1,.06.12,1.36,1.36,0,0,1,.08.39.58.58,0,0,1-.13.35c-.11.14-.26.26-.39.4s-.42.5-.64.74-.34.3-.5.46l-.44.41a.91.91,0,0,1-.78.32.22.22,0,0,1-.11-.05l-.28-.26,0-.22c.15-.15.29-.29.44-.42s.44-.39.64-.59.33-.35.5-.53.4-.41.6-.61a2.29,2.29,0,0,1,.23-.21,1.81,1.81,0,0,1,.67-.42Z" style="fill:#0410f2"/><path d="M44.49,20.16l.41.28c-.08,0-.14,0-.18,0S44.48,20.32,44.49,20.16Z" style="fill:#0410f2"/><path d="M13,22.79c.18,0,.3.11.29.24L13,22.79Z" style="fill:#0410f2"/><path d="M36.47,24.2l0,.17-.16-.19s0,0,0-.06h.12Z" style="fill:#0410f2"/><path d="M29.5,24.88c.12-.08.25-.06.26,0l.52.12a2.06,2.06,0,0,1,.32.07,1,1,0,0,1,.28.12,2.38,2.38,0,0,0,.57.24,2.87,2.87,0,0,1,1.38,1.12c.13.2.31.36.42.57a6.12,6.12,0,0,1,.34.78c.11.25.2.52.34.77a3.55,3.55,0,0,1,.37,1.57,2.38,2.38,0,0,0,.05.26,2.86,2.86,0,0,1,0,1.13,7.38,7.38,0,0,1-.48,1.6c-.1.24-.26.46-.35.71a2,2,0,0,1-.53.71,8,8,0,0,1-.77.65c-.14.1-.34.11-.48.21a1.78,1.78,0,0,1-.64.13c-.2,0-.42,0-.62.06a5.53,5.53,0,0,1-1.28.07,4.66,4.66,0,0,1-1.37-.25,3.57,3.57,0,0,1-.76-.31L26.66,35a4.94,4.94,0,0,1-.49-.3c-.19-.15-.37-.33-.55-.5a2.2,2.2,0,0,1-.31-.3c-.1-.13-.18-.28-.27-.42l0-.05a.22.22,0,0,1-.05-.08c-.06-.14-.07-.31-.23-.39s0,0,0,0c-.08-.18-.14-.35-.21-.53a.49.49,0,0,1-.09-.31S24.29,32,24.3,32s-.2-.22-.09-.38a0,0,0,0,0,0,0A5.63,5.63,0,0,1,24,30.21c0-.41,0-.82,0-1.23a1.93,1.93,0,0,1,.16-.66,6.36,6.36,0,0,1,.7-1.55,4.12,4.12,0,0,1,.68-.82,7.12,7.12,0,0,1,1-.63,1.31,1.31,0,0,1,.37-.15c.21-.06.43-.08.64-.16a6.7,6.7,0,0,1,1.18-.16c.24,0,.49,0,.74,0C29.42,24.81,29.45,24.85,29.5,24.88Zm-5,5.28c.05.23.08.48.15.7s.22.52.33.78.29.68.45,1a3.56,3.56,0,0,0,.71.84,4.87,4.87,0,0,0,.43.33,4.18,4.18,0,0,0,.94.6,2.8,2.8,0,0,0,.74.2c.35,0,.7.09,1.06.11a7.19,7.19,0,0,0,.92,0,5.69,5.69,0,0,0,.8-.11,2.76,2.76,0,0,0,1.1-.6c.05,0,.09-.12.14-.18a1.31,1.31,0,0,1,.21-.2.77.77,0,0,0,.33-.34c.13-.24.26-.49.37-.74a6,6,0,0,0,.24-.67c.13-.39.24-.78.36-1.17a.64.64,0,0,0,0-.2c0-.14,0-.28-.06-.43a2.44,2.44,0,0,0-.09-.47c-.06-.18-.16-.35-.24-.53a4.1,4.1,0,0,0-.21-.48c-.18-.29-.37-.57-.56-.85a2.23,2.23,0,0,0-.85-.79l-.7-.32A3.29,3.29,0,0,0,30,26.26l-.24-.05a4.25,4.25,0,0,0-.6-.12c-.33,0-.66,0-1,0s-.44,0-.65.05-.32.05-.48.07-.1,0-.12,0-.22,0-.29,0a4.54,4.54,0,0,0-.56.42c-.17.15-.35.29-.51.46a4.11,4.11,0,0,0-.73,1.2,4,4,0,0,0-.36,1.27C24.48,29.74,24.49,30,24.49,30.16Zm0,1.76c-.06.19.06.31.13.45l0,0Z" style="fill:#0410f2"/></svg>